<?xml version="1.0" encoding="utf-8"?>
<!-- Generator: Adobe Illustrator 25.2.1, SVG Export Plug-In . SVG Version: 6.00 Build 0)  -->
<svg version="1.1" id="Layer_1" xmlns="http://www.w3.org/2000/svg" xmlns:xlink="http://www.w3.org/1999/xlink" x="0px" y="0px"
	 viewBox="0 0 131.3 138.5" style="enable-background:new 0 0 131.3 138.5;" xml:space="preserve">
<style type="text/css">
	.st0{fill-rule:evenodd;clip-rule:evenodd;fill:#1C7AB5;}
	.st1{fill:none;stroke:#000000;stroke-width:0.4989;stroke-linecap:round;stroke-linejoin:round;stroke-miterlimit:10;}
</style>
<g>
	<polygon class="st0" points="114.4,38.8 92.7,38.8 21.6,0 21.6,38.8 0,38.8 0,47.7 21.6,47.7 21.6,86.4 92.6,47.7 114.4,47.7 	"/>
	<polygon class="st0" points="131.3,90.9 109.5,90.9 38.4,52.1 38.4,90.9 16.8,90.9 16.8,99.8 38.4,99.8 38.4,138.5 109.4,99.8 
		131.3,99.8 	"/>
	<path d="M66.1,61.1c0-2.2-0.4-4.1-1.2-5.4c-0.9-1.3-2-2.3-3.3-2.9c-1.4-0.7-2.7-1.2-4.2-1.4c-1.5-0.1-2.9-0.3-4.1-0.3
		c-3,0-5.9,0.4-8.6,1.2c-1.3,0.4-2.3,0.8-3.1,1.3c-0.9,0.5-1.3,1.1-1.3,1.7v3.3c0,0.3,0.1,0.5,0.3,0.7c0.2,0.2,0.7,0.3,1.4,0.3
		c1,0,1.9-0.3,2.6-0.7c0.6-0.5,1.3-1.1,1.9-1.6c0.7-0.7,1.6-1.2,2.6-1.7c1-0.4,2.3-0.6,3.9-0.6c2.2,0,4,0.5,5.5,1.5
		c1.5,1,2.2,2.6,2.3,4.5v2.3c-6-0.1-11.2,0.9-15.7,2.7c-4.5,2-6.9,5.5-6.9,10.6c0,3.2,1.1,5.7,3,7.6c1.9,1.8,4.4,2.7,7.5,2.8
		c4.9,0,9.1-1.6,12.3-4.8l0,0c0.1,1.4,0.5,2.5,1,3.4c0.5,0.9,1.5,1.4,3,1.4c1.1,0,2.4-0.3,3.7-0.9c0.6-0.3,1.1-0.6,1.5-1
		c0.4-0.3,0.6-0.7,0.6-1.2c0-1-0.4-1.5-1.2-1.5c-0.9,0.1-1.7,0.1-2.5,0.1c-0.6,0-0.9-0.5-0.9-1.5V61.1z M60.8,76.6
		c-0.8,1.2-2.1,2.3-3.9,3.5c-1.8,1.3-3.8,2-6,2.1c-2,0-3.7-0.4-5.1-1.4c-1.5-1-2.3-2.5-2.3-4.8c0.1-3.2,1.7-5.5,5-6.9
		c3.2-1.3,7.3-2,12.3-2.1V76.6z M79,95.1c0,1.2-0.2,2.1-0.5,2.5c-0.4,0.4-1,0.6-2,0.6c-0.9,0-1.5,0.1-1.8,0.2
		c-0.3,0.2-0.5,0.5-0.5,1v1.5c0,0.7,0.5,1.1,1.4,1.1h12.8c0.9,0,1.4-0.4,1.4-1.1v-1.5c0-0.5-0.1-0.8-0.4-1c-0.4-0.1-1.2-0.2-2.3-0.2
		c-1.1,0-1.8-0.2-2.2-0.6c-0.4-0.4-0.6-1.2-0.6-2.5V84.6l0,0c3.1,1.6,6.4,2.4,9.9,2.3c4.9-0.1,9-1.9,12.1-5.4
		c3.1-3.4,4.7-7.6,4.7-12.6c0-4.8-1.2-9-3.8-12.5c-2.6-3.5-6.3-5.3-11.3-5.4c-2.3,0.1-4.4,0.6-6.3,1.7c-1.9,1.1-3.7,2.6-5.4,4.4l0,0
		v-4.8c0-0.8-0.5-1.2-1.4-1.3c-0.8,0-1.4,0.3-2,0.8l-5.4,4.2c-0.6,0.5-0.9,1-0.9,1.4v1.7c0,0.6,0.3,1,1,1c0.4,0,0.8-0.1,1.3-0.4
		c0.5-0.3,0.9-0.4,1.1-0.4c0.7,0,1,0.3,1,1.1V95.1z M84.3,62.5c1.2-1.8,2.7-3.3,4.4-4.6c1.8-1.2,3.7-1.9,5.8-1.9
		c3.7,0.1,6.6,1.4,8.5,4.1c1.8,2.6,2.8,5.7,2.8,9.4c0,2.5-0.4,4.6-1.2,6.2c-0.7,1.7-1.8,3.1-3,4.1c-1.2,1-2.5,1.8-3.9,2.2
		c-1.4,0.5-2.7,0.8-4,0.8c-2.5,0-4.7-0.8-6.5-2.5c-1.9-1.5-2.8-3.7-2.9-6.7V62.5z"/>
	<g>
		<path d="M128.1,82.4c-1.1,0-1.9-0.2-2.3-0.6c-0.4-0.4-0.6-1.2-0.6-2.5V58.1c0-0.8,0.1-1.4,0.4-1.7s0.8-0.7,1.5-1.1
			c0.7-0.4,1-1,1-1.7v-1.4c0-0.6-0.4-1-1.1-1c-0.3,0-1,0.3-2.3,0.9c-0.7,0.4-1.8,0.9-3.1,1.6c-1.4,0.7-3.2,1.6-5.5,2.9
			c-0.5,0.3-0.8,0.7-0.7,1.2v1.6c-0.1,0.6,0.1,0.9,0.6,0.9c0.3,0,0.7-0.1,1.2-0.3c0.4-0.2,0.9-0.3,1.3-0.3c1,0,1.4,0.5,1.4,1.4v18.2
			c0,1.3-0.2,2.1-0.5,2.5s-1.1,0.6-2.3,0.6c-1.1,0-1.6,0.5-1.6,1.5v1.3c0,0.7,0.4,1.1,1.4,1.1h11.5c1,0,1.4-0.4,1.4-1.1v-1.3
			C129.7,82.9,129.2,82.4,128.1,82.4z"/>
		<path d="M122,39.1c-2.2,0-4,1.9-4,4.2s1.8,4.2,4,4.2s4-1.9,4-4.2S124.2,39.1,122,39.1z"/>
	</g>
	<path class="st1" d="M122,101.8c2.2,0,4.1,1.8,4.1,4.1s-1.8,4.1-4.1,4.1c-2.2,0-4.1-1.8-4.1-4.1S119.7,101.8,122,101.8"/>
	<path d="M120.5,107.7v-4.3h1.9c0.4,0,0.7,0,0.9,0.1s0.4,0.2,0.5,0.4c0.1,0.2,0.2,0.4,0.2,0.6c0,0.3-0.1,0.6-0.3,0.8
		c-0.2,0.2-0.5,0.3-0.9,0.4c0.1,0.1,0.3,0.1,0.3,0.2c0.2,0.2,0.3,0.3,0.5,0.6l0.7,1.2h-0.7l-0.6-0.9c-0.2-0.3-0.3-0.5-0.4-0.6
		c-0.1-0.1-0.2-0.2-0.3-0.3c-0.1-0.1-0.2-0.1-0.3-0.1c-0.1,0-0.2,0-0.3,0h-0.7v1.9H120.5z M121.1,105.3h1.2c0.3,0,0.5,0,0.6-0.1
		s0.3-0.1,0.3-0.3s0.1-0.2,0.1-0.4c0-0.2-0.1-0.4-0.2-0.5c-0.1-0.1-0.4-0.2-0.7-0.2h-1.3V105.3z"/>
</g>
</svg>
