<?xml version="1.0" encoding="utf-8"?>
<!-- Generator: Adobe Illustrator 28.3.0, SVG Export Plug-In . SVG Version: 6.00 Build 0)  -->
<svg version="1.1" id="Layer_1" xmlns="http://www.w3.org/2000/svg" xmlns:xlink="http://www.w3.org/1999/xlink" x="0px" y="0px"
	 viewBox="0 0 1200 1200" style="enable-background:new 0 0 1200 1200;" xml:space="preserve">
<path d="M600,0C268.6,0,0,268.6,0,600s268.6,600,600,600s600-268.6,600-600S931.4,0,600,0z M828.4,673.4
	c0.2,12.6-10.1,22.9-22.9,22.9c-12.4,0-22.7-10.3-22.9-22.9l0.2-232.4L398.9,824.8c-8.9,8.9-23.4,8.7-32.3-0.2s-8.9-23.2,0-32.1
	l383.8-383.8H517.8c-12.4,0-22.7-10.3-22.7-22.7c0-12.8,10.3-23.2,22.9-22.9h287.7c12.6-0.2,22.9,10.1,22.7,22.7V673.4L828.4,673.4z
	"/>
</svg>
