<?xml version="1.0" encoding="utf-8"?>
<!-- Generator: Adobe Illustrator 24.1.2, SVG Export Plug-In . SVG Version: 6.00 Build 0)  -->
<svg version="1.1" id="Layer_1" xmlns="http://www.w3.org/2000/svg" xmlns:xlink="http://www.w3.org/1999/xlink" x="0px" y="0px"
	 viewBox="0 0 517.2 97.3" style="enable-background:new 0 0 517.2 97.3;" xml:space="preserve">
<style type="text/css">
	.st0{fill-rule:evenodd;clip-rule:evenodd;fill:#439539;}
	.st1{fill:#439539;}
</style>
<g>
	<g>
		<path class="st0" d="M430.4,55.5c1,1.2,0.3,2.8-1.4,3.7c-1.7,0.9-3.8,0.7-4.9-0.4c-1-1.1-0.5-2.8,1.3-3.8
			C427.2,54.1,429.5,54.4,430.4,55.5z M444.7,47.3c-2,0.6-2.9,2.2-2.1,3.4c0.8,1.3,3,1.9,4.9,1.3c1.9-0.5,3-2,2.2-3.3
			C449,47.4,446.7,46.7,444.7,47.3z M466.2,43.5c-2.2,0.2-3.4,1.5-2.8,3c0.6,1.4,2.8,2.4,4.9,2.3c2.1-0.1,3.4-1.3,2.9-2.8
			C470.7,44.4,468.4,43.3,466.2,43.5z M489.2,44.2c-2.3-0.3-3.8,0.8-3.4,2.3c0.4,1.5,2.5,3,4.7,3.4c2.2,0.3,3.8-0.6,3.5-2.2
			C493.7,46.1,491.5,44.5,489.2,44.2z M512.9,50.1c-2.3-0.8-4.1-0.1-3.9,1.5c0.1,1.6,2,3.6,4.3,4.4c2.2,0.9,4,0.3,4-1.3
			C517.2,53,515.2,50.9,512.9,50.1z M412.4,52.9c-0.9,1.6-0.1,3,1.7,3.4c1.8,0.3,3.9-0.5,4.9-2c0.9-1.5,0.3-3-1.6-3.5
			C415.6,50.3,413.3,51.3,412.4,52.9z M423.2,37.6c-1.2,1.4-0.5,3,1.4,3.5c1.9,0.5,4.4-0.1,5.7-1.5c1.2-1.4,0.8-3-1.2-3.6
			C427,35.4,424.4,36.1,423.2,37.6z M437.1,23.7c-1.5,1.3-1,2.9,1,3.7c2,0.8,4.8,0.4,6.4-0.8c1.6-1.2,1.3-2.9-0.8-3.7
			C441.6,22,438.6,22.4,437.1,23.7z M454.1,11.6c-1.8,1.1-1.5,2.8,0.6,3.8c2.1,1,5.2,1.1,7,0.1c1.8-1,1.7-2.7-0.4-3.8
			C459.2,10.5,455.9,10.5,454.1,11.6z M473.9,1.9c-2.1,0.8-1.9,2.5,0.2,3.9c2.2,1.3,5.5,1.8,7.6,1.1c2.1-0.7,2.1-2.4-0.1-3.9
			C479.5,1.5,476,1.1,473.9,1.9z M429.8,63.5c-1.9,0-3.5,1.2-3.5,2.7c0,1.4,1.4,2.5,3.2,2.5c1.8,0,3.3-1.1,3.4-2.5
			C433.1,64.7,431.7,63.5,429.8,63.5z M448.5,65.4c-1.8-0.4-3.5,0.5-3.8,1.9c-0.3,1.4,0.8,2.7,2.5,3.1c1.7,0.3,3.3-0.4,3.7-1.8
			C451.4,67.2,450.3,65.7,448.5,65.4z M465.8,71c-1.6-0.7-3.4-0.2-4,1.1c-0.6,1.3,0.2,2.8,1.7,3.5c1.5,0.7,3.3,0.2,3.9-1
			C468.1,73.4,467.4,71.7,465.8,71z M481.1,79.9c-1.4-1-3.3-0.9-4.1,0.3c-0.8,1.2-0.4,2.8,0.9,3.8c1.3,0.9,3.1,0.9,4-0.2
			C482.9,82.7,482.5,80.9,481.1,79.9z M494.1,91.7c-1.1-1.3-3-1.5-4-0.6c-1.1,1-1,2.7,0.1,3.9c1.1,1.2,2.8,1.5,3.9,0.6
			C495.2,94.8,495.2,93,494.1,91.7z M458.4,55.4c-2-0.2-3.7,0.8-3.7,2.3c0,1.4,1.5,2.7,3.5,2.9c1.9,0.2,3.6-0.7,3.7-2.1
			C462,57,460.5,55.6,458.4,55.4z M478.9,59.7c-2-0.6-3.9,0-4.2,1.4c-0.3,1.4,1,2.9,2.8,3.6c1.9,0.6,3.7,0.1,4.1-1.3
			C482.2,62.1,480.9,60.4,478.9,59.7z M445,35.1c-1.9,0.9-2.2,2.6-0.8,3.7c1.4,1.1,4,1.3,5.9,0.5c1.9-0.8,2.4-2.5,1-3.7
			C449.6,34.5,446.9,34.2,445,35.1z M465.8,27.5c-2.2,0.6-2.8,2.2-1.4,3.5c1.3,1.3,4.1,2,6.2,1.5c2.1-0.5,2.9-2,1.6-3.4
			C470.8,27.6,467.9,26.9,465.8,27.5z"/>
	</g>
	<path class="st1" d="M279.2,42.2c-1.6,0.9-3,1.3-4.2,1.3c-1.2,0-1.7-0.3-1.7-1c0-0.4,0.6-0.6,1.9-0.7c1.3-0.1,2.2-0.3,2.8-0.6
		c1.7-1.2,2.5-2.9,2.5-5.1c0-1.2-0.2-2.4-0.7-3.7c-1.4-3.3-4.8-5-10.1-5c-3.1,0-6.2,0.6-9.3,1.9c-3.1,1.2-5.7,3.2-7.8,5.7
		c-2.1,2.6-3.1,5-3.1,7.2c0,3.4,2.5,5.8,7.5,7.4l7.7,1.9c3.1,0.8,5.4,1.8,6.9,3.1c2,1.6,3,3.9,3,7c0,1.2-0.2,2.5-0.5,3.9
		c-1.4,6.3-5,11-10.8,14.4c-4.8,2.8-10.6,4.3-17.1,4.3c-1.9,0-3.5-0.1-4.9-0.3c1.4,1,3.2,1.9,5.5,2.7c0.2,0.1,0.3,0.2,0.3,0.3
		c0,0.5-0.5,0.8-1.4,0.8c-1.8,0-4-1.4-6.7-4.3c-3.6-0.8-6.3-2.1-8.1-4c-1.1-1.2-2.2-3-3.1-5.4c-1-2.4-1.4-4.5-1.4-6.4
		c0-1.9,0.3-3.5,0.9-4.8c1.3-3.1,3-4.6,5-4.6c1.5,0,2.4,1.7,2.7,5.1c0.6,6.6,1,10.4,1.2,11.3c0.7,2.8,1.8,5.2,3.3,7.2
		c1.8,0.5,3.8,0.8,6,0.8c4.7,0,9.3-1.2,13.9-3.7c4.5-2.5,7.8-6,9.8-10.6c0.8-1.8,1.2-3.4,1.2-4.8c0-2.7-1.8-4.8-5.4-6.3l-11.5-3.5
		c-2.4-0.8-4.2-2-5.7-3.7c-1.4-1.7-2.1-3.7-2.1-6c0-3.5,1.6-7,4.9-10.4c2.5-2.7,5.5-4.7,9.1-6.2c3.6-1.5,7.1-2.2,10.6-2.2
		c3.5,0,6.3,0.7,8.6,2c2.9,1.8,4.4,4.4,4.4,7.9S281.9,40.9,279.2,42.2z M237.1,81c-2.5-3.7-4.1-8.8-4.8-15.2
		c-0.4-3.7-0.8-5.5-1.1-5.5c-0.3,0-0.7,0.1-1,0.4c-0.3,0.3-0.6,0.8-0.9,1.7c-0.3,0.9-0.5,2-0.5,3.4c0,4.5,1.2,8.3,3.5,11.5
		C233.5,78.9,235.1,80.2,237.1,81z"/>
	<path class="st1" d="M301,59.8c0,4.7-2,9.1-6.1,13.3c-4,4.2-7.5,6.3-10.5,6.3c-2,0-3.4-0.2-4.3-0.5c-0.9-0.3-1.9-1.4-3-3.1
		c-0.7,0.8-1.7,2.9-3,6.2c-1.3,3.3-1.9,6.2-1.9,8.6c0,1.1,0.4,2.5,1.2,4.3c0.1,0.3,0,0.5-0.2,0.7c-0.2,0.2-0.4,0.3-0.5,0.3
		c-0.1,0-0.2,0-0.3-0.1c-1.8-1.3-2.7-3.9-2.7-7.8c0-3.9,2.4-10.5,7.2-20c4.8-9.5,8.1-14.6,10-15.4c0.4-0.1,0.7-0.2,0.8-0.2
		c0.7,0,1.1,1.1,1.1,3.2c0.4-0.6,1.3-1.1,2.7-1.6c1.7-0.6,2.8-0.9,3.5-0.9c1.6,0,2.9,0.6,4.1,1.8C300.5,56.2,301,57.8,301,59.8z
		 M297.7,59c0-2.2-1-3.3-2.9-3.3c-2,0-3.8,0.6-5.4,1.7c-0.7,0.5-2.8,3-6.1,7.7c-3.4,4.6-5,7.6-5,9c0,1,0.6,1.8,1.8,2.3
		c1.2,0.5,2.4,0.8,3.6,0.8c2.4,0,5.3-1.8,8.8-5.4C296,68,297.7,63.8,297.7,59z"/>
	<path class="st1" d="M314.4,79.9c-3.3,0-4.9-2.4-4.9-7.2c0-2.4,0.5-5.1,1.4-8c1-2.9,2-5.3,3.1-7.3c-0.2,0.1-0.5,0.1-0.9,0.1
		c-1,0-1.9-1-2.6-3l-4.8,8.4c-2.7,4.5-4.3,6.7-4.7,6.7c-0.2,0-0.3-0.1-0.3-0.3c0-0.6,0.4-1.4,1.1-2.5c3.8-5.9,6.5-10.8,8-14.9
		c1-5,2.3-7.6,3.8-7.6c1,0,1.5,0.6,1.5,1.7c0,1.2-0.5,2.6-1.6,4.4l-1.6,2.8c0,1.2,0.7,1.8,2,1.8c0.8,0,1.7-0.4,2.6-1.1l1.7-1.4
		c0.1-0.1,0.3-0.1,0.7-0.1c0.4,0,0.7,0.3,1.1,0.9c0.4,0.6,0.5,1.1,0.4,1.6l-4.5,7.6c-2.8,4.8-4.2,8.5-4.2,11.3c0,2.8,1,4.1,2.9,4.1
		c2,0,4.5-1.4,7.4-4.3c1.7-1.7,3.3-3.6,4.8-5.7c1.3-2.1,2.1-3.1,2.2-3.1c0.3,0,0.5,0.2,0.5,0.7c0,0.4-0.2,0.9-0.6,1.5l-2.1,3.1
		c-1.2,1.6-2.5,3.2-3.9,4.7C319.5,78.2,316.6,79.9,314.4,79.9z"/>
	<path class="st1" d="M348.6,53.5l0.9-0.3c0.5,0,0.9,0.3,1.4,0.8c0.4,0.5,0.7,0.9,0.7,1.2c0,0.3-1.4,3.1-4.1,8.4
		c-2.7,5.3-4.1,9-4.1,11.1c0,0.2,0,0.3,0.1,0.5c0.2,1.3,0.7,2,1.4,2c2.3,0,6.4-5,12.4-15c0.1-0.2,0.3-0.3,0.5-0.3
		c0.2,0,0.3,0.2,0.3,0.7c0,0.4-0.2,1-0.6,1.7c-5.6,9.9-9.8,14.9-12.8,14.9c-0.4,0-0.8-0.1-1.1-0.3c-1.9-1-2.9-2.9-2.9-5.7
		c0-1,0.1-2,0.3-3l-4.1,5.2c-2.6,3-4.4,4.5-5.6,4.5c-1.2,0-2.3-0.5-3.3-1.5c-1.2-1.2-1.8-2.7-1.8-4.6c0-4.2,2.2-9.3,6.7-15.2
		c4.4-5.9,8.5-8.8,12.2-8.8c1.4,0,2.4,0.7,2.9,2c0.1,0.5,0.2,0.9,0.3,1.2C348.5,53.3,348.6,53.5,348.6,53.5z M329,74.9
		c0,2.1,0.5,3.1,1.6,3.1c2.5,0,6-3.7,10.3-11l6.9-12.7c-0.3-0.8-0.9-1.2-1.7-1.2c-2.7,0-6.2,2.7-10.6,8.2
		C331.2,66.7,329,71.3,329,74.9z"/>
	<path class="st1" d="M350.1,89.6c2.1,3.5,3.9,5.2,5.4,5.2c2.5,0,5.2-2.6,8-7.9c2.1-3.9,4.1-8.8,6.1-14.7l2.5-8l-9.6,10
		c-3,3.1-5.3,4.6-7.1,4.6c-1,0-1.7-0.4-2.3-1.3c-0.6-0.9-0.8-1.9-0.8-3c0-2.5,1.6-6.6,4.8-12.3c3.2-5.7,5.6-8.6,7.1-8.6
		c1.5,0,2.2,0.7,2.2,2c0,0.5-1.9,3.5-5.8,9c-3.9,5.5-5.8,9.2-5.8,11.1c0,0.8,0.4,1.1,1.1,1.1c1.4,0,4.2-2.2,8.4-6.5
		c4.2-4.3,7.4-7.9,9.5-10.8c0.5-0.8,1.2-1.9,2-3.4c0.8-1.3,1.7-1.9,2.7-1.9c1,0,1.5,0.6,1.5,1.9c0,0.2-1,2.3-2.9,6.2
		c-2,3.9-3,5.9-3.1,6.2c-1.4,3.5-3.4,8.6-6.2,15.2c-4.2,9-8.5,13.6-12.7,13.6c-1.4,0-2.6-0.8-3.7-2.4
		C350.6,93.3,350.1,91.5,350.1,89.6z"/>
	<path class="st1" d="M409,67.9c-1.3,0.9-14.8,7.8-16.9,8.4l-2.1,1.8c-1.3,1-2.8,1.5-4.7,1.5c-1.9,0-3.3-0.8-4.3-2.4
		c-1-1.6-1.8-4.2-2.5-7.7c-0.8,1-1.3,1.6-1.6,1.6c-0.2,0-0.3-0.2-0.3-0.6c0-0.4,0.1-0.8,0.3-1c1.4-2.4,3.9-5.8,7.3-10.3l8.2-10.3
		c2.4-3,3.8-4.4,4.2-4.4c1.4,0,2.1,0.7,2.1,2.1c0,0.7-0.2,1.4-0.6,2c-0.4,0.7-0.7,1.2-0.9,1.6c-0.2,0.4-0.4,0.7-0.6,1.1
		c-0.8,1.8-1.6,5.5-2.4,11.1c-0.8,5.6-1.4,9.5-1.9,11.7 M381.2,68.5c0,2,0.5,3.6,1.5,4.8c1,1.2,2.1,1.9,3.3,1.9c1.2,0,2.2-0.3,2.8-1
		c0.9-0.6,1.7-3.3,2.6-8c0.9-4.7,1.4-8.8,1.5-12.4l0.3-3c-2.4,2.4-5,5.5-7.7,9.2c-2.7,3.8-4.1,6.3-4.2,7.5
		C381.2,67.9,381.2,68.2,381.2,68.5z"/>
	<path class="st1" d="M72.5,83.3c-3.3,2.7-8.7,3.6-13.3,3.6c-10.5,0-17.1-8.2-17.1-20.2c0-22,16.3-41.5,34.9-41.5
		c9,0,14.3,2.8,14.3,7.4c0,2.9-2.2,5.4-7.1,8c-0.9-5.9-5.1-9.1-10.8-9.1c-12,0-19.1,20.1-19.1,33.8c0,8.9,3.1,14.3,9.3,14.3
		c2.4,0,4.9-1,7.2-2.2c2.4-3.4,3.3-7.7,4.3-13c0-1.4-0.2-1.9-0.9-2.3c-1.2,0-2.5,0.2-3.8,0.8c0-5.9,2.9-5.6,12.4-6.1
		c1.4-0.1,3.8-0.1,3.9,0.9c0.1,1.1-0.4,2.4-0.8,3.8c-2.1,8.7-3.5,15.8-3.5,18.8c0,1.5,0.8,3.1,0.8,4c-1.8,1.1-5.1,1.7-7.9,1.7
		C73.2,85.8,72.5,85.5,72.5,83.3z M110.9,66c5.2,13.1,9.1,15.6,12,17.1c-0.9,2.4-3.8,3.3-6.4,3.3c-2.9,0-4.5-1.5-6.2-4.7
		c-1.9-3.5-4.8-10.2-6.5-15.2c-0.5-0.1-1.2-0.2-1.8-0.4c-1.4,6.8-3.1,13-3.1,15.7c0,1.6,0.3,2.4,0.3,3.1c0,0.9-5.5,1.3-5.7,1.3
		c-1.8,0-2.6-0.6-2.6-2.4c0.1-0.6,0.1-1.2,0.2-2c2-8.9,4.6-18.4,6-25.5c0.5-2.3,0.8-4.2,0.8-5.5c0-1.6-0.8-2.1-1.8-2.8
		c1.1-3.3,7.1-4.8,13.9-4.8c8.1,0,13.4,2.8,13.4,9.1C123.3,59,118.3,63.8,110.9,66z M102.8,62.1c0,1.1,1.2,1.1,2,1.1
		c6.4,0,10.6-3.7,10.6-9.8c0-3.9-2.4-5.8-6.7-5.8c-3.7,0-4.1,0.6-4.1,2.1c0.5,0.1,0.6,0.5,0.6,0.9c0,0.2,0,0.4-0.1,0.5
		c-0.6,3.2-1.6,6.7-2.3,10.1C103,61.5,102.8,61.8,102.8,62.1z M148,44.1c2.1,0,4.1-0.2,5.6-0.2c2.1,0,3,0.2,3.7,1
		c-0.4,2.6-1.9,5.6-4.2,5.6c-0.6,0-1.7-1.3-4.5-1.3h-2c-1.5,0-2.9-0.1-4-0.1h-2.4c0.5,0.5,0.6,1.1,0.6,1.6c0,0.3,0,0.6-0.1,0.9
		c-0.6,3.1-1.4,6.5-2.3,10.3h3.2c3.4,0,6.9-0.4,9.5-0.8c0,0.4-0.1,0.8-0.2,1.3c-1.2,4.3-4.3,4.6-8.7,4.6c-1,0-2.1,0-3.2,0
		c-0.5,0-1.1,0-1.6,0c-0.8,2.4-1.9,6.9-1.9,9.8c0,4.3,3.7,4,6,4c5.4,0,9.7-2.3,11-2.3c0,6.7-5.4,7.6-13.4,7.6c-2.5,0-5-0.1-7.5-0.1
		c-4,0-4.6-1.9-4.6-4.8c0-2.1,0.6-5,1.2-7.3c2.7-10.2,4.9-17.9,4.9-22.4c0-0.8,0.1-1.8-0.3-1.7c-0.7,0.2-1.4,0.2-1.7,0.2
		c-0.2-0.1-0.2-0.3-0.2-0.9c0-0.5,0.1-1,0.3-1.5c1-1.9,1.4-2.3,3.1-2.5C138.8,44.4,143.4,44.1,148,44.1z M176.9,44.1
		c2.1,0,4.1-0.2,5.6-0.2c2.1,0,3,0.2,3.7,1c-0.4,2.6-1.9,5.6-4.2,5.6c-0.6,0-1.7-1.3-4.5-1.3h-2c-1.5,0-2.9-0.1-4-0.1h-2.4
		c0.5,0.5,0.6,1.1,0.6,1.6c0,0.3,0,0.6-0.1,0.9c-0.6,3.1-1.4,6.5-2.3,10.3h3.2c3.4,0,6.9-0.4,9.5-0.8c0,0.4-0.1,0.8-0.2,1.3
		c-1.2,4.3-4.3,4.6-8.7,4.6c-1,0-2.1,0-3.2,0c-0.5,0-1.1,0-1.6,0c-0.8,2.4-1.9,6.9-1.9,9.8c0,4.3,3.7,4,6,4c5.4,0,9.7-2.3,11-2.3
		c0,6.7-5.4,7.6-13.4,7.6c-2.5,0-5-0.1-7.5-0.1c-4,0-4.6-1.9-4.6-4.8c0-2.1,0.6-5,1.2-7.3c2.7-10.2,4.9-17.9,4.9-22.4
		c0-0.8,0.1-1.8-0.3-1.7c-0.7,0.2-1.4,0.2-1.7,0.2c-0.2-0.1-0.2-0.3-0.2-0.9c0-0.5,0.1-1,0.3-1.5c1-1.9,1.4-2.3,3.1-2.5
		C167.8,44.4,172.3,44.1,176.9,44.1z M209,86.2c-1,0-2.1-1.6-2.9-3.6c-0.5-1.2-7.3-18.8-9.1-23.3c-0.3-0.9-0.5-1.7-0.9-2.5
		c-2.5,9.4-5.1,21.7-5.1,24.2c0,1.6,0.4,3,1.2,4c-1.9,0.8-3.7,1.2-5,1.2c-2.3,0-3.2-1-3.2-3.1c0-2.5,1.9-8.4,3.7-15.4
		c1.9-7.1,4.3-16,4.3-18.4c0-1.2-0.3-2.2-1-3.1c2-1.6,4.3-2.5,5.8-2.5c2.4,0,3.8,2.4,5.7,8.6c3,9.8,6.4,19.8,8.4,24
		c1.2-3.5,2.1-8,3.1-12.2c1.6-6.4,2.6-12,2.6-15.1c0-1.7-0.4-3.1-1-4.1c1.8-0.8,3.4-1.2,4.8-1.2c2.6,0,3.2,1.7,3.2,3.6
		c0,0.6-0.1,1.3-0.2,1.9c-0.2,1.3-8.6,33.7-9,36.3C212.8,85.9,210.9,86.2,209,86.2z M32.9,57.3c5.5,0.7,12.9,2,20.6,1.2
		c1-0.1,1.9-0.3,2.9-0.6c0.9-0.3,1.9-0.8,2.5-1.9c0.5-1.1,0.2-2.3-0.3-3.1c-0.5-0.9-1.1-1.6-1.8-2.3c-2.7-2.6-5.7-4.4-8.3-6
		c-5.3-3.1-9.3-5.1-10.3-5.6c-4-2-7.4-3.2-7.6-2.9c-0.2,0.4,2.9,2.3,6.9,4.2c1,0.5,5.1,2.4,10.4,5.3c2.6,1.5,5.6,3.3,8.2,5.7
		c1.2,1.2,2.6,2.8,2,4.3c-0.7,1.4-2.9,1.9-4.6,2.1c-7.5,0.9-14.9-0.2-20.4-0.7c-5.5-0.7-9.1-1.1-9.1-1.1
		C23.8,56,27.4,56.5,32.9,57.3z M42.5,61.3c-0.8-0.9-2.1-2.2-3-4.1c-0.5-0.9-0.6-2.3,0.4-3c0.9-0.7,2.1-1,3.4-1.1
		c2.5-0.3,5.3-0.3,8.1-0.3c1.4,0,2.8,0,4.2-0.2c1.3-0.2,3-0.3,4.1-1.6c1-1,1.8-2.5,1.9-4c0.2-1.5-0.1-2.9-0.5-4.1
		c-0.8-2.4-1.8-4.2-2.6-5.6c-0.8-1.4-1.3-2.3-1.5-2.7c-1.8-3-3.1-5.3-3.5-5.2c-0.4,0.2,0.4,3.1,2.2,6.1c0.3,0.8,2.5,3.6,4.2,7.9
		c0.8,2.1,0.9,4.9-1,6.8c-0.7,1-2.1,1.2-3.4,1.4c-1.3,0.2-2.7,0.2-4.1,0.3c-2.8,0.1-5.5,0.1-8.1,0.6c-1.3,0.2-2.5,0.5-3.5,1.4
		c-1.1,0.9-0.9,2.5-0.4,3.4C40.3,59.3,41.6,60.5,42.5,61.3c0.8,0.9,1.3,1.4,1.3,1.4C43.8,62.7,43.3,62.2,42.5,61.3z"/>
	<path class="st1" d="M407.7,70.9c-0.9-0.3-1.2-0.6-1.4-1c0.2-0.7,0.5-1.5,1.1-2.3c0.3-0.4,0.7-0.8,1.1-1c0.5-0.3,0.9-0.5,1.3-0.6
		c0.8-0.3,1.5-0.3,1.7-0.4c0.2,0,0.6-0.1,1.1-0.1c0.5,0,1-0.1,1.6-0.2c1-0.2,1.9-0.5,1.9-0.5c0,0-0.9,0.2-2,0.3
		c-0.5,0.1-1,0.1-1.5,0c-0.5,0-0.9,0-1.1,0c-0.4,0-3,0.1-4.7,2c-0.4,0.5-0.7,1-0.9,1.5c-0.2-0.2-0.5-0.5-0.5-1c0-0.8,0.7-3.3,3.6-4
		c2.9-0.7,5.8,0.2,7.3,0.1c1.5-0.1,2.3-0.8,2.3-0.8S415.4,71.9,407.7,70.9z"/>
	<path class="st1" d="M47.3,29.4c1.9,0.7,3.1,0.6,3.9,0.2c0.6-1.6,1.1-3.6,1.1-5.7c0-1.2-0.3-2.4-0.8-3.4c-0.5-1.2-1-2.1-1.6-3
		c-1.1-1.7-2.3-2.7-2.7-3c-0.4-0.3-1.1-0.9-1.9-1.7c-0.8-0.7-1.8-1.6-2.6-2.5C41.2,8.6,40,6.8,40,6.8c0,0,1.4,1.6,3.2,3.2
		c0.9,0.8,1.9,1.6,2.8,2.2c0.9,0.6,1.6,1.2,2,1.6c0.7,0.7,5.3,4.3,5.9,10.1c0.1,1.4-0.1,2.8-0.3,4.1c0.7,0,1.7-0.2,2.3-1.2
		c1.1-1.6,3.2-6.9-1.2-12.3C50.2,9,43.6,6.8,41,4.7C38.3,2.5,38,0,38,0S31.8,20.9,47.3,29.4z"/>
	<path class="st1" d="M25.8,38.6c1.9-0.7,2.8-1.5,3.2-2.3c-0.5-1.6-1.4-3.5-2.7-5.1c-0.8-0.9-1.7-1.7-2.7-2.1
		c-1.1-0.6-2.1-1-3.1-1.3c-1.9-0.6-3.5-0.6-4-0.7c-0.5,0-1.4-0.1-2.5-0.1c-1.1,0-2.4-0.1-3.6-0.3c-2.4-0.4-4.5-1-4.5-1
		c0,0,2.1,0.4,4.5,0.5c1.2,0.1,2.4,0,3.5,0c1.1-0.1,2-0.1,2.6,0c1,0.1,6.8,0,10.9,4.1c1,1.1,1.7,2.2,2.3,3.4
		c0.5-0.5,1.2-1.3,1.1-2.4c-0.1-1.9-1.8-7.4-8.7-8.9c-6.8-1.4-13.3,1-16.8,1c-3.4,0-5.3-1.7-5.3-1.7S8.4,41.7,25.8,38.6z"/>
</g>
<g>
	<path class="st1" d="M493.9,74.6v-5.9h-2.3v-1h5.7v1h-2.3v5.9H493.9z M498.1,74.6v-7h1.7l1.8,5.6l1.7-5.6h1.7v7h-1.1v-5.8l-1.8,5.8
		h-1.1l-1.9-5.9v5.9H498.1z"/>
</g>
</svg>
