<?xml version="1.0" encoding="UTF-8" standalone="yes"?>
<svg viewBox="0 0 64.0001 64.0001" version="1.2" baseProfile="tiny-ps" xmlns="http://www.w3.org/2000/svg">
  <title>bimi-svg-tiny-12-ps</title>
  <polygon points="55.0027 0 8.9972 0 0 0 0 8.9973 0 55.0029 0 64.0001 8.9972 64.0001 55.0027 64.0001 64.0001 64.0001 64.0001 0 55.0027 0" fill="#1e7395"/>
  <path d="M53.9454,19.0372h-2.7491c-1.8854,2.2787-4.4392,5.5394-10.3705,12.2561v-2.3957c0-5.3824,.1182-8.7987,.433-9.8603h-2.7504c.0525,.2029,.0976,.5182,.1389,.89l-8.0795,22.2457-8.951-23.1235c.0009-.0032,.0015-.0089,.0024-.0121h-2.7504c.3148,1.0614,.433,4.4777,.433,9.8602v9.466c0,3.6128-.1966,4.6358-4.1244,4.6358-2.4355,0-5.3028-.5103-6.5599-1.1002l.5887,2.2775c.9035,.2763,3.0641,.7866,5.1062,.7866,2.3967,0,4.2358-.677,5.4214-1.9887,.9522-1.0534,1.492-2.5071,1.492-4.4144v-1.7955c-.0045-.6507-.007-1.3314-.007-2.0539v-11.5093l.0685,.1767,8.2199,21.1917h1.5321l7.7979-21.2772c.0068,.2401,.0133,.4851,.0189,.7431v10.6751c0,5.3813-.1182,8.7987-.4319,9.8591h2.8345c-.3148-1.0603-.433-4.4778-.433-9.8591v-1.5319l.3534-.3536,10.9205,11.7446h2.9061l-12.5299-13.1982c6.4417-6.9916,9.309-10.0557,11.4694-12.3344Z" fill="#fff"/>
</svg>