<svg id="Layer_1" data-name="Layer 1" xmlns="http://www.w3.org/2000/svg" xmlns:xlink="http://www.w3.org/1999/xlink" viewBox="0 0 2232.34 1080"><defs><style>.cls-1{fill:#0d436d;}.cls-2{fill:url(#linear-gradient);}</style><linearGradient id="linear-gradient" x1="34.13" y1="-104.33" x2="797.79" y2="950.25" gradientUnits="userSpaceOnUse"><stop offset="0" stop-color="#fff"/><stop offset="0.02" stop-color="#f3c398"/><stop offset="0.18" stop-color="#f1c39b"/><stop offset="0.66" stop-color="#a6bce2"/><stop offset="1" stop-color="#a6bce2"/></linearGradient></defs><path class="cls-1" d="M491.74,387l95.6-.79c35.9-.29,63.22,9.7,63.55,49,.16,19.39-11.46,40.44-37.86,46.69v.52c22.81,2.7,35,18.31,35.42,38.49.81,34.05,1.95,45,5.67,51.82l-12.06.1c-3.43-3.12-4.57-14.89-5.59-43.44-1.06-32.48-11.61-41.56-48.55-41.26l-83.31.69.7,85.14-12,.1Zm12.79,91.33,81.48-.67c11.78-.1,53.17-.44,52.82-43.14-.25-30.39-23.9-38-50.35-37.83l-84.62.7Zm262.72-97.79c76-.63,99.78,60.21,100.09,96.89s-22.51,97.9-98.48,98.53-99.79-60.21-100.09-96.89S691.27,381.18,767.25,380.55Zm1.53,185c56.32-.47,86.87-43.16,86.51-88s-31.64-87-88-86.51-86.88,43.16-86.51,88S712.45,566,768.78,565.5Zm125.77-56.58c.54,34.84,21.94,55.36,72.24,54.94,45.85-.38,62.44-20.16,62.27-42.17-.18-21-10.21-30.3-49.57-38.1l-34.91-7c-40.93-8.31-56.76-20.23-57-48.53-.23-28,24-48.66,70.33-49,47.16-.39,77.16,16.65,78.81,56.46l-12,.09c-1.75-21.46-14-46.51-63.27-46.1-45.59.37-60.37,17.26-60.2,38.74.17,19.91,8.9,29.79,44.58,36.57L984.37,472c37.52,7,58.06,18.91,58.3,48.78.21,25.41-16.33,53.05-74.75,53.53-61.3.51-85.1-25.75-85.42-65.31Zm170-126.63,147.74-1.22.09,10.48-135.7,1.12.61,74.4L1207.5,466l.08,10.48-130.19,1.07.67,81.21,137.27-1.13.08,10.48-149.31,1.23Zm169.72-1.4,15.19-.13,141,169.13h.53l-1.4-170.29,12-.09,1.54,187-15.2.13L1247,397.55h-.52l1.4,170.27-12,.1Zm198.79-1.65,100.86-.83c35.88-.29,54.63,16.32,54.87,45.66.15,18.34-8.08,37-36.32,43.27v.52c36.44,3.37,43.21,29.77,43.34,45.75.17,20.18-10.58,51.44-62.19,51.86l-99,.82ZM1445.81,464l83.31-.68c9.7-.08,47.94-.4,47.62-38.39-.29-36.4-30.15-36.16-50.06-36l-81.48.67Zm.76,91.69,84.35-.69c9.44-.08,53.19-.44,52.84-42.35-.33-39.3-36-39-56.64-38.84l-81.22.67Zm175.6-178,12-.1,1.45,176.56,122.6-1,.09,10.48-134.65,1.11Zm217.67-1.8,13.62-.11,87.46,186.33-13.62.12-28-60-103.22.85-27,60.48-13.62.11Zm-39.12,116.65,93.79-.78-47.75-102.3Zm113.54-117.27,162.93-1.34.09,10.48-75.44.63,1.46,176.56-12.06.1-1.45-176.56-75.45.62Zm155-1.27,162.94-1.35.09,10.49-75.45.62,1.46,176.56-12.06.1-1.45-176.56-75.45.62ZM589.57,728.16h87.24v93.27H666.33V775.32h-.52c-14.14,33.53-45.85,50.3-81.73,50.3-56.85,0-99.56-35.89-99.56-97.72,0-45.32,30.91-97.72,99.56-97.72,45.84,0,79.63,22.53,88.8,62.87h-12c-7.87-34.57-39.3-52.39-76.76-52.39-53.45,0-87.5,40.08-87.5,87.24,0,46.89,30.13,87.24,87.5,87.24,47.15,0,77.8-29.08,80.69-76.5h-75.2Zm118.65-93.79h12V811H842.87v10.48H708.22Zm241.5-4.19c76,0,99.29,61,99.29,97.72s-23.31,97.72-99.29,97.72-99.29-61-99.29-97.72S873.75,630.18,949.72,630.18Zm0,185c56.33,0,87.24-42.44,87.24-87.24s-30.91-87.24-87.24-87.24-87.24,42.44-87.24,87.24S893.39,815.14,949.72,815.14Zm122.57-180.77h100.86c35.89,0,54.49,16.77,54.49,46.11,0,18.34-8.38,36.94-36.67,43V724c36.41,3.67,43,30.13,43,46.11,0,20.17-11,51.35-62.61,51.35h-99Zm12,84.88h83.31c9.69,0,47.94,0,47.94-38,0-36.42-29.86-36.42-49.77-36.42h-81.48Zm0,91.7h84.35c9.44,0,53.19,0,53.19-41.92,0-39.3-35.63-39.3-56.32-39.3h-81.22Zm244.39-176.58h13.62l85.92,187.06h-13.62l-27.51-60.26H1283.92l-27.5,60.26h-13.63Zm-40.09,116.32h93.79L1335.54,648Zm152.44-116.32h12.05V811h122.61v10.48H1441.08ZM565.6,888.76h13.63l85.92,187H651.53L624,1015.56H520.8l-27.51,60.25H479.67Zm-40.08,116.32h93.79l-46.9-102.7ZM678,888.76h87.5c44.27,0,83.83,21.22,83.83,93.52,0,54.76-27.78,93.53-85.93,93.53H678Zm12,176.57h75.72c41.39,0,71.52-25.41,71.52-83,0-59.2-30.13-83-74.4-83H690ZM858.68,888.76H872.3l76.24,171.86,76.23-171.86h13.63l-83.05,187H941.73Zm193.05,0h12v187h-12ZM1098.88,1014c.26,34.85,21.47,55.54,71.77,55.54,45.85,0,62.62-19.64,62.62-41.65,0-21-10-30.39-49.26-38.51L1149.17,982c-40.86-8.64-56.58-20.69-56.58-49,0-28,24.36-48.46,70.73-48.46,47.15,0,77,17.29,78.33,57.11H1229.6c-1.57-21.48-13.62-46.63-62.87-46.63-45.59,0-60.52,16.76-60.52,38.25,0,19.91,8.65,29.86,44.27,36.93l38.52,7.6c37.46,7.34,57.89,19.39,57.89,49.25,0,25.41-16.77,52.92-75.19,52.92-61.3,0-84.88-26.46-84.88-66Zm262.19-129.41c76,0,99.29,61,99.29,97.71s-23.31,97.72-99.29,97.72-99.29-61-99.29-97.72S1285.1,884.57,1361.07,884.57Zm0,184.95c56.33,0,87.24-42.44,87.24-87.24s-30.91-87.23-87.24-87.23-87.23,42.44-87.23,87.23S1304.75,1069.52,1361.07,1069.52Zm122.58-180.76h95.61c35.9,0,63.14,10.22,63.14,49.51,0,19.39-11.78,40.35-38.24,46.37v.53c22.78,2.88,34.84,18.6,35.1,38.77.52,34,1.57,45.06,5.24,51.87h-12c-3.41-3.14-4.45-14.93-5.25-43.49-.78-32.48-11.26-41.65-48.2-41.65h-83.31v85.14h-12Zm12,91.43h81.48c11.79,0,53.18,0,53.18-42.7,0-30.39-23.58-38.25-50-38.25h-84.63Zm176,33.79c.26,34.85,21.48,55.54,71.78,55.54,45.84,0,62.61-19.64,62.61-41.65,0-21-9.95-30.39-49.25-38.51L1722,982c-40.87-8.64-56.59-20.69-56.59-49,0-28,24.36-48.46,70.73-48.46,47.16,0,77,17.29,78.33,57.11h-12c-1.57-21.48-13.62-46.63-62.87-46.63-45.59,0-60.52,16.76-60.52,38.25,0,19.91,8.65,29.86,44.27,36.93l38.52,7.6c37.46,7.34,57.89,19.39,57.89,49.25,0,25.41-16.76,52.92-75.18,52.92-61.31,0-84.89-26.46-84.89-66Z"/><path class="cls-2" d="M189.94,58.41c-187,114.5-246,359.79-131.53,546.8,74.93,122.39,205.85,190,339.83,190,.7,0,1.4-.07,2.11-.08l7.37-11.29c-133.5,3.27-265.22-62.56-339.81-184.4C-43.37,417.62,14,179.19,195.76,67.91A384.22,384.22,0,0,1,396.94,11.13c130.21,0,257.49,65.68,330.31,184.63A384.91,384.91,0,0,1,771,297.92l8.49-11a396.67,396.67,0,0,0-42.74-97C622.26,2.94,377-56.08,189.94,58.41Z"/></svg>