<?xml version="1.0" encoding="utf-8"?>
<!-- Generator: Adobe Illustrator 23.0.6, SVG Export Plug-In . SVG Version: 6.00 Build 0)  -->
<svg version="1.1" id="Layer_1" xmlns="http://www.w3.org/2000/svg" xmlns:xlink="http://www.w3.org/1999/xlink" x="0px" y="0px"
	 viewBox="0 0 408.3 70.8" style="enable-background:new 0 0 408.3 70.8;" xml:space="preserve">
<style type="text/css">
	.st0{fill:#981B1E;}
</style>
<path class="st0" d="M62.1,64.5c0,1.8-0.7,3.7-2.9,5.2c-1.3,0.9-3.3,1.1-5,1.1c-1.5,0-3.3-0.2-4.6-0.8c-0.4-0.2-0.5-0.3-0.5-1.1
	c0-1.5,0.1-2.7,0.2-3.2c0-0.3,0.1-0.5,0.3-0.5s0.3,0.1,0.3,0.4c0,0.2,0,0.7,0.1,1.1c0.5,2.2,2.9,3,5,3c3.1,0,4.7-1.7,4.7-4
	c0-2.2-1.2-3.2-4-5.3l-1.4-1.1c-3.4-2.5-4.5-4.4-4.5-6.5c0-3.6,2.8-5.7,7-5.7c1.2,0,2.5,0.2,3.2,0.4c0.6,0.1,0.9,0.1,1.1,0.1
	c0.3,0,0.3,0,0.3,0.2c0,0.1-0.1,1.1-0.1,3.2c0,0.5,0,0.7-0.2,0.7s-0.3-0.1-0.3-0.4c0-0.4-0.3-1.2-0.5-1.5c-0.2-0.4-1.2-1.5-4.1-1.5
	c-2.3,0-4.2,1.1-4.2,3.3c0,1.9,1,3,4.1,5.1l0.9,0.6C60.8,59.8,62.1,61.9,62.1,64.5z M94.6,66.3c-0.2,0-0.3,0.1-0.3,0.5
	c-0.2,1.2-0.6,1.7-1.4,2.1c-0.8,0.3-2.3,0.3-3.1,0.3c-3.1,0-3.7-0.4-3.7-2.4c0-0.6,0-6.7,0-7.7v-2.5c0-0.1,0-0.2,0.2-0.2
	c0.5,0,3.9,0,4.7,0.1c1.2,0.1,1.5,0.5,1.6,0.9s0.1,0.7,0.1,1c0,0.2,0.1,0.3,0.2,0.3c0.2,0,0.3-0.3,0.3-0.6c0-0.2,0.1-1.4,0.1-2
	c0.1-1,0.2-1.5,0.2-1.7s-0.1-0.2-0.2-0.2s-0.2,0.2-0.5,0.4C92.5,54.9,92,55,91.3,55c-0.7,0-4.8,0-5.2,0c-0.2,0-0.2-0.1-0.2-0.3V49
	c0-0.2,0-0.3,0.2-0.3c0.4,0,4,0,4.5,0.1c1.7,0.2,2,0.4,2.2,0.9c0.1,0.4,0.2,0.9,0.2,1.1c0,0.2,0.1,0.4,0.2,0.4s0.2-0.2,0.3-0.3
	c0.1-0.4,0.1-1.7,0.2-2c0.1-0.9,0.3-1.2,0.3-1.4c0-0.1,0-0.3-0.1-0.3s-0.3,0.1-0.4,0.1c-0.2,0-0.8,0.1-1.4,0.2c-0.7,0-7.3,0-7.5,0
	s-2.2-0.1-3.6-0.1c-0.4,0-0.5,0.1-0.5,0.2c0,0.1,0.1,0.2,0.3,0.2c0.3,0,0.8,0,1.1,0.1c1,0.1,1.2,0.6,1.3,1.7c0.1,1,0.1,1.8,0.1,6.5
	v5.4c0,2.9,0,5.3-0.2,6.6c-0.1,0.9-0.2,1.5-0.8,1.6c-0.3,0-0.7,0.1-1,0.1c-0.2,0-0.2,0.1-0.2,0.2c0,0.2,0.2,0.2,0.5,0.2
	c0.5,0,1.2,0,1.8-0.1c0.7,0,1.3,0,1.4,0c0.5,0,1.3,0,2.6,0.1c1.3,0,3.1,0.1,5.5,0.1c1.2,0,1.5,0,1.7-0.8c0.2-0.6,0.4-2.7,0.4-2.9
	C94.8,66.5,94.8,66.3,94.6,66.3z M133.1,64.9c-0.2,0-0.2,0.1-0.3,0.4c-0.1,0.6-0.5,1.9-1.2,2.5c-1.2,1.2-2.8,1.4-5.2,1.4
	c-6.7,0-11.3-5.2-11.3-11c0-3.1,0.5-5.8,2.8-7.9c1.1-1,3-2.1,7.1-2.1c2.8,0,5.1,0.8,6.2,1.7c0.8,0.6,1.3,1.9,1.3,3
	c0,0.4,0,0.6,0.2,0.6s0.3-0.2,0.4-0.6c0-0.4,0-2.1,0.1-3.1c0.1-1.1,0.1-1.5,0.1-1.7s-0.1-0.3-0.4-0.3c-1,0-2-0.2-3.2-0.5
	c-1.5-0.2-3.3-0.4-4.6-0.4c-4.8,0-7.7,1.4-9.6,3.2c-2.8,2.7-3.5,6.2-3.5,8.3c0,2.9,0.7,6.3,3.8,9c2.5,2.1,5.6,3.2,10.3,3.2
	c2,0,4.4-0.2,5.7-0.7c0.5-0.2,0.6-0.3,0.8-0.9c0.3-1,0.7-3.7,0.7-3.9C133.4,65.1,133.2,64.9,133.1,64.9z M172.5,47.4
	c-0.9,0-2.4,0.1-2.6,0.1c-0.2,0-2-0.1-3.4-0.1c-0.4,0-0.5,0.1-0.5,0.2c0,0.1,0.1,0.2,0.2,0.2c0.3,0,0.8,0,1.1,0.1
	c1,0.1,1.2,0.7,1.2,1.7s0.1,1.8,0.1,6.5V60c0,3.1-0.3,5.6-1.8,7.3c-1.1,1.3-2.9,2.1-4.9,2.1c-1.8,0-3.1-0.2-4.7-1.6
	c-1.4-1.2-2.3-3-2.3-7.4v-4.2c0-4.7,0-5.6,0.1-6.5c0.1-1,0.2-1.5,1.1-1.7c0.4-0.1,0.6-0.1,0.8-0.1c0.1,0,0.3-0.1,0.3-0.2
	c0-0.2-0.2-0.2-0.5-0.2c-0.9,0-2.9,0.1-3.2,0.1s-2.2-0.1-3.6-0.1c-0.4,0-0.5,0.1-0.5,0.2c0,0.1,0.1,0.2,0.2,0.2c0.3,0,0.8,0,1.1,0.1
	c1,0.1,1.2,0.7,1.3,1.7s0.1,1.8,0.1,6.5v4.5c0,4.4,1.2,6.5,2.7,8c2.2,2.1,5.5,2.1,6.5,2.1c1.9,0,4.3-0.2,6.6-2.2
	c2.5-2.1,2.9-5.8,2.9-9.1v-3.2c0-4.7,0-5.6,0-6.5c0.1-1,0.2-1.5,1.1-1.7c0.4-0.1,0.6-0.1,0.8-0.1c0.1,0,0.3-0.1,0.3-0.2
	C173,47.5,172.9,47.4,172.5,47.4z M213.7,70.1c0,0.2-0.2,0.2-0.7,0.2h-2c-1.8,0-2.6-0.2-3.4-0.6c-1.4-0.7-2.5-2.2-4.3-4.5
	c-1.3-1.6-2.7-3.6-3.4-4.4c-0.1-0.1-0.2-0.2-0.4-0.2l-4-0.1c-0.1,0-0.2,0.1-0.2,0.2v0.7c0,2.9,0,5.3,0.1,6.5
	c0.1,0.9,0.3,1.5,1.2,1.6c0.4,0.1,1.1,0.1,1.4,0.1c0.2,0,0.3,0.1,0.3,0.2s-0.1,0.2-0.5,0.2c-1.7,0-3.7-0.1-3.9-0.1
	c0,0-2.1,0.1-3.1,0.1c-0.3,0-0.5-0.1-0.5-0.2s0.1-0.2,0.2-0.2c0.3,0,0.7-0.1,1-0.1c0.6-0.1,0.7-0.7,0.8-1.6c0.2-1.2,0.2-3.6,0.2-6.6
	v-5.4c0-4.7,0-5.6-0.1-6.5c-0.1-1-0.3-1.5-1.3-1.7c-0.2,0-0.8-0.1-1.1-0.1c-0.1,0-0.2-0.1-0.2-0.2c0-0.2,0.1-0.2,0.5-0.2
	c1.4,0,3.5,0.1,3.7,0.1c0.3,0,3-0.1,3.9-0.1c2,0,4.2,0.2,5.8,1.3c0.8,0.6,2.2,2,2.2,4.1c0,2.2-0.9,4.4-3.9,6.9
	c2.6,3.2,4.7,6,6.6,7.8c1.7,1.7,2.7,2,3.5,2.1c0.6,0.1,0.9,0.1,1.1,0.1C213.6,69.9,213.7,70,213.7,70.1z M203.3,54.5
	c0-3.8-2.1-6-5.4-6c-0.9,0-1.9,0.1-2.2,0.2c-0.1,0.1-0.3,0.2-0.3,0.4v9.7c0,0.2,0.1,0.3,0.2,0.4c0.5,0.2,2.1,0.5,3.5,0.5
	c0.7,0,1.6,0,2.4-0.5C202.4,58.4,203.3,56.8,203.3,54.5z M235,69.9c-0.3,0-1-0.1-1.4-0.1c-0.9-0.1-1-0.7-1.1-1.6
	c-0.1-1.2-0.1-3.6-0.1-6.6v-5.4c0-4.7,0-5.6,0-6.5c0.1-1.1,0.3-1.5,1.1-1.7c0.4-0.1,0.6-0.1,0.8-0.1c0.1,0,0.3-0.1,0.3-0.2
	c0-0.2-0.1-0.2-0.5-0.2c-1,0-3,0.1-3.1,0.1c-0.2,0-2.1-0.1-3.2-0.1c-0.4,0-0.5,0.1-0.5,0.2c0,0.1,0.1,0.2,0.3,0.2s0.6,0,1,0.1
	c0.7,0.1,0.9,0.6,1,1.6s0.1,1.8,0.1,6.5v5.4c0,2.9,0,5.3-0.2,6.6c-0.1,0.9-0.2,1.5-0.8,1.6c-0.3,0.1-0.7,0.1-1,0.1
	c-0.2,0-0.2,0.1-0.2,0.2c0,0.2,0.2,0.2,0.5,0.2c1,0,2.9-0.1,3.1-0.1c0.1,0,2.2,0.1,3.9,0.1c0.4,0,0.5-0.1,0.5-0.2
	C235.3,70,235.2,69.9,235,69.9z M271.2,47.2c-0.1,0-0.4,0.1-0.9,0.1c-0.5,0.1-1.2,0.1-2.2,0.1h-11.8c-0.4,0-1.6,0-2.5-0.1
	s-1.2-0.4-1.4-0.4c-0.1,0-0.2,0.4-0.3,0.6c0,0.2-0.7,3-0.7,3.3c0,0.2,0.1,0.3,0.2,0.3c0.1,0,0.2,0,0.3-0.3c0.1-0.2,0.1-0.4,0.5-1
	c0.5-0.7,1.2-0.9,3.2-1l4.5-0.1v12.7c0,2.9,0,5.3-0.1,6.6c-0.1,0.9-0.3,1.5-0.9,1.6c-0.3,0.1-0.6,0.1-0.9,0.1
	c-0.2,0-0.3,0.1-0.3,0.2c0,0.2,0.1,0.2,0.5,0.2c0.9,0,3.1-0.1,3.2-0.1c0.2,0,2.2,0.1,3.9,0.1c0.4,0,0.5-0.1,0.5-0.2s0-0.2-0.2-0.2
	c-0.3,0-1-0.1-1.4-0.1c-1-0.1-1.1-0.7-1.2-1.6c-0.1-1.2-0.1-3.6-0.1-6.6V48.8l3.9,0.1c3,0.1,3.7,0.7,3.8,1.7v0.3
	c0,0.4,0.1,0.5,0.2,0.5s0.3-0.1,0.3-0.4c0-0.4,0.1-2.5,0.1-3.5C271.4,47.4,271.4,47.2,271.2,47.2z M296.3,69.9c-0.3,0-1-0.1-1.4-0.1
	c-0.9-0.1-1-0.7-1.1-1.6c-0.1-1.2-0.1-3.6-0.1-6.6v-5.4c0-4.7,0-5.6,0-6.5c0.1-1.1,0.2-1.5,1.1-1.7c0.4-0.1,0.6-0.1,0.8-0.1
	c0.1,0,0.3-0.1,0.3-0.2c0-0.2-0.1-0.2-0.5-0.2c-1,0-3,0.1-3.1,0.1c-0.2,0-2.1-0.1-3.2-0.1c-0.4,0-0.5,0.1-0.5,0.2
	c0,0.1,0.1,0.2,0.3,0.2c0.2,0,0.6,0,1,0.1c0.7,0.1,0.9,0.6,1,1.6s0.1,1.8,0.1,6.5v5.4c0,2.9,0,5.3-0.2,6.6c-0.1,0.9-0.2,1.5-0.8,1.6
	c-0.3,0.1-0.7,0.1-1,0.1c-0.2,0-0.2,0.1-0.2,0.2c0,0.2,0.2,0.2,0.5,0.2c1,0,2.9-0.1,3.1-0.1c0.1,0,2.2,0.1,3.9,0.1
	c0.4,0,0.5-0.1,0.5-0.2C296.6,70,296.5,69.9,296.3,69.9z M328.2,66.3c-0.2,0-0.2,0.1-0.3,0.5c-0.2,1.2-0.6,1.7-1.4,2.1
	c-0.8,0.3-2.3,0.3-3.1,0.3c-3.1,0-3.7-0.4-3.7-2.4c0-0.6,0-6.7,0-7.7v-2.5c0-0.1,0-0.2,0.2-0.2c0.5,0,3.9,0,4.7,0.1
	c1.2,0.1,1.5,0.5,1.6,0.9s0.1,0.7,0.1,1c0,0.2,0.1,0.3,0.2,0.3c0.2,0,0.3-0.3,0.3-0.6c0-0.2,0.1-1.4,0.1-2c0.1-1,0.3-1.5,0.3-1.7
	s-0.1-0.2-0.2-0.2s-0.2,0.2-0.5,0.4c-0.3,0.3-0.8,0.4-1.5,0.4c-0.7,0.1-4.9,0.1-5.2,0.1c-0.2,0-0.2-0.1-0.2-0.3V49
	c0-0.2,0-0.3,0.2-0.3c0.4,0,4,0,4.5,0.1c1.7,0.2,2,0.4,2.2,0.9c0.1,0.4,0.2,0.9,0.2,1.1c0,0.2,0.1,0.4,0.3,0.4
	c0.1,0,0.3-0.2,0.3-0.3c0.1-0.4,0.1-1.7,0.2-2c0.1-0.9,0.2-1.2,0.2-1.4c0-0.1,0-0.3-0.1-0.3s-0.3,0.1-0.4,0.1
	c-0.3,0-0.8,0.1-1.4,0.2c-0.7,0-7.3,0-7.5,0s-2.2-0.1-3.6-0.1c-0.4,0-0.5,0.1-0.5,0.2c0,0.1,0.1,0.2,0.2,0.2c0.3,0,0.8,0,1.1,0.1
	c1,0.1,1.2,0.6,1.3,1.7c0.1,1,0.1,1.8,0.1,6.5v5.4c0,2.9,0,5.3-0.2,6.6c-0.1,0.9-0.2,1.5-0.8,1.6c-0.3,0-0.7,0.1-1,0.1
	c-0.2,0-0.2,0.1-0.2,0.2c0,0.2,0.2,0.2,0.5,0.2c0.5,0,1.2,0,1.8-0.1c0.7,0,1.3,0,1.4,0c0.5,0,1.3,0,2.6,0.1c1.3,0,3.1,0.1,5.5,0.1
	c1.2,0,1.5,0,1.7-0.8c0.2-0.6,0.4-2.7,0.4-2.9C328.5,66.5,328.4,66.3,328.2,66.3z M354,57.2l-0.9-0.6c-3.1-2.1-4.1-3.2-4.1-5.1
	c0-2.1,1.9-3.3,4.2-3.3c2.8,0,3.9,1.1,4.1,1.5c0.2,0.3,0.4,1.1,0.5,1.5c0,0.2,0.1,0.4,0.3,0.4c0.2,0,0.2-0.2,0.2-0.7
	c0-2.1,0.1-3.1,0.1-3.2c0-0.2-0.1-0.2-0.3-0.2c-0.3,0-0.5,0-1.1-0.1c-0.7-0.2-2-0.4-3.2-0.4c-4.1,0-7,2.1-7,5.7c0,2.1,1.1,4,4.5,6.5
	l1.4,1.1c2.8,2.1,4,3.1,4,5.3c0,2.3-1.6,4-4.7,4c-2.1,0-4.5-0.8-5-3c-0.1-0.4-0.1-0.9-0.1-1.1s-0.1-0.4-0.3-0.4
	c-0.2,0-0.3,0.2-0.3,0.5c0,0.5-0.2,1.7-0.2,3.2c0,0.8,0,0.9,0.5,1.1c1.3,0.6,3.1,0.8,4.6,0.8c1.7,0,3.7-0.2,5-1.1
	c2.2-1.5,2.9-3.4,2.9-5.2C359.1,61.9,357.8,59.8,354,57.2z M408.3,40.2v1.5H118.8c-1,0.2-2,0.3-3.1,0.3s-2.3-0.1-3.4-0.3h-31
	C80.2,41.9,79,42,77.7,42c-1.3,0-2.5-0.1-3.7-0.3H0v-1.5h20.1c1.1-0.2,1.3-1.4,1.5-2.9c0.3-2.2,0.3-6.5,0.3-11.6v-9.4
	c0-8.3,0-9.8-0.1-11.6s-0.5-2.7-2.3-3c-0.4-0.1-1.3-0.2-1.8-0.2c-0.2,0-0.4-0.1-0.4-0.3c0-0.3,0.3-0.4,0.9-0.4c2.4,0,5.8,0.2,6,0.2
	c0.6,0,4.7-0.2,6.3-0.2c3.4,0,7,0.3,9.8,2.4c1.3,1,3.7,3.6,3.7,7.3c0,4-1.7,7.9-6.5,12.4c4.4,5.6,8,10.4,11.1,13.7
	c2.7,2.8,4.8,3.5,6.2,3.8h14C60.6,36.9,57,28.5,57,21.1C56.9,12.3,63.3,0,78,0c12,0,21,7.6,21,20.1c0,9-4.8,16.8-12.6,20.2h21.7
	c-0.3-0.3-0.4-0.7-0.4-1.8c0-2.7,0.2-4.8,0.3-5.7c0.1-0.6,0.2-0.9,0.4-0.9c0.3,0,0.4,0.2,0.4,0.6c0,0.5,0,1.2,0.2,2
	c0.8,4,4.3,5.5,7.9,5.5c5.1,0,7.7-3.7,7.7-7.1c0-3.7-1.6-5.8-6.2-9.6l-2.4-2c-5.7-4.7-7-8-7-11.6c0-5.7,4.3-9.6,11.1-9.6
	c2.1,0,3.6,0.2,5,0.5c1,0.2,1.4,0.3,1.9,0.3c0.4,0,0.5,0.1,0.5,0.4s-0.2,2-0.2,5.7c0,0.9-0.1,1.2-0.4,1.2s-0.4-0.3-0.4-0.7
	c-0.1-0.6-0.4-2.1-0.7-2.7C125.5,4.2,124,2,119.1,2c-3.7,0-6.6,2.3-6.6,6.2c0,3,1.4,5,6.5,9l1.5,1.2c6.3,5,7.8,8.3,7.8,12.6
	c0,2.2-0.9,6.3-4.5,8.9c-0.3,0.2-0.6,0.4-0.8,0.5h17.7c1.1-0.2,1.3-1.4,1.5-2.9c0.3-2.2,0.3-6.5,0.3-11.6v-9.4c0-8.3,0-9.8-0.1-11.6
	s-0.5-2.7-2.3-3c-0.4-0.1-1.3-0.2-1.8-0.2c-0.2,0-0.4-0.1-0.4-0.3c0-0.3,0.3-0.4,0.9-0.4c1.2,0,2.7,0,3.9,0.1l2.2,0.1
	c0.4,0,11,0,12.3-0.1c1-0.1,1.9-0.2,2.3-0.3c0.3-0.1,0.5-0.3,0.7-0.3s0.2,0.2,0.2,0.5c0,0.4-0.3,1-0.4,2.5c-0.1,0.5-0.2,2.9-0.3,3.5
	c-0.1,0.3-0.2,0.6-0.4,0.6c-0.3,0-0.4-0.3-0.4-0.7c0-0.4-0.1-1.3-0.3-1.9c-0.4-0.9-0.9-1.5-3.8-1.8c-0.9-0.1-6.7-0.2-7.3-0.2
	c-0.2,0-0.3,0.2-0.3,0.5V13c0,0.4,0.1,0.5,0.3,0.5c0.7,0,7.3,0,8.5-0.1c1.3-0.1,2-0.2,2.5-0.7c0.4-0.4,0.6-0.7,0.8-0.7
	s0.3,0.1,0.3,0.4s-0.3,1.2-0.4,3c-0.1,1.1-0.2,3-0.2,3.4s0,1-0.4,1c-0.3,0-0.4-0.2-0.4-0.5c0-0.5,0-1.1-0.2-1.8
	c-0.2-0.7-0.7-1.7-2.8-1.9c-1.4-0.2-6.7-0.3-7.7-0.3c-0.3,0-0.4,0.2-0.4,0.4v4.7c0,1.8-0.1,13.1,0,14.2c0.2,3.7,1,4.4,6.2,4.4
	c1.4,0,3.7,0,5.1-0.6c1.4-0.6,2-1.7,2.4-3.9c0.1-0.6,0.2-0.8,0.5-0.8s0.3,0.4,0.3,0.8c0,0.4-0.4,4.1-0.7,5.2c0,0.1-0.1,0.2-0.1,0.3
	h10.6c0.1,0,0.3-0.1,0.4-0.1c1.3-0.4,1.6-1.9,1.6-6.8l0.1-30.7c0-2.1,0.2-2.7,0.6-2.7c0.4,0,1.3,1.2,1.9,1.7
	c0.8,0.9,8.8,9.5,17,18.4c5.3,5.7,11.1,12.2,12.8,14l-0.6-27.2c-0.1-3.5-0.4-4.7-2.1-5.1c-1-0.2-2.2-0.3-2.6-0.3
	c-0.4,0-0.4-0.2-0.4-0.4c0-0.3,0.4-0.4,1.1-0.4c2.4,0,5,0.2,5.6,0.2s2.4-0.2,4.5-0.2c0.6,0,1,0.1,1,0.4c0,0.2-0.2,0.4-0.6,0.4
	c-0.3,0-0.6,0-1.3,0.2c-1.8,0.4-2,1.6-2,4.8l-0.1,31.4c0,1.1,0,1.9,0,2.5H224c1.1-0.2,1.3-1.4,1.5-2.9c0.3-2.2,0.3-6.5,0.3-11.6
	v-9.4c0-8.3,0-9.8-0.1-11.6s-0.5-2.7-2.3-3c-0.4-0.1-1.3-0.2-1.8-0.2c-0.2,0-0.4-0.1-0.4-0.3c0-0.3,0.3-0.4,0.9-0.4
	c2.4,0,5.8,0.2,6,0.2c1.3,0,3.4-0.2,5.8-0.2c8.8,0,10.7,5.4,10.7,8c0,4.4-2.5,7-5,9.6c4,1.2,9.3,5,9.3,11.3c0,4.2-2.4,8.5-7.4,10.5
	H260c1.1-0.2,1.3-1.4,1.5-2.9c0.3-2.2,0.3-6.5,0.3-11.6v-9.4c0-8.3,0-9.8-0.1-11.6s-0.5-2.7-2.3-3c-0.4-0.1-1.3-0.2-1.8-0.2
	c-0.2,0-0.4-0.1-0.4-0.3c0-0.3,0.3-0.4,0.9-0.4c2.4,0,5.8,0.2,6,0.2c0.3,0,4.2-0.2,5.8-0.2c0.6,0,0.9,0.1,0.9,0.4
	c0,0.2-0.2,0.3-0.4,0.3c-0.4,0-1.1,0.1-1.8,0.2c-1.6,0.3-2,1.2-2.1,3c-0.1,1.7-0.1,3.2-0.1,11.6v9.5c0,7.9,0.2,11.3,1.2,12.3
	c0.9,0.9,2.2,1.2,6.4,1.2c2.8,0,5.2-0.1,6.5-1.6c0.7-0.9,1.2-2.2,1.4-3.2c0.1-0.4,0.2-0.7,0.5-0.7s0.3,0.2,0.3,0.8s-0.4,3.8-0.8,5.4
	c0,0.1-0.1,0.2-0.1,0.3h3.9c2.1-0.5,3.1-2.4,4-4.9l12.1-33.2c0.6-1.8,0.9-2.1,1.2-2.1c0.3,0,0.5,0.3,1.2,1.9
	c0.8,2,9.2,24.1,12.5,32.3c1.9,4.8,3.5,5.6,4.6,5.9c0.1,0,0.2,0.1,0.4,0.1H333c1.1-0.2,1.3-1.4,1.5-2.9c0.3-2.2,0.3-6.5,0.3-11.6V3
	l-7.9,0.1c-3.3,0.1-4.6,0.4-5.5,1.7c-0.6,0.9-0.7,1.3-0.9,1.7C320.3,6.9,320.2,7,320,7s-0.3-0.2-0.3-0.5c0-0.5,1.1-5.1,1.2-5.6
	c0.1-0.3,0.3-1,0.5-1c0.4,0,0.9,0.5,2.4,0.6c1.6,0.2,3.6,0.3,4.2,0.3h20.1c1.7,0,2.9-0.1,3.8-0.3c0.8-0.1,1.3-0.3,1.5-0.3
	c0.3,0,0.3,0.3,0.3,0.6c0,1.6-0.2,5.3-0.2,5.9c0,0.5-0.2,0.7-0.4,0.7c-0.3,0-0.4-0.2-0.4-0.9l-0.1-0.6c-0.2-1.6-1.4-2.8-6.6-2.9
	h-6.9v22.6c0,5.1,0,9.4,0.3,11.6c0.2,1.5,0.5,2.7,2.1,2.9h29c1.1-0.2,1.3-1.4,1.5-2.9c0.3-2.2,0.3-6.5,0.3-11.6V3l-7.9,0.1
	c-3.3,0.1-4.6,0.4-5.5,1.7c-0.6,0.9-0.7,1.3-0.9,1.7c-0.2,0.4-0.3,0.5-0.5,0.5s-0.3-0.2-0.3-0.5c0-0.5,1.1-5.1,1.2-5.6
	c0.1-0.3,0.3-1,0.5-1c0.4,0,0.9,0.5,2.4,0.6c1.6,0.2,3.6,0.3,4.2,0.3h20.1c1.7,0,2.9-0.1,3.8-0.3c0.8-0.1,1.3-0.3,1.5-0.3
	c0.3,0,0.3,0.3,0.3,0.6c0,1.6-0.2,5.3-0.2,5.9c0,0.5-0.2,0.7-0.4,0.7c-0.3,0-0.4-0.2-0.4-0.9L390,6.1c-0.2-1.6-1.4-2.8-6.6-2.9
	L376.7,3v22.6c0,5.1,0,9.4,0.3,11.6c0.2,1.5,0.5,2.7,2.1,2.9L408.3,40.2L408.3,40.2z M230.1,17.4c0,0.4,0.1,0.5,0.4,0.6
	c0.3,0.1,1.3,0.2,3.3,0.2c3,0,3.7-0.1,4.9-1.4c1.1-1.3,1.9-3.2,1.9-5.4c0-4.4-2-9.2-7.2-9.2c-0.6,0-1.7,0.1-2.6,0.3
	c-0.5,0.1-0.6,0.3-0.6,0.6L230.1,17.4L230.1,17.4z M230.1,23.1c0,4.1,0,10.8,0.1,11.6c0.2,2.6,0.2,3.4,1.8,4.2
	c1.4,0.7,3.7,0.8,4.7,0.8c2.9,0,7.5-1.6,7.5-7.6c0-3.2-1.1-7.9-5.2-10.7c-1.8-1.2-3.2-1.4-4.4-1.6c-0.7-0.1-3.4-0.1-4.2-0.1
	c-0.2,0-0.3,0.1-0.3,0.4L230.1,23.1L230.1,23.1z M79.1,39.9c4.8,0,14.8-2.8,14.8-18.4c0-12.8-7.8-19.7-16.3-19.7
	C68.7,1.8,62,7.7,62,19.4C62,31.9,69.5,39.9,79.1,39.9z M26.2,20.9c0,0.3,0.1,0.5,0.4,0.6c0.8,0.5,3.3,0.9,5.6,0.9
	c1.3,0,2.8-0.2,4-1c1.9-1.3,3.3-4.2,3.3-8.2c0-6.7-3.5-10.7-9.3-10.7c-1.6,0-3,0.2-3.6,0.3c-0.3,0.1-0.4,0.3-0.4,0.6V20.9z
	 M28.5,40.2H47h-0.1c-2.3-1.2-4.2-3.9-7.2-7.9c-2.2-2.9-4.8-6.5-5.8-7.9c-0.2-0.2-0.4-0.3-0.7-0.3L26.5,24c-0.3,0-0.4,0.2-0.4,0.4
	v1.3c0,5.1,0,9.4,0.3,11.6C26.6,38.8,26.9,40,28.5,40.2z M297,23.5h10.2c0.3,0,0.3-0.2,0.2-0.4l-5.1-14.4c-0.3-0.8-0.5-0.8-0.8,0
	l-4.7,14.4C296.7,23.4,296.9,23.5,297,23.5z M292.9,40.2h20.4c0.2-0.2,0.4-0.6,0.1-1.3l-5-13.2c-0.1-0.2-0.2-0.3-0.5-0.3h-11.5
	c-0.3,0-0.4,0.2-0.5,0.4l-3.2,9.5c-0.5,1.3-0.7,2.6-0.7,3.6C291.9,39.6,292.4,40,292.9,40.2z M179.1,40.2h26.8
	c-0.5-0.5-1.2-1.2-2.1-2.1c-0.6-0.5-8.3-8.4-14-14.5c-6.2-6.7-12.3-13.4-14-15.4l0.7,25.6c0.1,4.4,0.6,5.8,2.1,6.2
	C178.8,40.2,179,40.2,179.1,40.2z"/>
</svg>
