<?xml version="1.0" encoding="utf-8"?>
<!-- Generator: Adobe Illustrator 25.0.1, SVG Export Plug-In . SVG Version: 6.00 Build 0)  -->
<svg version="1.1" id="Layer_1" xmlns="http://www.w3.org/2000/svg" xmlns:xlink="http://www.w3.org/1999/xlink" x="0px" y="0px"
	 viewBox="0 0 443.5 356.5" style="enable-background:new 0 0 443.5 356.5;" xml:space="preserve">
<style type="text/css">
	.st0{fill:none;}
	.st1{fill:#FFFFFF;}
	.st2{fill:#23376D;}
</style>
<g>
	<path class="st0" d="M7.2,215.1v0.1c0-0.5,0-1,0-1.5C7.2,214.2,7.2,214.6,7.2,215.1z"/>
	<path class="st0" d="M7.5,220.6c0.1,0.7,0.2,1.4,0.4,2.1c-0.3-1.4-0.5-2.8-0.6-4.3C7.4,219.1,7.4,219.9,7.5,220.6z"/>
	<path class="st0" d="M435.3,224.3c0.8-2.8,1.1-5.7,1.1-8.5C436.4,218.6,436,221.5,435.3,224.3z"/>
	<path class="st1" d="M433.5,203.8c-4.6-10.3-11.9-18.5-20.8-25c-21.9-16.1-47.1-25.4-73-32.2c-15.7-4.1-31.9-6.9-48-8.7
		c-24.2-2.7-48.5-4.4-72.8-5.8c-11.4-0.7-22.9,0-34.2,1c-15.4,1.4-30.8,3-46,5.5c-26.1,4.3-51.8,10.3-76.2,20.9
		c-16.1,6.9-31.4,15-43.3,28.4c-6.6,7.5-11.5,15.7-11.9,25.8c0,0.5,0,1,0,1.5c0.1,1.1,0.1,2.1,0.1,3.2c0.1,1.4,0.3,2.9,0.6,4.3
		c0.1,0.3,0.2,0.6,0.3,0.8c4.6,12.6,12.5,22.7,23.4,30.3c14.3,10.1,30.2,17,46.7,23.1c18.8,6.9,38.1,11.8,57.8,14.9
		c37.4,6,74.9,8.5,112.8,6.1c25.3-1.6,50.4-3.5,75.4-8.8c24.8-5.3,48.9-12.4,71.4-24.1c13.9-7.2,26.9-15.8,35-30
		c2.1-3.5,3.6-7.1,4.6-10.7c0.7-2.8,1.1-5.7,1.1-8.5C436.3,211.9,435.4,207.9,433.5,203.8z"/>
	<path class="st2" d="M432.8,188.6c-15.3-18.4-35.8-29.3-57.8-37.4c-18.3-6.8-37-12.5-56.2-16.3c-1.5-0.3-3.6-2.1-3.9-3.5
		c-1.1-5.5-1.5-11.2-2.3-16.7c-1.9-13.4-3.8-26.9-8.7-39.7c-3.3-8.5-9.3-14.8-17.4-17.6C262,48.9,236.9,42.6,210.6,44
		c-20.2,1.1-39.6,6-58.8,12.1c-8.5,2.7-15.9,7.7-19.2,16.7c-6.7,18.5-9,38-10.9,57.4c-0.3,3.4-1.6,5-4.8,5.8
		c-12.3,3.2-24.7,6.4-36.9,10c-26.3,7.9-50.6,19.2-69.2,40.5c-12.3,14.2-14.7,35.5-4.3,51c8.8,13.2,20.9,23,34.8,30.6
		c5.1,2.8,10.3,5.7,15.8,8.7c-4.7,5.9-9,11.3-13.3,16.7c-5.8,7.3-10.7,15-10.3,24.9c0.2,7.3,3.2,12,10.1,14.2
		c7.4,2.4,14.8,5,22.3,6.5c21.1,4.1,42.3,8.2,63.6,11.4c14.2,2.1,28.6,2.6,42.9,3.6c13.9,1,27.7,2.3,41.6,2.4
		c13.6,0.1,27.2-0.8,40.8-1.8c7-0.5,14.1-1,21.1-1.6c0.2,0,0.4,0,0.6,0s0.3,0,0.5,0c16.4-1.3,32.9-2.7,49.2-4.5
		c22.9-2.5,45.5-6.9,67.5-13.8c6.5-2,10.6-7.8,10.9-14.4c0.4-9-3.8-16.4-8.4-23.5c-3.9-5.9-8.4-11.4-13-17.6c2.1-1.1,3.8-2,5.5-2.9
		c15.6-7.7,30.5-16.4,42.1-29.7C447.2,228.3,447.5,206.3,432.8,188.6z M435.3,224.3c-1,3.6-2.5,7.2-4.6,10.7
		c-8.1,14.2-21.1,22.8-35,30c-22.5,11.7-46.6,18.8-71.4,24.1c-25,5.3-50.1,7.2-75.4,8.8c-37.9,2.4-75.4-0.1-112.8-6.1
		c-19.7-3.1-39-8-57.8-14.9c-16.5-6.1-32.4-13-46.7-23.1c-10.9-7.6-18.8-17.7-23.4-30.3c-0.1-0.3-0.2-0.5-0.3-0.8
		c-0.2-0.7-0.4-1.4-0.4-2.1c-0.1-0.7-0.1-1.5-0.2-2.2c0-1-0.1-2.1-0.1-3.2v-0.1c0-0.5,0-0.9,0.1-1.4c0.5-10.2,5.3-18.4,11.9-25.8
		c11.9-13.4,27.2-21.5,43.3-28.4c24.4-10.6,50.1-16.6,76.2-20.9c15.2-2.5,30.6-4.1,46-5.5c11.3-1,22.8-1.7,34.2-1
		c24.3,1.4,48.6,3.1,72.8,5.8c16.1,1.8,32.3,4.6,48,8.7c25.9,6.8,51.1,16.1,73,32.2c8.9,6.5,16.2,14.7,20.8,25
		c1.9,4.1,2.8,8.1,2.9,12C436.4,218.6,436.1,221.5,435.3,224.3z"/>
	<path class="st2" d="M263.2,45.5c-0.8-2-0.8-2.6-1.1-2.8c-6.3-6-8.2-13.1-7-21.7c1.1-8.4-4.8-13.4-13.6-12.6
		c-5.9,0.6-11.2,0.2-15.6-5.3c-2.6-3.3-8.1-4.3-11.3-1.2c-5.9,5.8-12.7,6.3-20.1,6.3c-5.8,0-10,3.4-10.6,7.9c-0.4,2.9-0.7,6.1,0,8.9
		c1.6,5.9-1,10.2-4.3,14.5c-1.1,1.4-2.1,3-3.1,4.5c0.2,0.4,0.4,0.8,0.6,1.2C205.6,34.7,234,36,263.2,45.5z"/>
</g>
<g>
	<g>
		<path class="st2" d="M112.2,205.8c10.4,5.9,21.2,11.5,21.2,27.3c0,17.8-16.5,24.7-30.5,24.7c-10.3,0-16.6-2.8-20.7-5.3
			c-2.4-5.1-4.2-14.9-4.2-23.2l4.2-1.1c1.5,9.5,6.3,25.2,24.4,25.2c9.1,0,15.8-5.9,15.8-16.2c0-9.6-8-16.2-18.3-20.8l-8.4-4.6
			c-7.5-4.1-14.5-12.3-14.5-22.2c0-16.1,13.5-22.8,27.4-22.8c8.2,0,14.8,2.1,18.2,4.2c1.1,4.2,1.3,14.9,1.3,18.2h-3.3
			c-1.3-6.6-3.4-18.1-18.3-18.1c-7.6,0-14.4,5.5-14.4,14.4c0,7.8,5.7,12,12.8,16.2L112.2,205.8z"/>
	</g>
	<g>
		<path class="st2" d="M149,250.9c0-3.8,3.2-7,7-7c3.7,0,6.9,3.2,6.9,7s-3.2,6.9-6.9,6.9C152.2,257.8,149,254.8,149,250.9z"/>
	</g>
	<g>
		<path class="st2" d="M179.4,252.9l4.7-0.4c5.1-0.5,5.1-1.2,5.1-17.3v-45.9c0-16.1,0-16.7-5.1-17.3l-4.7-0.4v-2.9h34.4
			c12.5,0,30.2,1.8,30.2,21.9c0,12.3-10.9,19.5-18.2,22.9c2,3.7,6.3,12.1,9.9,18.5c5.5,9.9,11.3,17.7,14.6,19.5
			c1.3,0.8,3.7,1.3,6.6,1.3v2.9h-10.2c-8.7,0-14.8-5.9-18.7-13.2l-5.3-10.2c-3.4-6.5-6.5-11.5-8.2-12.9c-2.1-1.7-5.4-1.7-8.2-1.7
			h-4.9v17.4c0,16.1,0,16.7,5,17.3l4.7,0.4v2.9h-31.9v-2.8H179.4z M201.5,214.1h7.5c11.1,0,21.1-5.9,21.1-20.8
			c0-15.4-10.2-20.2-20.4-20.2c-2.8,0-5.5,0.5-8.2,1.1V214.1z"/>
	</g>
	<g>
		<path class="st2" d="M263.8,250.9c0-3.8,3.2-7,7-7c3.7,0,6.9,3.2,6.9,7s-3.2,6.9-6.9,6.9C266.9,257.8,263.8,254.8,263.8,250.9z"/>
	</g>
	<g>
		<path class="st2" d="M286,252.9l2.5-0.4c5-0.8,5.7-2.2,8.8-9.9l27.4-66.7c1.1-2.6,2.1-5.3,3.2-7.8l3.8-1.3l29.4,76.4
			c2,5.3,3.3,8.3,6.7,9l5.3,0.8v2.9h-32.7v-3l5.9-1.1c2.4-0.4,4.1-1.1,4.1-2.5c0-0.9-0.5-1.8-0.8-2.8l-9.2-24.9
			c-4.9-0.9-9.8-1.3-14.6-1.3c-4.6,0-9.2,0.5-13.8,1.3l-6.7,18.3c-1.6,4.2-2.6,7.8-2.6,8.8c0,2.5,1.7,2.9,3.2,3l7.9,1.1v2.9h-27.7
			L286,252.9L286,252.9z M313.7,216.6c4-0.3,8-0.7,12-0.7c4.2,0,8.4,0.1,12.7,0.7l-12.1-31.9L313.7,216.6z"/>
	</g>
	<g>
		<path class="st2" d="M381,250.9c0-3.8,3.2-7,7-7c3.7,0,6.9,3.2,6.9,7s-3.2,6.9-6.9,6.9C384.2,257.8,381,254.8,381,250.9z"/>
	</g>
</g>
<g>
	<g>
		<path class="st1" d="M57.2,312.9c-0.2,0.8-0.9,3,1.6,3.7c0.3,0.1,2.2,0.7,2.8-1.5c0.3-0.9,0.2-1.6-0.7-2.2
			c-1.3-0.9-1.9-1.4-3.2-2.3c-0.9-0.7-3.2-2.4-1.9-6.3c1-3.1,3.7-5.4,7.9-4c5.6,1.7,4.6,5.8,4,7.9c-1.6-0.5-2.4-0.7-4.1-1.2
			c0.2-0.6,0.8-2.6-1.1-3.2c-1.2-0.4-2.2,0.3-2.5,1.4c-0.4,1.4,0.3,2,0.8,2.4c1,0.7,1.5,1.1,2.4,1.8c1.7,1.2,3.8,2.7,2.6,6.8
			c-1.3,4.3-4.7,5.3-8.4,4.2c-1.5-0.5-3.9-1.6-4.6-4c-0.6-1.9,0-3.7,0.2-4.6C54.8,312.1,55.6,312.4,57.2,312.9z"/>
		<path class="st1" d="M72.1,303.2c2.2,0.6,3.3,1,5.5,1.6c0.3,6.3,0.5,9.4,1,15.7c1.5-5.7,2.3-8.6,3.8-14.3c1.4,0.4,2.1,0.6,3.5,0.9
			c-2,7.7-3,11.6-5.1,19.3c-2.2-0.6-3.4-0.9-5.6-1.5c-0.4-6.5-0.6-9.8-0.9-16.3c-1.7,6-2.5,8.9-4.2,14.9c-1.5-0.4-2.2-0.6-3.6-1
			C68.8,314.7,69.9,310.9,72.1,303.2z"/>
		<path class="st1" d="M88.7,307.9c4.3,1.1,6.5,1.6,10.8,2.7c-0.3,1.5-0.5,2.2-0.9,3.7c-2.8-0.7-4.2-1-6.9-1.7c-0.4,1.6-0.6,2.4-1,4
			c2.6,0.7,3.9,1,6.6,1.6c-0.3,1.5-0.5,2.2-0.9,3.7c-2.7-0.6-4-0.9-6.6-1.6c-0.4,1.6-0.6,2.5-1,4.1c2.9,0.7,4.4,1.1,7.3,1.8
			c-0.4,1.5-0.5,2.3-0.9,3.8c-4.6-1.1-6.9-1.6-11.4-2.8C85.8,319.4,86.8,315.5,88.7,307.9z"/>
		<path class="st1" d="M104.5,315.6c-1.8-0.4-2.7-0.6-4.4-1c0.4-1.5,0.5-2.3,0.9-3.8c5.2,1.2,7.8,1.8,13,2.8
			c-0.3,1.5-0.5,2.3-0.8,3.9c-1.8-0.4-2.7-0.6-4.6-1c-1.3,6.2-2,9.4-3.4,15.6c-1.7-0.4-2.5-0.5-4.2-0.9
			C102.4,325,103.1,321.9,104.5,315.6z"/>
		<path class="st1" d="M122.1,315.3c2.7,0.5,4,0.8,6.7,1.2c2.6,0.5,3.6,0.9,4.3,2.2c0.3,0.7,0.7,1.9,0.4,4c-0.4,2.1-1.2,3-2,3.4
			c-1.1,0.6-2,0.6-2.4,0.6v0.1c2.9,0.6,2.8,2.3,2.6,5.4c-0.1,1.4-0.2,3.5-0.1,5c-1.8-0.3-2.7-0.5-4.6-0.8c0-1.2,0.1-2.8,0.3-4.5
			c0.2-2.4,0.3-3.3-1.5-3.6c-0.7-0.1-1-0.2-1.7-0.3c-0.6,3.1-0.8,4.6-1.4,7.7c-1.7-0.3-2.5-0.5-4.2-0.8
			C119.9,327,120.7,323.1,122.1,315.3z M124.7,324.4c0.6,0.1,0.9,0.2,1.5,0.3c0.9,0.2,1.4,0.2,1.7,0.1c0.9-0.2,1.4-1.4,1.5-2
			c0.4-2.4-1.2-2.7-2.3-2.9c-0.6-0.1-0.9-0.2-1.5-0.3C125.2,321.5,125,322.5,124.7,324.4z"/>
		<path class="st1" d="M136.8,317.9c4.4,0.7,6.6,1,11,1.6c-0.2,1.5-0.3,2.3-0.5,3.8c-2.8-0.4-4.2-0.6-7-1c-0.2,1.6-0.4,2.5-0.6,4.1
			c2.7,0.4,4,0.6,6.7,1c-0.2,1.5-0.3,2.3-0.5,3.8c-2.7-0.4-4-0.6-6.7-1c-0.3,1.7-0.4,2.5-0.6,4.2c2.9,0.4,4.4,0.7,7.4,1.1
			c-0.2,1.5-0.3,2.3-0.5,3.8c-4.6-0.6-7-1-11.6-1.7C134.9,329.6,135.6,325.7,136.8,317.9z"/>
		<path class="st1" d="M153.1,324.1c-1.8-0.2-2.7-0.3-4.5-0.6c0.2-1.6,0.3-2.3,0.5-3.9c5.3,0.7,7.9,1,13.2,1.6
			c-0.2,1.6-0.3,2.4-0.4,3.9c-1.8-0.2-2.8-0.3-4.6-0.5c-0.8,6.3-1.1,9.5-1.9,15.9c-1.7-0.2-2.6-0.3-4.3-0.5
			C151.9,333.6,152.3,330.5,153.1,324.1z"/>
		<path class="st1" d="M163.7,321.4c1.7,0.2,2.5,0.3,4.2,0.4c-0.8,7.9-1.2,11.9-2,19.8c-1.7-0.2-2.6-0.3-4.4-0.5
			C162.5,333.3,162.9,329.3,163.7,321.4z"/>
		<path class="st1" d="M170.6,322.1c2.7,0.3,4.1,0.4,6.8,0.6c2.7,0.2,3.6,0.5,4.4,1.8c0.4,0.6,0.9,1.8,0.8,3.9
			c-0.2,2.2-0.9,3.1-1.6,3.6c-1,0.7-1.9,0.8-2.4,0.8v0.1c2.9,0.3,2.9,2,3.1,5.1c0.1,1.4,0.1,3.5,0.4,4.9c-1.8-0.1-2.8-0.2-4.6-0.3
			c-0.2-1.2-0.1-2.8-0.2-4.5c0-2.4,0-3.3-1.9-3.4c-0.7-0.1-1.1-0.1-1.8-0.2c-0.3,3.1-0.4,4.6-0.7,7.7c-1.7-0.1-2.6-0.2-4.3-0.4
			C169.5,334,169.9,330,170.6,322.1z M174,331c0.6,0.1,0.9,0.1,1.6,0.1c0.9,0.1,1.4,0.1,1.7,0c0.9-0.3,1.2-1.5,1.3-2.2
			c0.2-2.4-1.4-2.6-2.6-2.7c-0.6-0.1-0.9-0.1-1.5-0.1C174.3,328.1,174.2,329.1,174,331z"/>
		<path class="st1" d="M185.4,323.4c4.4,0.3,6.6,0.4,11.1,0.6c-0.1,1.5-0.1,2.3-0.2,3.8c-2.8-0.1-4.2-0.2-7.1-0.4
			c-0.1,1.7-0.1,2.5-0.2,4.1c2.7,0.2,4,0.2,6.7,0.4c-0.1,1.5-0.1,2.3-0.2,3.8c-2.7-0.1-4.1-0.2-6.8-0.3c-0.1,1.7-0.1,2.5-0.2,4.2
			c3,0.2,4.4,0.2,7.4,0.4c-0.1,1.5-0.1,2.3-0.2,3.9c-4.7-0.2-7-0.3-11.7-0.6C184.7,335.2,184.9,331.3,185.4,323.4z"/>
		<path class="st1" d="M199.1,324.1c4.4,0.2,6.7,0.2,11.1,0.3c0,1.5,0,2.3-0.1,3.8c-2.8-0.1-4.3-0.1-7.1-0.2
			c-0.1,1.7-0.1,2.5-0.1,4.1c2.7,0.1,4,0.1,6.7,0.2c0,1.5,0,2.3-0.1,3.8c-2.7-0.1-4.1-0.1-6.8-0.2c-0.1,1.7-0.1,2.5-0.1,4.2
			c3,0.1,4.5,0.1,7.4,0.2c0,1.5,0,2.3-0.1,3.9c-4.7-0.1-7-0.2-11.7-0.3C198.6,336,198.8,332,199.1,324.1z"/>
		<path class="st1" d="M216.2,338c0,0.8,0,3.1,2.6,3.1c0.4,0,2.3,0,2.3-2.3c0-0.9-0.3-1.6-1.3-1.9c-1.5-0.5-2.2-0.8-3.7-1.3
			c-1-0.4-3.7-1.3-3.7-5.5c0-3.2,1.9-6.2,6.3-6.2c5.8,0,6,4.2,6.1,6.3c-1.7,0-2.5,0-4.2,0c0-0.6,0-2.8-2-2.8c-1.2,0-2,0.9-2,2.1
			c0,1.5,0.9,1.8,1.5,2c1.1,0.4,1.7,0.6,2.8,1c2,0.7,4.4,1.5,4.4,5.7c0,4.4-2.9,6.5-6.7,6.5c-1.6,0-4.2-0.4-5.5-2.4
			c-1.1-1.6-1.1-3.6-1.1-4.4C213.7,338,214.5,338,216.2,338z"/>
		<path class="st1" d="M237.4,324.2c2-0.1,3-0.1,5-0.2c2.7,7.9,4,11.8,6.9,19.6c-1.9,0.1-2.9,0.1-4.8,0.2c-0.5-1.6-0.7-2.4-1.2-3.9
			c-2.4,0.1-3.6,0.1-6.1,0.2c-0.4,1.6-0.5,2.4-0.9,4c-1.7,0-2.5,0.1-4.2,0.1C234.2,336.2,235.3,332.2,237.4,324.2z M242.1,336.2
			c-0.9-3.3-1.4-5-2.3-8.3c0,0,0,0-0.1,0c-0.7,3.4-1.1,5.1-1.8,8.4C239.6,336.3,240.4,336.3,242.1,336.2z"/>
		<path class="st1" d="M253.7,337c0.1,0.8,0.3,3.1,2.8,2.9c0.4,0,2.3-0.2,2.1-2.4c-0.1-0.9-0.4-1.5-1.4-1.8c-1.5-0.4-2.3-0.6-3.8-1
			c-1.1-0.3-3.8-1.1-4-5.2c-0.2-3.2,1.5-6.3,5.9-6.6c5.8-0.4,6.3,3.8,6.5,5.9c-1.7,0.1-2.5,0.2-4.2,0.3c0-0.6-0.2-2.7-2.1-2.6
			c-1.2,0.1-1.9,1-1.8,2.2c0.1,1.5,1,1.8,1.6,1.9c1.1,0.3,1.7,0.5,2.9,0.8c2,0.5,4.5,1.2,4.8,5.4c0.4,4.4-2.4,6.6-6.3,6.9
			c-1.6,0.1-4.2-0.1-5.7-2c-1.2-1.5-1.3-3.5-1.4-4.3C251.2,337.1,252,337.1,253.7,337z"/>
		<path class="st1" d="M268.8,335.8c0.1,0.8,0.3,3.1,2.8,2.8c0.4,0,2.2-0.2,2-2.5c-0.1-0.9-0.4-1.5-1.5-1.8
			c-1.5-0.4-2.3-0.5-3.8-0.9c-1.1-0.3-3.8-1-4.2-5.1c-0.3-3.2,1.3-6.3,5.7-6.8c5.7-0.5,6.4,3.6,6.7,5.7c-1.7,0.2-2.5,0.3-4.2,0.4
			c-0.1-0.6-0.2-2.7-2.2-2.6c-1.2,0.1-1.9,1.1-1.8,2.3c0.1,1.5,1.1,1.7,1.7,1.9c1.2,0.3,1.7,0.4,2.9,0.7c2.1,0.5,4.5,1.1,5,5.3
			c0.5,4.4-2.2,6.7-6.1,7.1c-1.6,0.2-4.2,0-5.7-1.9c-1.2-1.5-1.4-3.4-1.5-4.3C266.3,336,267.1,336,268.8,335.8z"/>
		<path class="st1" d="M280.4,323.2c1.6-2.7,4.3-3.3,5.4-3.4c5.8-0.7,8.2,4.7,8.9,9.5c1.1,7.9-2.9,10.9-6.5,11.3
			c-4.1,0.5-8.2-2-9-9.4C279.1,329.9,278.9,325.9,280.4,323.2z M287.8,336.5c3-0.4,3-4.1,2.7-6.8c-0.4-2.8-1-4.1-1.6-4.9
			c-0.7-1-1.7-1.2-2.6-1.1c-2.7,0.3-3.1,3.5-2.7,6.9C283.9,333.8,285,336.9,287.8,336.5z"/>
		<path class="st1" d="M306,323.7c-0.5-2-1.7-2.5-2.8-2.3c-2.5,0.4-2.8,3.5-2.2,7.1c0.2,1.2,1,6.2,4.2,5.7c2.2-0.4,2.1-2.5,2.1-3.3
			c1.7-0.3,2.6-0.4,4.3-0.7c1,6.1-3.7,7.5-5.7,7.8c-1.5,0.2-4.2,0.3-6.2-1.7s-2.7-5.1-3-7.2c-0.4-2.7-0.3-5.5,0.8-7.8
			c1.2-2.5,3-3.4,5.1-3.7c2.4-0.4,4.3,0.1,5.7,1.5c1.5,1.5,1.8,3.2,1.9,4C308.5,323.3,307.6,323.5,306,323.7z"/>
		<path class="st1" d="M311.3,316.5c1.7-0.3,2.5-0.4,4.2-0.7c1.4,7.8,2.2,11.7,3.6,19.6c-1.7,0.3-2.6,0.5-4.3,0.8
			C313.3,328.3,312.6,324.3,311.3,316.5z"/>
		<path class="st1" d="M322.7,314.4c2-0.4,2.9-0.6,4.9-1c3.9,7.3,5.9,11,10,18.2c-1.9,0.4-2.8,0.6-4.7,1c-0.7-1.5-1.1-2.2-1.9-3.7
			c-2.4,0.5-3.6,0.7-6,1.2c-0.1,1.6-0.1,2.5-0.3,4.1c-1.7,0.3-2.5,0.5-4.2,0.8C321.5,326.8,321.9,322.6,322.7,314.4z M329.3,325.5
			c-1.4-3.1-2.2-4.7-3.6-7.8c0,0,0,0-0.1,0c-0.1,3.4-0.2,5.2-0.4,8.6C326.9,326,327.7,325.8,329.3,325.5z"/>
		<path class="st1" d="M336.7,315.4c-1.8,0.4-2.7,0.6-4.5,1c-0.3-1.5-0.5-2.3-0.8-3.9c5.2-1.1,7.8-1.7,13-3c0.4,1.5,0.6,2.3,0.9,3.8
			c-1.8,0.4-2.7,0.7-4.5,1.1c1.5,6.2,2.2,9.3,3.6,15.5c-1.7,0.4-2.5,0.6-4.2,1C338.8,324.8,338.1,321.7,336.7,315.4z"/>
		<path class="st1" d="M345.8,309.2c1.6-0.4,2.5-0.6,4.1-1c2,7.7,2.9,11.6,4.9,19.3c-1.7,0.4-2.6,0.7-4.3,1.1
			C348.7,320.8,347.7,317,345.8,309.2z"/>
		<path class="st1" d="M354.6,309.3c1.2-2.9,3.9-3.9,4.9-4.2c5.7-1.6,8.9,3.4,10.2,8.1c2.2,7.6-1.3,11.2-4.9,12.1
			c-4,1.1-8.4-0.8-10.3-8C354.3,316.1,353.4,312.2,354.6,309.3z M363.8,321.4c2.9-0.8,2.4-4.5,1.7-7.1c-0.8-2.7-1.6-3.9-2.3-4.6
			c-0.9-0.9-1.9-1-2.8-0.7c-2.6,0.7-2.6,3.9-1.7,7.2C359.6,319.3,361.1,322.2,363.8,321.4z"/>
		<path class="st1" d="M369.2,302.9c2.2-0.6,3.3-1,5.5-1.6c3.7,5.1,5.5,7.6,9.3,12.6c-1.8-5.7-2.7-8.5-4.5-14.1
			c1.4-0.4,2.1-0.7,3.4-1.1c2.5,7.6,3.7,11.4,6.2,18.9c-2.2,0.7-3.3,1.1-5.5,1.8c-3.9-5.3-5.8-7.9-9.6-13.2
			c1.8,5.9,2.7,8.9,4.5,14.8c-1.4,0.4-2.2,0.7-3.6,1.1C372.6,314.4,371.4,310.6,369.2,302.9z"/>
	</g>
</g>
</svg>
