<?xml version="1.0" encoding="UTF-8"?>
<svg width="1200pt" height="1200pt" version="1.1" viewBox="0 0 1200 1200" xmlns="http://www.w3.org/2000/svg">
 <g fill="#fff">
  <path d="m334.8 202.8c11.266-11.359 26.602-17.75 42.598-17.75 16 0 31.336 6.3906 42.602 17.75l181.2 182.4c11.359 11.266 17.75 26.602 17.75 42.602 0 15.996-6.3906 31.332-17.75 42.598l-14.398 14.398 16.801 16.801 14.398-14.398c15.754-15.754 24.605-37.121 24.605-59.398 0-22.281-8.8516-43.648-24.605-59.402l-181.2-182.4c-15.754-15.754-37.121-24.605-59.402-24.605-22.277 0-43.645 8.8516-59.398 24.605l-132 132c-15.754 15.754-24.605 37.121-24.605 59.398 0 22.281 8.8516 43.648 24.605 59.402l182.4 181.2c15.754 15.754 37.121 24.605 59.402 24.605 22.277 0 43.645-8.8516 59.398-24.605l14.398-14.398-16.801-16.801-14.398 14.398c-11.266 11.359-26.602 17.75-42.598 17.75-16 0-31.336-6.3906-42.602-17.75l-182.4-181.2c-11.359-11.266-17.75-26.602-17.75-42.602 0-15.996 6.3906-31.332 17.75-42.598z"/>
  <path d="m763.2 1014c15.754 15.754 37.121 24.605 59.402 24.605 22.277 0 43.645-8.8516 59.398-24.605l132-132c15.754-15.754 24.605-37.121 24.605-59.398 0-22.281-8.8516-43.648-24.605-59.402l-182.4-181.2c-15.754-15.754-37.121-24.605-59.402-24.605-22.277 0-43.645 8.8516-59.398 24.605l-14.398 14.398 16.801 16.801 14.398-14.398c11.266-11.359 26.602-17.75 42.598-17.75 16 0 31.336 6.3906 42.602 17.75l182.4 181.2c11.359 11.266 17.75 26.602 17.75 42.602 0 15.996-6.3906 31.332-17.75 42.598l-132 132c-11.266 11.359-26.602 17.75-42.598 17.75-16 0-31.336-6.3906-42.602-17.75l-181.2-182.4c-11.359-11.266-17.75-26.602-17.75-42.602 0-15.996 6.3906-31.332 17.75-42.598l14.398-14.398-16.801-16.801-14.398 14.398c-15.754 15.754-24.605 37.121-24.605 59.398 0 22.281 8.8516 43.648 24.605 59.402z"/>
  <path d="m771 412.92 176.49-176.49 16.969 16.969-176.49 176.49z"/>
  <path d="m234.6 946.61 176.49-176.49 16.969 16.969-176.49 176.49z"/>
 </g>
</svg>
