<?xml version="1.0" encoding="utf-8"?>
<!-- Generator: Adobe Illustrator 24.1.2, SVG Export Plug-In . SVG Version: 6.00 Build 0)  -->
<svg version="1.1" id="Layer_1" xmlns="http://www.w3.org/2000/svg" xmlns:xlink="http://www.w3.org/1999/xlink" x="0px" y="0px"
	 viewBox="0 0 358.1 61.9" style="enable-background:new 0 0 358.1 61.9;" xml:space="preserve">
<path d="M246.3,44.3V29l-0.2-1.9l-0.4-1l-0.7-0.5l-0.5-0.2l-0.5-0.1l-0.5-0.1l-0.2-0.2l-0.1-0.2l0-0.2l0-0.3l0.2-0.2l0.4-0.1l0.7,0
	l0.7,0.1l0.7,0h6.9l1,0l1.3,0l1.5-0.1l0.9-0.1l0.4,0h0.3l0.3,0.1l0.2,0.3l0.1,0.5l0,0.4l0,0.3l0,0.3l-0.1,0.8l-0.1,0.8l0,0.8l0,0.4
	V29l-0.1,0.4l-0.1,0.2l-0.1,0.1l-0.2,0l-0.3,0l-0.2-0.2l-0.1-0.4l-0.1-0.9l-0.2-0.9l-0.5-0.8l-0.4-0.3l-0.9-0.3l-2-0.1h-3l-0.9,0.1
	l-0.4,0.4l-0.1,0.8v7.1l0.1,0.6l0.3,0.3l0.6,0.1h3.1l1.4-0.1l0.7-0.2l0.3-0.2l0.4-0.5l0.2-0.6l0.2-0.6l0.1-0.2l0.2-0.1l0.2,0l0.2,0
	l0.2,0.3l0.1,0.5v0.8l0,0.9V36v0.9l0,0.7l0,1l0,0.4l0,0.4v0.4l-0.1,0.4l-0.2,0.2l-0.3,0.1h-0.1l-0.1-0.1l-0.1-0.1l-0.1-0.4l0-0.5
	l-0.1-0.5l-0.4-1.1l-1-0.6l-2.1-0.2h-2.7l-0.5,0l-0.3,0.3l0,0.6v7.5l0.1,0.9l0.7,0.6l1.8,0.2h1.8l1.4,0l0.8-0.1l0.4-0.1l1.2-0.5
	l1.1-0.8l0.9-1.1l0.1-0.2l0.1-0.2l0.2-0.2l0.1-0.1l0.1,0h0.1l0.2,0.1l0.2,0.2l0.1,0.3l0,0.4l-0.3,0.8l-0.6,1.3l-1.1,1.4l-1.2,0.8
	l-1.5,0.2l-0.9,0l-0.9-0.1l-0.8-0.1l-1.3-0.1h-0.9l-0.8,0l-0.8,0h-0.8h-0.8l-0.9,0.1l-1,0l-0.9,0h-0.1h-0.1h-0.1l-0.3-0.1l-0.2-0.2
	l-0.1-0.3l0-0.2l0.1-0.2l0.2-0.1l0.3-0.1l0.3-0.1l0.3-0.1l0.6-0.4l0.4-0.9L246.3,44.3z M220.1,24.2l0.9,0l0.9,0.1h0.9l1.6,0l1.6-0.1
	l1.6-0.1l1.6,0l1.4,0l1.3,0.2l1.2,0.3l1.1,0.4l1,0.4l1,0.5l0.9,0.6l0.8,0.7l0.7,0.8l0.6,0.9l0.6,0.9l0.5,1l0.4,1l0.3,1.1l0.3,1.1
	l0.1,1.2l0,1.3l0,1.4l-0.2,1.3l-0.3,1.3l-0.4,1.2l-0.5,1.1l-0.5,1l-0.6,1l-0.7,0.9l-0.8,0.8l-0.9,0.7l-1,0.6l-1,0.5l-1.1,0.4
	l-1.1,0.3l-1.3,0.2l-1.3,0l-1,0l-1.1-0.1l-1.5-0.1l-1-0.1l-1,0l-1,0l-0.8,0l-0.8,0.1h-0.8l-0.4,0l-0.2-0.2l0-0.3V48l0.1-0.1l0.1-0.1
	l0.3-0.2l0.4-0.1l0.4-0.1l0.4-0.3l0.4-0.4l0.2-0.6l0.1-0.3l0-0.8l0-1.4V28.9v-0.4v-0.4v-0.4l0-0.8l-0.1-0.5l-0.3-0.4l-0.3-0.3
	l-0.4-0.3l-0.6-0.2l-0.3,0l-0.3-0.1l-0.2-0.2l-0.1-0.1l-0.1-0.1v-0.1l0-0.3l0.2-0.2L220.1,24.2z M224.8,44.6l0.1,1.1l0.2,0.6
	l0.3,0.3l0.6,0.3l1.5,0.4l2.4,0.2l1.6-0.2l1.6-0.5l1.4-0.7l1.2-0.9l0.9-1l0.7-1.1l0.6-1.3l0.4-1.4l0.2-1.6l0.1-1.7l-0.1-1.5
	l-0.2-1.4l-0.3-1.3l-0.4-1.2l-0.5-1.1l-0.6-1l-0.7-0.9l-0.8-0.8l-0.9-0.7l-0.9-0.6l-0.9-0.5l-1-0.4l-1-0.3l-1.1-0.1l-1.1-0.1
	l-2.2,0.3l-0.8,0.9l-0.1,1.7L224.8,44.6z M357.9,39.7l-0.6-1.5l-1-1.3l-0.6-0.6l-1.3-0.9l-2.5-1.2l-2.6-1.2l-1-0.6l-0.3-0.3
	l-0.8-0.9l-0.4-1l-0.1-1l0.2-1.2l0.5-1.1l0.9-0.9l1.2-0.6l1.6-0.2l1.4,0.2l1.3,0.5l1,0.8l0.8,1l0.6,1.2l0.1,0.5l0.2,0.6l0.5,0.3
	l0.3-0.1l0.2-0.2l0.1-0.3l0-0.5l-0.1-0.5l-0.1-0.5l-0.1-1l-0.1-0.8l0-0.6v-0.4v-0.4l-0.1-0.4l-0.1-0.2l-0.1-0.1l-0.1,0l-0.2,0.1
	l-0.2,0.2l-0.2,0.2l-0.1,0.1l-0.1,0l-0.2,0l-0.2,0l-0.3-0.1l-0.4-0.2l-1.3-0.5l-1.1-0.3l-1.1-0.1l-1.6,0.2l-1.4,0.5l-1.1,0.7
	l-0.9,0.9l-0.7,1l-0.5,1.1l-0.3,1.1l-0.1,1.1l0.1,1.4l0.5,1.3l0.8,1.2l0.5,0.5l1,0.8l1.7,0.9l1.1,0.5l1.1,0.5l1.1,0.5l0.7,0.4
	l1.2,0.8l1.1,1.4l0.5,2l-0.1,1.2l-0.4,1.1l-0.8,1l-1,0.8l-1.2,0.5l-1.5,0.2l-1.5-0.2l-1.4-0.6l-1.2-0.9l-0.9-1.3l-0.7-1.5l-0.1-0.4
	l-0.1-0.4l-0.1-0.4l-0.1-0.3l-0.2-0.1l-0.2,0l-0.3,0.1l-0.1,0.2L344,42l0,0.3l0.1,0.3l0.1,0.4l0.2,1.1l0.2,1l0.2,1.1l0.2,0.9
	l0.3,0.5l0.5,0.3l1.5,0.6l1.6,0.4l1.5,0.1l1.3-0.1l1.3-0.3l1.1-0.5l1-0.6l0.9-0.8l0.8-0.9l0.6-1l0.4-1.1l0.2-1.1l0.1-1.2L357.9,39.7
	z M150.1,24l1.3,0l1.3,0.2l1.2,0.3l1.1,0.4l1,0.4l0.9,0.5l0.9,0.6l0.8,0.7l0.8,0.8l0.6,0.9l0.6,0.9l0.5,1l0.4,1l0.3,1.1l0.2,1.1
	l0.1,1.2l0,1.3l-0.1,1.4L162,39l-0.3,1.3l-0.4,1.2l-0.5,1.1l-0.6,1l-0.6,1l-0.7,0.9l-0.8,0.8l-0.9,0.7l-1,0.6l-1,0.5l-1.1,0.4
	l-1.2,0.3l-1.2,0.2l-1.3,0l-1,0l-1.1-0.1l-1.4-0.1l-1-0.1l-1,0l-1,0l-0.8,0l-0.7,0.1h-0.8l-0.4,0l-0.2-0.2l-0.1-0.3l0-0.2l0-0.1
	l0.1-0.1l0.3-0.2l0.4-0.1l0.3-0.1l0.5-0.3l0.3-0.4l0.3-0.6l0-0.3l0.1-0.8v-1.4V28.9v-0.4v-0.4v-0.4l0-0.8l-0.1-0.5l-0.3-0.4
	l-0.3-0.3l-0.4-0.3l-0.6-0.2l-0.3,0l-0.3-0.1l-0.3-0.2l-0.1-0.1l0-0.1l0-0.1l0.1-0.3l0.2-0.2l0.4-0.1l0.9,0l0.8,0.1h0.9l1.6,0
	l1.6-0.1l1.6-0.1L150.1,24z M150.2,25.3l-1.1-0.1l-2.2,0.3l-0.8,0.9l-0.1,1.7v16.5l0,1.1l0.2,0.6l0.3,0.3l0.6,0.3l1.5,0.4l2.4,0.2
	l1.6-0.2l1.6-0.5l1.4-0.7l1.2-0.9l0.9-1l0.7-1.1l0.5-1.3l0.4-1.4l0.3-1.6l0.1-1.7l-0.1-1.5l-0.2-1.4l-0.3-1.3l-0.4-1.2l-0.5-1.1
	l-0.6-1l-0.7-0.9l-0.8-0.8l-0.9-0.7l-0.9-0.6l-1-0.5l-1-0.4l-1-0.3L150.2,25.3z M357.9,15.7v-3.1H228.9l2.7,3.1H357.9z M296,32.4
	l0.4-1.4l0.5-1.2l0.6-1.1l0.7-1l0.8-0.8l0.9-0.7l1-0.5l1-0.4l1-0.3l1.1-0.1l1.5,0.1l1.4,0.4l1.3,0.5l1.2,0.8l1,0.9l0.9,1.1l0.8,1.3
	l0.2,0.3l0.1,0.3l0.2,0.4l0.2,0.5l0.1,0.2l0.3,0l0.3,0l0.2-0.2l0.1-0.3l0-0.5l-0.1-0.6l-0.1-0.6l-0.1-0.9l0-0.8l-0.1-1.4l-0.1-0.4
	l-0.1-0.2l-0.2,0l-0.3,0.1l-0.3,0.2l-0.3,0.1l-0.2,0l-0.2-0.1l-0.3-0.1l-1.4-0.8l-1.4-0.6l-1.4-0.4l-1.4-0.3l-1.4-0.1l-1.3,0.1
	l-1.2,0.2l-1.1,0.3l-1.1,0.4l-1,0.6l-0.9,0.6l-0.9,0.7l-0.8,0.8l-0.7,0.9l-0.6,1l-0.5,1.1l-0.4,1.1l-0.3,1.2l-0.3,1.2l-0.1,1.3
	l-0.1,1.3l0.1,1.4l0.1,1.3l0.3,1.3l0.4,1.1l0.4,1.1l0.5,1l0.6,0.9l0.7,0.8l0.8,0.8l0.8,0.7l0.9,0.6l1,0.5l1,0.4l1.1,0.3l1.2,0.2
	l1.2,0l1.7,0l1.6-0.3l1.6-0.5l0.4-0.2l0.8-0.4l1.3-0.9l0.5-0.3l0.5-0.3l0.8-0.4v-5.8l0.2-1.9l0.5-0.9l0.8-0.4l0.4-0.1l0.3-0.1
	l0.1-0.4l0-0.3l-0.2-0.2l-0.3,0l-1.3,0l-1.3,0.1l-1.3,0h-0.8l-0.8,0l-0.8,0l-0.3,0.1l-0.2,0.2l-0.1,0.3l0,0.2l0.1,0.1l0.1,0.1
	l0.1,0.1l0.2,0l0.3,0.1l0.9,0.4l0.5,0.8l0.2,1.7V43l-0.1,1.1l-0.3,0.8l-0.8,0.8l-1.5,1.1l-1.6,0.6l-1.6,0.2l-1.4-0.1l-1.3-0.4
	l-1.2-0.6l-1.1-0.8l-1-1.1l-1-1.4l-0.6-1.2l-0.5-1.4l-0.4-1.5l-0.3-1.7l-0.1-1.9l0.1-1.7L296,32.4z M275.7,45l-0.7,1l-1,0.8
	l-1.2,0.5l-1.5,0.2l-1.5-0.2l-1.4-0.6l-1.2-0.9l-1-1.3l-0.7-1.5l-0.1-0.4l-0.1-0.4l-0.1-0.4l-0.1-0.3l-0.2-0.1l-0.2,0l-0.3,0.1
	l-0.1,0.2l-0.1,0.3l0,0.3l0,0.3l0.1,0.4l0.2,1.1l0.2,1l0.2,1.1l0.1,0.9l0.3,0.5l0.5,0.3l1.5,0.6l1.7,0.4l1.5,0.1l1.4-0.1l1.3-0.3
	l1.1-0.5l1-0.6l0.9-0.8l0.7-0.9l0.6-1l0.4-1.1l0.3-1.1l0.1-1.2l-0.2-1.7l-0.6-1.5l-0.9-1.3l-0.6-0.6l-1.3-0.9l-2.5-1.2l-2.6-1.2
	l-1-0.6l-0.3-0.3l-0.8-0.9l-0.5-1l-0.1-1l0.2-1.2l0.5-1.1l0.9-0.9l1.3-0.6l1.6-0.2l1.4,0.2l1.3,0.5l1,0.8l0.8,1l0.5,1.2l0.1,0.5
	l0.2,0.6l0.5,0.3l0.3-0.1l0.2-0.2l0-0.3l0-0.5l-0.1-0.5l-0.1-0.5l-0.1-1l0-0.8l0-0.6v-0.4v-0.4l-0.1-0.4l-0.1-0.2l-0.1-0.1l-0.1,0
	l-0.2,0.1l-0.2,0.2l-0.1,0.2l-0.1,0.1l-0.1,0l-0.1,0l-0.2,0l-0.2-0.1l-0.4-0.2l-1.3-0.5l-1.1-0.3l-1.2-0.1l-1.6,0.2l-1.4,0.5
	l-1.1,0.7l-0.9,0.9l-0.7,1l-0.5,1.1l-0.3,1.1l-0.1,1.1l0.1,1.4l0.5,1.3l0.8,1.2l0.5,0.5l1,0.8l1.7,0.9l1.1,0.5l1.2,0.5l1.1,0.5
	l0.7,0.4l1.2,0.8l1.1,1.4l0.5,2l-0.1,1.2L275.7,45z M284.5,46l-0.4,0.9l-0.6,0.4l-0.3,0.1l-0.3,0.1l-0.3,0.1l-0.2,0.1l-0.1,0.1
	l0,0.2l0.1,0.3l0.3,0.2l0.4,0h1.1l1.1-0.1l1.1,0l0.7,0l0.8,0l0.9,0l0.4,0l0.4,0l0.4,0l0.4-0.1l0.3-0.2l0.1-0.3l0-0.2l-0.1-0.1
	l-0.3-0.1l-0.5-0.1l-0.5-0.1l-0.5-0.2l-0.6-0.5l-0.4-1.1l-0.2-2V28.5l0.1-1.7l0.5-0.9l0.7-0.4l0.3-0.1l0.3,0l0.2-0.1l0.2-0.1
	l0.1-0.2l0-0.2l0-0.3l-0.2-0.2l-0.4-0.1l-1,0l-1,0h-1h-0.8l-1,0l-1.4-0.1l-0.3,0h-0.3l-0.3,0l-0.2,0.1l-0.2,0.2l-0.1,0.3l0,0.2
	l0.1,0.2l0.2,0.1l0.4,0.1l0.5,0.1l0.5,0.1l0.8,0.5l0.5,1l0.1,1.9v15.4L284.5,46z M336.1,47.9l0.4,0.5l0.3,0.3l0.3,0.1l0.4-0.1
	l0.2-0.3l0.1-0.8V29.1l0.1-1.6l0.4-1.3l1-0.8l0.4-0.1l0.4-0.1l0.2-0.2l0.1-0.1l0-0.1v-0.1l0-0.3l-0.2-0.2l-0.3-0.1h-0.9l-0.9,0h-0.8
	h-1.8h-0.9l-0.4,0l-0.5,0l-0.4,0l-0.5,0l-0.3,0.1l-0.2,0.2l-0.1,0.3l0,0.3l0.2,0.2l0.3,0.1l0.7,0.1l0.7,0.1l0.5,0.2l0.7,0.5l0.5,0.8
	l0.3,1.1l0,0.3l0,0.6l0,1.4v13.3l-14.4-18.5l-0.4-0.5l-0.4-0.4l-0.6-0.1h-0.4l-0.4,0.1h-0.4h-0.5l-0.4-0.1H318l-0.3,0.1l-0.2,0.2
	l-0.1,0.3l0,0.2l0.1,0.2l0.2,0.1l0.6,0.1l0.9,0.4l0.9,0.9l0.7,1.5l0.3,2.5v13.5l-0.2,2l-0.6,1l-1,0.5l-0.4,0l-0.4,0l-0.4,0.2
	l-0.1,0.1l0,0.2l0,0.2l0,0.3l0.2,0.1l0.4,0.1l0.7,0l0.7-0.1l0.7-0.1h0.5l0.5,0h0.7l0.9,0l0.7,0l0.7,0l0.2,0l0.2,0h0.2l0.4-0.1
	l0.2-0.2l0.1-0.3l0-0.3l-0.1-0.2l-0.2-0.1l-0.4-0.1l-0.4-0.1l-0.4-0.1l-1-0.5l-0.6-1l-0.2-1.8V30.6L336.1,47.9z M26.6,46l-0.4,0.9
	l-0.6,0.4l-0.3,0.1l-0.3,0.1l-0.3,0.1l-0.3,0.1l-0.1,0.1l0,0.2l0.1,0.3l0.3,0.2l0.4,0h1.1l1.1-0.1l1.1,0l0.7,0l0.8,0l0.9,0l0.4,0
	l0.4,0l0.4,0l0.4-0.1l0.3-0.2l0.1-0.3l0-0.2l-0.1-0.1l-0.3-0.1l-0.5-0.1l-0.5-0.1l-0.5-0.2L30,46.8l-0.4-1.1l-0.2-2V28.5l0.1-1.7
	l0.5-0.9l0.7-0.4l0.3-0.1l0.3,0l0.3-0.1l0.2-0.1l0.1-0.2l0-0.2l0-0.3l-0.2-0.2l-0.4-0.1l-1,0l-1,0h-1h-0.8l-1,0L25,24.1l-0.3,0h-0.3
	l-0.3,0l-0.3,0.1l-0.2,0.2l-0.1,0.3l0,0.2l0.1,0.2l0.2,0.1l0.4,0.1l0.5,0.1l0.5,0.1l0.8,0.5l0.5,1l0.1,1.9v15.4L26.6,46z M52.8,46.7
	l0.1-0.6l0-0.2l-0.1-0.4l-0.2-0.6l-1.3-3.6l-0.4-0.9l-0.4-0.4l-0.6-0.1h-6.4l-0.6,0.1l-0.5,0.4l-0.5,0.9l-1.5,3.6l-0.1,0.4l-0.1,0.4
	v0.3l0.1,0.5l0.3,0.4l0.5,0.4l0.7,0.3l0.8,0.1l0.7,0.2l0.3,0.1l0.1,0.2l0,0.3l-0.1,0.3l-0.2,0.2L43,48.8h-0.2h-0.2l-0.2,0l-1.3-0.1
	l-0.8,0h-0.8h-1.2l-0.8,0h-0.3l-0.5,0l-0.5,0.1h-0.4l-0.3-0.1l-0.2-0.2l0-0.3v-0.1l0-0.1l0.1-0.1l0.3-0.2l0.3-0.1l0.3,0l1.1-0.5
	l0.7-1l0.9-2.1l8-19.4l0.2-0.4l0.2-0.2l0.2,0l0.2,0l0.2,0.2l0.3,0.4l7.3,20.8l0.5,1.2l0.7,0.6l1.1,0.4l0.6,0.1l0.3,0.2l0.1,0.3
	l-0.1,0.3l-0.2,0.2l-0.3,0.1h-0.1l-0.3,0l-0.4,0l-1-0.1l-1,0l-1,0l-1,0.1l-1,0.1l-1,0h-0.1h0h-0.1L51,48.7l-0.2-0.2l0-0.3V48
	l0.1-0.1l0.1-0.1l0.3-0.1l0.3,0l0.3,0l0.7-0.4L52.8,46.7z M50.1,37.8l0-0.1l0-0.2L47,28.8l-3.6,8.7l-0.1,0.1l0,0.2v0.1l0,0.2
	l0.1,0.1l0.3,0h5.8l0.4,0l0.2-0.1l0-0.2V37.8z M220.6,12.3L189,61.9l-31.5-49.6l9-10L176.8,0H189h12.2l10.3,2.4L220.6,12.3z
	 M168.4,3.1l6.9,1.6h10.3V1l-7.9-0.1L168.4,3.1z M175.7,5.7l-5.6,9.4h15.5V5.7H175.7z M159.5,11.9l9,3.1l5.7-9.3l-7.5-1.8
	L159.5,11.9z M185.3,53.9l-16.9-37.8l-9-3.1L185.3,53.9z M185.6,16.2l-15.8,0l15.8,35.2V16.2z M207,5l5.3,9.3l6.8-2.3l-7.3-8.1
	L207,5z M205.1,1.9l1.1,2.1l3.9-0.9L205.1,1.9z M192.9,15.2l12.6,0l-4.9-7.5l-7.8,0V15.2z M192.9,44.9l12.8-28.7l-12.8,0V44.9z
	 M202.6,38.7L219.2,13l-6.7,2.3L202.6,38.7z M0.8,57.4v3.1h170l-1.9-3.1H0.8z M150.2,12.6H0.8v3.1h146.7L150.2,12.6z M1.1,48.7
	l-0.4,0l-0.2-0.2l0-0.3V48l0.1-0.1l0.1-0.1l0.3-0.2l0.4-0.1l0.4-0.1L2,47.2l0.4-0.4l0.2-0.6l0.1-0.3l0-0.8l0-1.4V28.9v-0.4v-0.4
	v-0.4l0-0.8l-0.1-0.5l-0.3-0.4L2,25.8l-0.4-0.3L1,25.4l-0.3,0l-0.3-0.1l-0.3-0.2L0.1,25L0,24.9v-0.1l0.1-0.3l0.2-0.2l0.4-0.1l0.9,0
	l0.9,0.1h0.9l1.6,0l1.6-0.1L8,24l1.6,0l1.3,0l1.3,0.2l1.2,0.3l1.1,0.4l1,0.4l1,0.5l0.9,0.6l0.8,0.7l0.7,0.8l0.6,0.9l0.6,0.9l0.5,1
	l0.4,1l0.3,1.1l0.2,1.1l0.1,1.2l0.1,1.3l-0.1,1.4L21.5,39l-0.3,1.3l-0.4,1.2l-0.5,1.1l-0.5,1l-0.6,1l-0.7,0.9l-0.8,0.8l-0.9,0.7
	l-1,0.6l-1,0.5l-1.1,0.4l-1.2,0.3L11.2,49l-1.3,0l-1,0l-1.1-0.1l-1.4-0.1l-1-0.1l-1,0l-1,0l-0.8,0l-0.8,0.1H1.1z M5.4,44.6l0.1,1.1
	l0.2,0.6l0.3,0.3l0.6,0.3L8,47.3l2.4,0.2l1.6-0.2l1.6-0.5l1.4-0.7l1.2-0.9l0.9-1l0.7-1.1l0.6-1.3l0.4-1.4l0.3-1.6l0.1-1.7l-0.1-1.5
	l-0.2-1.4l-0.3-1.3l-0.4-1.2l-0.5-1.1l-0.6-1l-0.7-0.9l-0.8-0.8l-0.9-0.7l-0.9-0.6l-1-0.5l-1-0.4l-1-0.3l-1-0.1l-1.1-0.1l-2.2,0.3
	l-0.9,0.9l-0.1,1.7L5.4,44.6z M82.6,46.3l-0.3,0.5L82,47.2l-0.5,0.3L81,47.6l-0.4,0.2l-0.2,0.4l0.1,0.3l0.2,0.1l0.4,0.1l0.8,0l0.7,0
	l0.8,0h1l1,0l1,0l0.5,0l0.5,0l0.5,0l0.4-0.1l0.2-0.2l0-0.3v-0.2l-0.1-0.1l-0.3-0.1l-0.8-0.1l-0.7-0.2L86,46.9l-0.3-0.4l-0.3-0.8
	l-0.1-1.5l-0.4-14.4v-1.4l0-1l0-0.4l0.2-0.7l0.3-0.5l0.5-0.3l0.4-0.1l0.4-0.1l0.3-0.1l0.1-0.1l0.1-0.1v-0.2l-0.1-0.3L87,24.3
	l-0.3-0.1l-0.6,0l-0.6,0h-0.6h-0.3h-0.4h-0.3l-0.5,0l-0.3,0.3l-0.3,0.6l-7.9,18.6l-7.6-18.2l-0.5-0.9l-0.5-0.5l-0.7-0.1l-0.5,0
	l-0.5,0.1h-0.5l-0.8,0l-0.8-0.1l-0.8,0l-0.3,0.1l-0.2,0.2l0,0.3v0.2l0.1,0.2l0.2,0.1l0.3,0.1l0.3,0l0.3,0.1l1.1,0.5l0.9,1l0.6,1.5
	l0.3,2.2l0,0.6V32l0,0.7l-0.3,11.7l-0.3,1.9l-0.4,0.9l-0.6,0.3l-0.3,0l-0.3,0.1l-0.3,0.1l-0.1,0.1l-0.1,0.1v0.2l0,0.3l0.2,0.2
	l0.3,0.1l0.8,0l0.8-0.1l0.8,0l0.9,0l0.9,0l0.9,0.1l0.3,0l0.3,0l0.3,0l0.4-0.1l0.2-0.2l0-0.3v-0.2l-0.1-0.1l-0.1-0.1L69,47.7l-0.3,0
	l-0.4-0.1l-1.1-0.4l-0.6-1l-0.2-1.8v-0.4v-0.4l0-0.4l0.3-11.8l6.7,15.9l0.1,0.4l0.3,0.4l0.4,0.1l0.2,0l0.3-0.2l0.3-0.6l7.4-17.4
	L82.7,44l0,0.8v0.8L82.6,46.3z M133.4,47.9l0.4,0.5l0.3,0.3l0.3,0.1l0.3-0.1l0.3-0.3l0.1-0.8V29.1l0.1-1.6l0.4-1.3l1-0.8l0.4-0.1
	l0.3-0.1l0.3-0.2l0.1-0.1l0.1-0.1v-0.1l-0.1-0.3l-0.1-0.2l-0.3-0.1h-0.9l-0.9,0h-0.9h-1.8h-0.9l-0.5,0l-0.4,0l-0.5,0l-0.4,0
	l-0.3,0.1l-0.2,0.2l-0.1,0.3l0,0.3l0.1,0.2l0.3,0.1l0.8,0.1l0.6,0.1l0.6,0.2l0.7,0.5l0.5,0.8l0.3,1.1l0,0.3l0,0.6v1.4v13.3
	l-14.4-18.5l-0.4-0.5l-0.4-0.4l-0.6-0.1h-0.4l-0.4,0.1h-0.4h-0.5l-0.5-0.1h-0.4l-0.3,0.1l-0.2,0.2l-0.1,0.3v0.2l0.1,0.2l0.2,0.1
	l0.6,0.1l0.9,0.4l0.9,0.9l0.7,1.5l0.3,2.5v13.5l-0.2,2l-0.6,1l-1.1,0.5l-0.4,0l-0.4,0l-0.4,0.2l-0.1,0.1l-0.1,0.2l0,0.2l0.1,0.3
	l0.2,0.1l0.4,0.1l0.7,0l0.7-0.1l0.7-0.1h0.5l0.5,0h0.6l0.9,0l0.7,0l0.7,0l0.2,0l0.2,0h0.2l0.4-0.1l0.2-0.2l0.1-0.3l0-0.3l-0.1-0.2
	l-0.2-0.1l-0.4-0.1l-0.4-0.1l-0.4-0.1l-1-0.5l-0.6-1l-0.2-1.8V30.6L133.4,47.9z M206.7,60.4h151.2v-3.1H208.6L206.7,60.4z
	 M112.8,33.9l0.1,1.3l0.1,1.4l-0.1,1.3l-0.1,1.3l-0.3,1.2l-0.4,1.2l-0.5,1.1l-0.6,1l-0.6,1l-0.7,0.9l-0.8,0.8l-0.9,0.7l-0.9,0.6
	l-1,0.5l-1,0.4l-1.1,0.3l-1.1,0.2l-1.1,0.1l-1.1-0.1l-1.1-0.2l-1.1-0.3l-1-0.4l-1-0.5L95.7,47l-0.9-0.7L94,45.4l-0.7-0.9l-0.6-1
	l-0.6-1.1l-0.5-1.1l-0.4-1.2l-0.3-1.3l-0.2-1.3l-0.1-1.4l0.1-1.4l0.2-1.4l0.3-1.3l0.4-1.2l0.6-1.1l0.6-1.1l0.8-1l0.9-0.9l1-0.8
	l1.4-0.9l1.5-0.7l1.7-0.4l1.8-0.1l1.1,0.1l1.1,0.2l1.1,0.3l1,0.4l1,0.5l0.9,0.6l0.9,0.8l0.8,0.8l0.8,0.9l0.6,1l0.6,1l0.5,1.1
	l0.4,1.2L112.8,33.9z M110.4,37.7l0-1.2l-0.1-1.2l-0.3-1.2l-0.3-1.2l-0.4-1.2l-0.5-1.1l-0.6-1.1l-0.7-1l-0.8-0.9l-0.9-0.8l-1-0.6
	l-1-0.5l-1.1-0.3l-1.3-0.1l-0.8,0l-0.8,0.2l-0.9,0.3l-0.9,0.4L97,26.7l-0.8,0.7l-0.8,0.9l-0.7,1l-0.6,1.2l-0.4,1.4l-0.3,1.6
	l-0.1,1.8l0.1,1.3l0.1,1.2l0.3,1.3l0.3,1.2l0.5,1.2l0.5,1.1l0.6,1l0.7,1l0.8,0.9l0.9,0.8l1,0.6l1,0.5l1.1,0.3l1.2,0.1l1.1-0.1
	l1.1-0.3l1-0.5l1-0.6l0.9-0.8l0.8-0.9l0.7-1.1l0.6-1.2l0.4-1.4l0.3-1.5L110.4,37.7z"/>
</svg>
