<?xml version="1.0" encoding="UTF-8"?><svg id="Layer_1" xmlns="http://www.w3.org/2000/svg" viewBox="0 0 259.6319 84.7494"><g><path d="M53.5243,10.7122h-2.7499c-1.886,2.2794-4.4406,5.5411-10.3737,12.2598v-2.3965c0-5.3841,.1182-8.8015,.4331-9.8633h-2.7512c.0526,.2029,.0977,.5183,.139,.8903l-8.082,22.2526L21.1858,10.7245c.0009-.0032,.0015-.0089,.0024-.0121h-2.7512c.3149,1.0618,.4331,4.4791,.4331,9.8632v9.4689c0,3.614-.1967,4.6372-4.1257,4.6372-2.4362,0-5.3044-.5105-6.5619-1.1005l.5889,2.2782c.9037,.2764,3.065,.7868,5.1078,.7868,2.3974,0,4.2371-.6772,5.4231-1.9893,.9525-1.0537,1.4924-2.5079,1.4924-4.4157v-1.796c-.0045-.6509-.007-1.3318-.007-2.0545V14.8777l.0685,.1768,8.2225,21.1982h1.5326l7.8003-21.2838c.0068,.2402,.0133,.4853,.0189,.7433v10.6783c0,5.3829-.1182,8.8015-.432,9.8621h2.8353c-.3149-1.0607-.4331-4.4792-.4331-9.8621v-1.5324l.3535-.3537,10.9239,11.7482h2.907l-12.5338-13.2023c6.4437-6.9938,9.3119-10.0588,11.473-12.3382Z" style="fill:#fff;"/><g><path d="M53.5243,10.7122h-2.7499c-1.886,2.2794-4.4406,5.5411-10.3737,12.2598v-2.3965c0-5.3841,.1182-8.8015,.4331-9.8633h-2.7512c.0526,.2029,.0977,.5183,.139,.8903l-8.082,22.2526L21.1858,10.7244c.0009-.0032,.0015-.0089,.0024-.0121h-2.7512c.3149,1.0618,.4331,4.4791,.4331,9.8632v9.4689c0,3.614-.1967,4.6372-4.1257,4.6372-2.4362,0-5.3044-.5105-6.5619-1.1005l.5889,2.2782c.9037,.2764,3.065,.7868,5.1078,.7868,2.3974,0,4.2371-.6772,5.4231-1.9893,.9525-1.0537,1.4924-2.5079,1.4924-4.4157v-1.796c-.0045-.6509-.007-1.3318-.007-2.0545V14.8777l.0685,.1768,8.2225,21.1982h1.5326l7.8003-21.2838c.0068,.2402,.0133,.4853,.0189,.7433v10.6783c0,5.3829-.1182,8.8015-.432,9.8621h2.8353c-.3149-1.0607-.4331-4.4792-.4331-9.8621v-1.5324l.3535-.3537,10.9239,11.7482h2.907l-12.5338-13.2023c6.4437-6.9938,9.3119-10.0588,11.473-12.3382Z" style="fill:none;"/><path d="M52.6065,0H10.5377C4.742,0,0,4.742,0,10.5377v26.2827c0,5.7957,4.742,10.5377,10.5377,10.5377H52.6065c5.7958,0,10.5377-4.742,10.5377-10.5377V10.5377c0-5.7957-4.7419-10.5377-10.5377-10.5377Zm-.9284,36.2526l-10.9239-11.7482-.3535,.3537v1.5324c0,5.3829,.1182,8.8015,.4331,9.8621h-2.8353c.3138-1.0607,.432-4.4792,.432-9.8621V15.7122c-.0056-.258-.012-.5031-.0189-.7433l-7.8003,21.2838h-1.5326L20.8563,15.0544l-.0685-.1768v11.5128c0,.7227,.0025,1.4036,.007,2.0545v1.796c0,1.9078-.5399,3.362-1.4924,4.4157-1.186,1.3121-3.0257,1.9893-5.4231,1.9893-2.0428,0-4.204-.5104-5.1078-.7868l-.5889-2.2782c1.2574,.59,4.1257,1.1005,6.5619,1.1005,3.929,0,4.1257-1.0233,4.1257-4.6372v-9.4689c0-5.3841-.1182-8.8015-.4331-9.8632h2.7512c-.0009,.0032-.0015,.0089-.0024,.0121l8.9537,23.1306,8.082-22.2526c-.0413-.372-.0864-.6874-.139-.8903h2.7512c-.3149,1.0619-.4331,4.4792-.4331,9.8633v2.3965c5.9331-6.7188,8.4877-9.9804,10.3737-12.2598h2.7499c-2.1611,2.2794-5.0293,5.3444-11.473,12.3382l12.5338,13.2023h-2.907Z" style="fill:#1e7395;"/></g></g><path d="M2.0137,76.2699v-4.8076c0-4.2236-.0322-6.1074-.4873-8.1543h6.9521c5.8477,0,8.1865,5.5225,8.1865,10.623,0,5.6523-2.8906,10.4932-7.6992,10.4932H1.5264c.4551-2.0469,.4873-3.9307,.4873-8.1543Zm1.7871,6.8223h4.9707c3.7354,0,6.335-2.5342,6.335-8.4463,0-5.5547-2.2422-10.0059-7.6348-10.0059H3.8008c-.1621,0-.1953,.0977-.1953,.9424v16.5674c0,.8447,.0332,.9424,.1953,.9424Z" style="fill:gray;"/><path d="M23.8409,84.4242h-4.7109c.4551-2.0469,.4873-3.9307,.4873-8.1543v-4.8076c0-4.2236-.0322-6.1074-.4873-8.1543h4.4834c2.8262,0,5.1982,0,7.1797-.0322v1.7217c-1.9814-.2275-4.3535-.2598-7.1797-.3574l-2.0137-.0645c-.3252,0-.3906,.0645-.3906,.9092v7.2119h2.6641c3.1836,0,5.1006-.0645,6.7246-.1621v1.6562c-1.624-.0967-3.541-.1621-6.7246-.1621h-2.6641v8.2188c0,.8447,.0654,.9102,.3906,.9102l2.2412-.0654c2.8262-.0645,5.1982-.1299,7.1797-.3574v1.7217c-1.9814-.0322-4.3535-.0322-7.1797-.0322Z" style="fill:gray;"/><path d="M33.1602,83.5473l.5205-1.7871c1.624,.7471,3.3135,1.2998,5.9121,1.2998,3.7686,0,4.5811-1.2021,4.5811-3.4434,0-7.9268-10.9805-4.6787-10.9805-11.6631,0-3.6709,3.0859-4.9697,6.1396-4.9697,2.4043,0,4.1904,.8115,5.1328,1.2021l-.4873,1.8838c-1.3965-.9102-3.5732-1.3975-5.7178-1.3975-2.8262,0-3.4111,.8447-3.4111,2.4365,0,6.7246,11.0127,3.6709,11.0127,11.5654,0,4.1582-2.9561,6.0752-7.0166,6.0752-2.6318,0-4.8076-.7803-5.6855-1.2021Z" style="fill:gray;"/><path d="M48.3272,76.2699v-4.8076c0-4.4502-.0967-7.2764-.3242-8.1543h2.2734c-.2598,.8779-.3574,3.7041-.3574,8.1543v4.8076c0,4.4512,.0977,7.2773,.3574,8.1543h-2.2734c.2275-.877,.3242-3.7031,.3242-8.1543Z" style="fill:gray;"/><path d="M52.8741,73.6391c0-7.1143,3.7031-10.6553,9.1934-10.6553,1.5273,0,3.3789,.292,4.5156,.4541l-.3896,1.7549c-1.7871-.3252-3.8984-.6172-5.5225-.6172-5.0684,0-6.2373,3.1182-6.2373,8.0889,0,7.5039,2.8916,10.46,8.6084,10.46,3.1836,0,3.3789-.9092,3.3789-3.7354v-.1953c0-2.3711-.0977-3.6709-.3574-4.8076h2.2744c-.2275,1.1367-.3252,2.4365-.3252,4.8076v.3574c0,3.4434-2.209,5.1982-5.8799,5.1982-5.8477,0-9.2588-4.1582-9.2588-11.1104Z" style="fill:gray;"/><path d="M72.5567,65.7777v10.4922c0,4.4512,.0322,7.2451,.3564,8.1543h-1.7861c.2275-.9092,.3242-3.7031,.3242-8.1543v-4.8076c0-4.4502-.0967-7.2764-.3242-8.1543h2.1113l9.8438,18.6152v-10.4609c0-4.3535-.0654-7.1797-.3906-8.1543h1.8525c-.2607,.9746-.3252,3.7041-.3252,8.1543v4.8076c0,4.4512,.0645,7.2773,.3252,8.1543h-2.1123l-9.875-18.6465Z" style="fill:gray;"/><path d="M114.0616,76.2699v-4.8076c0-4.2236-.0322-6.1074-.4873-8.1543h8.0244c4.3535,0,5.6523,2.8916,5.6523,5.3604,0,3.1191-2.0791,5.9131-5.6523,5.9131h-5.9453v1.6885c0,4.4512,.0977,7.2773,.3574,8.1543h-2.2734c.2275-.877,.3242-3.7031,.3242-8.1543Zm7.3428-2.9883c2.9229,0,4.3203-1.1045,4.3203-3.8662,0-2.5986-1.2676-4.7754-4.8076-4.7754h-5.0684c-.1621,0-.1953,.0977-.1953,.9424v7.6992h5.751Z" style="fill:gray;"/><path d="M131.3077,74.6781v1.5918c0,4.4512,.0977,7.2773,.3574,8.1543h-2.2734c.2275-.877,.3242-3.7031,.3242-8.1543v-4.8076c0-4.2236-.0322-6.1074-.4873-8.1543h8.0244c4.3535,0,5.6523,2.8916,5.6523,5.3604,0,3.1191-2.0791,5.9131-5.6523,5.9131h-3.6387l10.1035,9.8428h-2.501l-9.9092-9.7461Zm5.751-1.3965c2.9229,0,4.3203-1.1045,4.3203-3.8662,0-2.5986-1.2676-4.7754-4.8076-4.7754h-5.0684c-.1621,0-.1953,.0977-.1953,.9424v7.6992h5.751Z" style="fill:gray;"/><path d="M146.0205,76.2699v-4.8076c0-4.4502-.0967-7.2764-.3242-8.1543h2.2734c-.2598,.8779-.3574,3.7041-.3574,8.1543v4.8076c0,4.4512,.0977,7.2773,.3574,8.1543h-2.2734c.2275-.877,.3242-3.7031,.3242-8.1543Z" style="fill:gray;"/><path d="M152.3223,65.7777v10.4922c0,4.4512,.0322,7.2451,.3564,8.1543h-1.7861c.2275-.9092,.3242-3.7031,.3242-8.1543v-4.8076c0-4.4502-.0967-7.2764-.3242-8.1543h2.1113l9.8438,18.6152v-10.4609c0-4.3535-.0654-7.1797-.3906-8.1543h1.8525c-.2607,.9746-.3252,3.7041-.3252,8.1543v4.8076c0,4.4512,.0645,7.2773,.3252,8.1543h-2.1123l-9.875-18.6465Z" style="fill:gray;"/><path d="M172.2969,76.2699v-11.6943c-3.0215,.0322-4.9375,.1943-5.8477,.6494v-1.9492c0,.0322,2.4043,.0322,6.6602,.0322h.7471c3.7686,0,5.8799,0,5.8799-.0322v1.9492c-.9102-.4551-2.8262-.6172-5.8799-.6494v11.6943c0,4.4512,.0977,7.2773,.3574,8.1543h-2.2744c.2598-.877,.3574-3.7031,.3574-8.1543Z" style="fill:gray;"/><path d="M192.4047,78.9719v-10.1571c0-3.006-.0398-4.9146-.1335-5.5069h.9361c-.107,.5922-.1472,2.5008-.1472,5.5069v10.1571c0,3.006,.0402,4.9146,.1472,5.5069h-.9361c.0937-.5922,.1335-2.5008,.1335-5.5069Z" style="fill:gray;"/><path d="M98.7226,78.9719v-10.1571c0-3.006-.04-4.9146-.1343-5.5069h.9416c-.1076,.5922-.148,2.5008-.148,5.5069v10.1571c0,3.006,.0404,4.9146,.148,5.5069h-.9416c.0942-.5922,.1343-2.5008,.1343-5.5069Z" style="fill:gray;"/><path d="M217.3438,66.3617c-.4551,1.332-.9746,3.0215-1.4941,5.0029l-3.6387,13.0596h-.2598c-1.0723,0-1.332,.0322-1.5596,.1953l-3.1514-13.2549c-1.0391-4.3525-1.7539-7.2441-2.2734-8.0566h2.3057c.0654,.9746,.7148,3.7686,1.6572,7.959l2.5342,11.0459,3.0537-11.0459c1.1689-4.1904,1.8184-7.0488,1.8184-7.959h2.21c-.0654,.9102,.7471,3.7686,1.9482,7.959l3.0869,11.0459,2.501-11.0459c.9424-4.1904,1.4297-6.9844,1.4297-7.959h2.1113c-.3574,.8779-1.2344,3.7041-2.2412,8.0566l-3.0215,13.0596h-.1943c-1.1377,0-1.3975,.0322-1.625,.1953l-3.7354-13.2549c-.5527-1.9814-1.0723-3.6709-1.4619-5.0029Z" style="fill:gray;"/><path d="M235.9854,84.4242h-4.7109c.4551-2.0469,.4873-3.9307,.4873-8.1543v-4.8076c0-4.2236-.0322-6.1074-.4873-8.1543h4.4834c2.8262,0,5.1982,0,7.1797-.0322v1.7217c-1.9814-.2275-4.3535-.2598-7.1797-.3574l-2.0137-.0645c-.3252,0-.3906,.0645-.3906,.9092v7.2119h2.6641c3.1836,0,5.1006-.0645,6.7246-.1621v1.6562c-1.624-.0967-3.541-.1621-6.7246-.1621h-2.6641v8.2188c0,.8447,.0654,.9102,.3906,.9102l2.2412-.0654c2.8262-.0645,5.1982-.1299,7.1797-.3574v1.7217c-1.9814-.0322-4.3535-.0322-7.1797-.0322Z" style="fill:gray;"/><path d="M246.2793,76.5297v-5.3271c0-4.2559-.0322-5.8477-.4873-7.8945h6.79c4.2236,0,5.8154,2.5342,5.8154,5.1328,0,1.917-.8779,3.6387-2.5342,4.7109,2.7285,.9424,3.7686,3.3135,3.7686,5.4248,0,3.2158-2.4043,5.8477-6.1406,5.8477h-7.6992c.4551-2.0469,.4873-3.9307,.4873-7.8945Zm6.3682-3.833c2.9561,0,4.2227-.9092,4.2227-3.5732,0-2.7285-1.332-4.4834-4.9707-4.4834h-3.833c-.1621,0-.1953,.0977-.1953,.9424v7.1143h4.7764Zm-4.5811,10.3955h5.5547c2.9238,0,4.4834-.7148,4.4834-3.7031,0-2.8916-1.4941-5.3926-5.1328-5.3926h-5.1006v8.1533c0,.8447,.0332,.9424,.1953,.9424Z" style="fill:gray;"/><g><path d="M79.2596,44.011l-.9968-3.8568c2.1277,.9979,6.9815,1.861,11.1039,1.861,6.6484,0,6.9804-1.7282,6.9804-7.8455V18.1466c0-9.109-.1992-14.8935-.7314-16.689h4.6547c-.4659,1.7957-.665,7.58-.665,16.689v16.3561c0,7.2469-4.388,10.8361-11.7015,10.8361-3.4576,0-7.1141-.8631-8.6443-1.3276v-.0002Z"/><path d="M101.7353,42.2808c0-1.5954,1.1307-2.7925,2.7261-2.7925s2.7261,1.1971,2.7261,2.7925-1.1307,2.7261-2.7261,2.7261-2.7261-1.1307-2.7261-2.7261Z"/><path d="M115.4326,8.5054V27.986c0,9.1101,.1992,14.8944,.7314,16.689h-3.5904c.4659-1.7946,.665-7.5788,.665-16.689v-9.8393c0-9.109-.1992-14.8935-.665-16.689h3.524l15.1588,39.1613L145.2857,1.9897v-.5323h3.9232c-.4659,1.7957-.6651,7.58-.6651,16.689v9.8393c0,9.1101,.1992,14.8944,.6651,16.689h-4.6547c.5323-1.7946,.7314-7.5788,.7314-16.689V8.5718l-13.2316,36.1032h-2.5922l-14.0292-36.1696Z"/><path d="M152.671,42.2808c0-1.5954,1.1307-2.7925,2.7261-2.7925s2.7261,1.1971,2.7261,2.7925-1.1307,2.7261-2.7261,2.7261-2.7261-1.1307-2.7261-2.7261Z"/><path d="M174.9453,27.986v-9.8393c0-9.109-.1992-14.8935-.665-16.689h4.6535c-.5311,1.7957-.7314,7.58-.7314,16.689v4.0551c10.0408-11.3695,14.3623-16.8882,17.5532-20.7441h4.6547c-3.6567,3.8559-8.5106,9.0426-19.4153,20.8769l21.21,22.3407h-4.9202l-18.4836-19.8799-.5987,.5987v2.5922c0,9.1101,.2003,14.8944,.7314,16.689h-4.6535c.4659-1.7946,.665-7.5788,.665-16.689v-.0002Z"/><path d="M206.4634,31.3108v-4.8538c0-5.917-.1328-9.9068-.9315-13.3642h4.1224v5.5187c1.7957-3.5904,4.7211-5.917,9.3082-5.917,1.663,0,3.4576,.332,3.5904,.5987l-.5311,3.1909c-1.663-.332-3.2584-.5311-4.5883-.5311-6.1837,0-7.5124,3.9887-7.7791,9.441v5.917c0,5.9181,.1328,9.908,.665,13.3642h-4.4544c.4659-3.4564,.5987-7.4461,.5987-13.3642h-.0002Z"/><path d="M229.3374,.6598c1.5954,0,2.6597,1.0632,2.6597,2.6597,0,1.5954-1.0643,2.6586-2.6597,2.6586-1.529,0-2.5934-1.0632-2.5934-2.6586,0-1.5966,1.0643-2.6597,2.5934-2.6597Zm-1.529,30.6509v-4.8538c0-5.917-.1339-9.9068-.6651-13.3642h4.4543c-.5323,3.4576-.6651,7.4472-.6651,13.3642v4.8538c0,5.9181,.1328,9.908,.6651,13.3642h-4.4543c.5311-3.4564,.6651-7.4461,.6651-13.3642Z"/><path d="M253.6728,15.1538h-1.529c-6.384,0-10.6392,.2667-14.7607,2.3942l.9968-4.4555h20.4121l-18.218,29.5223h1.2635c7.7791,0,11.9015-.2678,16.0242-2.3942l-.9979,4.4544h-21.3425s18.1516-29.5211,18.1516-29.5211Z"/></g></svg>