<?xml version="1.0" encoding="utf-8"?>
<!-- Generator: Adobe Illustrator 28.0.0, SVG Export Plug-In . SVG Version: 6.00 Build 0)  -->
<svg version="1.1" id="Layer_1" xmlns="http://www.w3.org/2000/svg" xmlns:xlink="http://www.w3.org/1999/xlink" x="0px" y="0px"
	 viewBox="0 0 259.6 84.7" style="enable-background:new 0 0 259.6 84.7;" xml:space="preserve">
<style type="text/css">
	.st0{fill:#FFFFFF;}
	.st1{fill:none;}
	.st2{fill:#1E7395;}
	.st3{fill:#808080;}
</style>
<g>
	<path class="st0" d="M53.5,10.7h-2.7C48.9,13,46.3,16.3,40.4,23v-2.4c0-5.4,0.1-8.8,0.4-9.9h-2.8c0.1,0.2,0.1,0.5,0.1,0.9
		l-8.1,22.3l-9-23.1c0,0,0,0,0,0h-2.8c0.3,1.1,0.4,4.5,0.4,9.9V30c0,3.6-0.2,4.6-4.1,4.6c-2.4,0-5.3-0.5-6.6-1.1l0.6,2.3
		c0.9,0.3,3.1,0.8,5.1,0.8c2.4,0,4.2-0.7,5.4-2c1-1.1,1.5-2.5,1.5-4.4v-1.8c0-0.7,0-1.3,0-2.1V14.9l0.1,0.2l8.2,21.2h1.5L38.4,15
		c0,0.2,0,0.5,0,0.7v10.7c0,5.4-0.1,8.8-0.4,9.9h2.8c-0.3-1.1-0.4-4.5-0.4-9.9v-1.5l0.4-0.4l10.9,11.7h2.9L42.1,23.1
		C48.5,16.1,51.4,13,53.5,10.7L53.5,10.7z"/>
	<g>
		<path class="st1" d="M53.5,10.7h-2.7C48.9,13,46.3,16.3,40.4,23v-2.4c0-5.4,0.1-8.8,0.4-9.9h-2.8c0.1,0.2,0.1,0.5,0.1,0.9
			l-8.1,22.3l-9-23.1c0,0,0,0,0,0h-2.8c0.3,1.1,0.4,4.5,0.4,9.9V30c0,3.6-0.2,4.6-4.1,4.6c-2.4,0-5.3-0.5-6.6-1.1l0.6,2.3
			c0.9,0.3,3.1,0.8,5.1,0.8c2.4,0,4.2-0.7,5.4-2c1-1.1,1.5-2.5,1.5-4.4v-1.8c0-0.7,0-1.3,0-2.1V14.9l0.1,0.2l8.2,21.2h1.5L38.4,15
			c0,0.2,0,0.5,0,0.7v10.7c0,5.4-0.1,8.8-0.4,9.9h2.8c-0.3-1.1-0.4-4.5-0.4-9.9v-1.5l0.4-0.4l10.9,11.7h2.9L42.1,23.1
			C48.5,16.1,51.4,13,53.5,10.7L53.5,10.7z"/>
		<path class="st2" d="M52.6,0H10.5C4.7,0,0,4.7,0,10.5v26.3c0,5.8,4.7,10.5,10.5,10.5h42.1c5.8,0,10.5-4.7,10.5-10.5V10.5
			C63.1,4.7,58.4,0,52.6,0z M51.7,36.3L40.8,24.5l-0.4,0.4v1.5c0,5.4,0.1,8.8,0.4,9.9H38c0.3-1.1,0.4-4.5,0.4-9.9V15.7
			c0-0.3,0-0.5,0-0.7l-7.8,21.3h-1.5l-8.2-21.2l-0.1-0.2v11.5c0,0.7,0,1.4,0,2.1v1.8c0,1.9-0.5,3.4-1.5,4.4c-1.2,1.3-3,2-5.4,2
			c-2,0-4.2-0.5-5.1-0.8l-0.6-2.3c1.3,0.6,4.1,1.1,6.6,1.1c3.9,0,4.1-1,4.1-4.6v-9.5c0-5.4-0.1-8.8-0.4-9.9h2.8c0,0,0,0,0,0l9,23.1
			l8.1-22.3c0-0.4-0.1-0.7-0.1-0.9h2.8c-0.3,1.1-0.4,4.5-0.4,9.9V23c5.9-6.7,8.5-10,10.4-12.3h2.7c-2.2,2.3-5,5.3-11.5,12.3
			l12.5,13.2L51.7,36.3L51.7,36.3z"/>
	</g>
</g>
<path class="st3" d="M2,76.3v-4.8c0-4.2,0-6.1-0.5-8.2h7c5.8,0,8.2,5.5,8.2,10.6c0,5.7-2.9,10.5-7.7,10.5H1.5C2,82.4,2,80.5,2,76.3z
	 M3.8,83.1h5c3.7,0,6.3-2.5,6.3-8.4c0-5.6-2.2-10-7.6-10H3.8c-0.2,0-0.2,0.1-0.2,0.9v16.6C3.6,83,3.6,83.1,3.8,83.1z"/>
<path class="st3" d="M23.8,84.4h-4.7c0.5-2,0.5-3.9,0.5-8.2v-4.8c0-4.2,0-6.1-0.5-8.2h4.5c2.8,0,5.2,0,7.2,0V65
	c-2-0.2-4.4-0.3-7.2-0.4l-2-0.1c-0.3,0-0.4,0.1-0.4,0.9v7.2h2.7c3.2,0,5.1-0.1,6.7-0.2v1.7C29,74.1,27.1,74,23.9,74h-2.7v8.2
	c0,0.8,0.1,0.9,0.4,0.9l2.2-0.1C26.7,83,29,83,31,82.7v1.7C29,84.4,26.7,84.4,23.8,84.4L23.8,84.4z"/>
<path class="st3" d="M33.2,83.5l0.5-1.8c1.6,0.7,3.3,1.3,5.9,1.3c3.8,0,4.6-1.2,4.6-3.4c0-7.9-11-4.7-11-11.7c0-3.7,3.1-5,6.1-5
	c2.4,0,4.2,0.8,5.1,1.2L44,66.1c-1.4-0.9-3.6-1.4-5.7-1.4c-2.8,0-3.4,0.8-3.4,2.4c0,6.7,11,3.7,11,11.6c0,4.2-3,6.1-7,6.1
	C36.2,84.7,34,84,33.2,83.5L33.2,83.5z"/>
<path class="st3" d="M48.3,76.3v-4.8c0-4.5-0.1-7.3-0.3-8.2h2.3c-0.3,0.9-0.4,3.7-0.4,8.2v4.8c0,4.5,0.1,7.3,0.4,8.2H48
	C48.2,83.5,48.3,80.7,48.3,76.3z"/>
<path class="st3" d="M52.9,73.6c0-7.1,3.7-10.7,9.2-10.7c1.5,0,3.4,0.3,4.5,0.5l-0.4,1.8c-1.8-0.3-3.9-0.6-5.5-0.6
	c-5.1,0-6.2,3.1-6.2,8.1c0,7.5,2.9,10.5,8.6,10.5c3.2,0,3.4-0.9,3.4-3.7v-0.2c0-2.4-0.1-3.7-0.4-4.8h2.3c-0.2,1.1-0.3,2.4-0.3,4.8
	v0.4c0,3.4-2.2,5.2-5.9,5.2C56.3,84.7,52.9,80.6,52.9,73.6L52.9,73.6z"/>
<path class="st3" d="M72.6,65.8v10.5c0,4.5,0,7.2,0.4,8.2h-1.8c0.2-0.9,0.3-3.7,0.3-8.2v-4.8c0-4.5-0.1-7.3-0.3-8.2h2.1l9.8,18.6
	V71.5c0-4.4-0.1-7.2-0.4-8.2h1.9c-0.3,1-0.3,3.7-0.3,8.2v4.8c0,4.5,0.1,7.3,0.3,8.2h-2.1C82.4,84.4,72.6,65.8,72.6,65.8z"/>
<path class="st3" d="M114.1,76.3v-4.8c0-4.2,0-6.1-0.5-8.2h8c4.4,0,5.7,2.9,5.7,5.4c0,3.1-2.1,5.9-5.7,5.9h-5.9v1.7
	c0,4.5,0.1,7.3,0.4,8.2h-2.3C114,83.5,114.1,80.7,114.1,76.3L114.1,76.3z M121.4,73.3c2.9,0,4.3-1.1,4.3-3.9c0-2.6-1.3-4.8-4.8-4.8
	h-5.1c-0.2,0-0.2,0.1-0.2,0.9v7.7H121.4z"/>
<path class="st3" d="M131.3,74.7v1.6c0,4.5,0.1,7.3,0.4,8.2h-2.3c0.2-0.9,0.3-3.7,0.3-8.2v-4.8c0-4.2,0-6.1-0.5-8.2h8
	c4.4,0,5.7,2.9,5.7,5.4c0,3.1-2.1,5.9-5.7,5.9h-3.6l10.1,9.8h-2.5L131.3,74.7L131.3,74.7z M137.1,73.3c2.9,0,4.3-1.1,4.3-3.9
	c0-2.6-1.3-4.8-4.8-4.8h-5.1c-0.2,0-0.2,0.1-0.2,0.9v7.7H137.1z"/>
<path class="st3" d="M146,76.3v-4.8c0-4.5-0.1-7.3-0.3-8.2h2.3c-0.3,0.9-0.4,3.7-0.4,8.2v4.8c0,4.5,0.1,7.3,0.4,8.2h-2.3
	C145.9,83.5,146,80.7,146,76.3z"/>
<path class="st3" d="M152.3,65.8v10.5c0,4.5,0,7.2,0.4,8.2h-1.8c0.2-0.9,0.3-3.7,0.3-8.2v-4.8c0-4.5-0.1-7.3-0.3-8.2h2.1l9.8,18.6
	V71.5c0-4.4-0.1-7.2-0.4-8.2h1.9c-0.3,1-0.3,3.7-0.3,8.2v4.8c0,4.5,0.1,7.3,0.3,8.2h-2.1L152.3,65.8L152.3,65.8z"/>
<path class="st3" d="M172.3,76.3V64.6c-3,0-4.9,0.2-5.8,0.6v-1.9c0,0,2.4,0,6.7,0h0.7c3.8,0,5.9,0,5.9,0v1.9
	c-0.9-0.5-2.8-0.6-5.9-0.6v11.7c0,4.5,0.1,7.3,0.4,8.2h-2.3C172.2,83.5,172.3,80.7,172.3,76.3L172.3,76.3z"/>
<path class="st3" d="M192.4,79V68.8c0-3,0-4.9-0.1-5.5h0.9c-0.1,0.6-0.1,2.5-0.1,5.5V79c0,3,0,4.9,0.1,5.5h-0.9
	C192.4,83.9,192.4,82,192.4,79z"/>
<path class="st3" d="M98.7,79V68.8c0-3,0-4.9-0.1-5.5h0.9c-0.1,0.6-0.1,2.5-0.1,5.5V79c0,3,0,4.9,0.1,5.5h-0.9
	C98.7,83.9,98.7,82,98.7,79z"/>
<path class="st3" d="M217.3,66.4c-0.5,1.3-1,3-1.5,5l-3.6,13.1H212c-1.1,0-1.3,0-1.6,0.2l-3.2-13.3c-1-4.4-1.8-7.2-2.3-8.1h2.3
	c0.1,1,0.7,3.8,1.7,8l2.5,11l3.1-11c1.2-4.2,1.8-7,1.8-8h2.2c-0.1,0.9,0.7,3.8,1.9,8l3.1,11l2.5-11c0.9-4.2,1.4-7,1.4-8h2.1
	c-0.4,0.9-1.2,3.7-2.2,8.1l-3,13.1h-0.2c-1.1,0-1.4,0-1.6,0.2l-3.7-13.3C218.3,69.4,217.7,67.7,217.3,66.4z"/>
<path class="st3" d="M236,84.4h-4.7c0.5-2,0.5-3.9,0.5-8.2v-4.8c0-4.2,0-6.1-0.5-8.2h4.5c2.8,0,5.2,0,7.2,0V65
	c-2-0.2-4.4-0.3-7.2-0.4l-2-0.1c-0.3,0-0.4,0.1-0.4,0.9v7.2h2.7c3.2,0,5.1-0.1,6.7-0.2v1.7c-1.6-0.1-3.5-0.2-6.7-0.2h-2.7v8.2
	c0,0.8,0.1,0.9,0.4,0.9l2.2-0.1c2.8-0.1,5.2-0.1,7.2-0.4v1.7C241.2,84.4,238.8,84.4,236,84.4L236,84.4z"/>
<path class="st3" d="M246.3,76.5v-5.3c0-4.3,0-5.8-0.5-7.9h6.8c4.2,0,5.8,2.5,5.8,5.1c0,1.9-0.9,3.6-2.5,4.7
	c2.7,0.9,3.8,3.3,3.8,5.4c0,3.2-2.4,5.8-6.1,5.8h-7.7C246.2,82.4,246.3,80.5,246.3,76.5L246.3,76.5z M252.6,72.7
	c3,0,4.2-0.9,4.2-3.6c0-2.7-1.3-4.5-5-4.5h-3.8c-0.2,0-0.2,0.1-0.2,0.9v7.1L252.6,72.7L252.6,72.7z M248.1,83.1h5.6
	c2.9,0,4.5-0.7,4.5-3.7c0-2.9-1.5-5.4-5.1-5.4h-5.1v8.2C247.9,83,247.9,83.1,248.1,83.1z"/>
<g>
	<path class="st0" d="M79.3,44l-1-3.9c2.1,1,7,1.9,11.1,1.9c6.6,0,7-1.7,7-7.8v-16c0-9.1-0.2-14.9-0.7-16.7h4.7
		c-0.5,1.8-0.7,7.6-0.7,16.7v16.4c0,7.2-4.4,10.8-11.7,10.8C84.4,45.3,80.8,44.5,79.3,44C79.3,44,79.3,44,79.3,44z"/>
	<path class="st0" d="M101.7,42.3c0-1.6,1.1-2.8,2.7-2.8s2.7,1.2,2.7,2.8s-1.1,2.7-2.7,2.7S101.7,43.9,101.7,42.3z"/>
	<path class="st0" d="M115.4,8.5V28c0,9.1,0.2,14.9,0.7,16.7h-3.6c0.5-1.8,0.7-7.6,0.7-16.7v-9.8c0-9.1-0.2-14.9-0.7-16.7h3.5
		l15.2,39.2l14-38.6V1.5h3.9c-0.5,1.8-0.7,7.6-0.7,16.7V28c0,9.1,0.2,14.9,0.7,16.7h-4.7c0.5-1.8,0.7-7.6,0.7-16.7V8.6l-13.2,36.1
		h-2.6L115.4,8.5L115.4,8.5z"/>
	<path class="st0" d="M152.7,42.3c0-1.6,1.1-2.8,2.7-2.8s2.7,1.2,2.7,2.8S157,45,155.4,45S152.7,43.9,152.7,42.3z"/>
	<path class="st0" d="M174.9,28v-9.8c0-9.1-0.2-14.9-0.7-16.7h4.7c-0.5,1.8-0.7,7.6-0.7,16.7v4.1c10-11.4,14.4-16.9,17.6-20.7h4.7
		c-3.7,3.9-8.5,9-19.4,20.9l21.2,22.3h-4.9l-18.5-19.9l-0.6,0.6V28c0,9.1,0.2,14.9,0.7,16.7h-4.7C174.7,42.9,174.9,37.1,174.9,28
		L174.9,28L174.9,28z"/>
	<path class="st0" d="M206.5,31.3v-4.9c0-5.9-0.1-9.9-0.9-13.4h4.1v5.5c1.8-3.6,4.7-5.9,9.3-5.9c1.7,0,3.5,0.3,3.6,0.6l-0.5,3.2
		c-1.7-0.3-3.3-0.5-4.6-0.5c-6.2,0-7.5,4-7.8,9.4v5.9c0,5.9,0.1,9.9,0.7,13.4h-4.5C206.3,41.2,206.5,37.2,206.5,31.3L206.5,31.3
		L206.5,31.3z"/>
	<path class="st0" d="M229.3,0.7c1.6,0,2.7,1.1,2.7,2.7c0,1.6-1.1,2.7-2.7,2.7c-1.5,0-2.6-1.1-2.6-2.7
		C226.7,1.7,227.8,0.7,229.3,0.7z M227.8,31.3v-4.9c0-5.9-0.1-9.9-0.7-13.4h4.5c-0.5,3.5-0.7,7.4-0.7,13.4v4.9
		c0,5.9,0.1,9.9,0.7,13.4h-4.5C227.7,41.2,227.8,37.2,227.8,31.3z"/>
	<path class="st0" d="M253.7,15.2h-1.5c-6.4,0-10.6,0.3-14.8,2.4l1-4.5h20.4l-18.2,29.5h1.3c7.8,0,11.9-0.3,16-2.4l-1,4.5h-21.3
		L253.7,15.2L253.7,15.2z"/>
</g>
</svg>
