<?xml version="1.0" encoding="UTF-8"?><svg id="Layer_1" xmlns="http://www.w3.org/2000/svg" viewBox="0 0 587.851 231.1984"><defs><style>.cls-1{fill:#819f58;}.cls-2{fill:#293e5c;}</style></defs><g><g><g><path class="cls-2" d="M182.8638,173.2121c6.6219-5.1515,12.9418-10.7195,18.7847-16.5495,.226-.2252,.2531-.5788,.0671-.8374-1.3557-1.8724-3.0426-3.4825-5.0134-4.7853-.2556-.1689-.5947-.1351-.8124,.0805-4.2741,4.244-8.8921,8.4051-13.7513,12.3918,1.8174-5.199,3.0067-10.1036,3.6239-14.9294,.1414-1.1272,.254-2.2753,.3336-3.4112,.1676-2.3291,.2077-4.3479,.1355-6.4196l-.0125-.3691c-.0334-1.0384-.0976-2.1456-.1964-3.3866-.7035-8.4972-2.8332-17.057-4.9546-25.0959-1.0609-4.0343-.9425-8.1941,.3757-12.2187,.0621-.1889,.0342-.3945-.0763-.5596-1.4842-2.2315-3.0438-4.2486-4.7686-6.1657-.1426-.1585-.3541-.2365-.5651-.2089-.2114,.0279-.3958,.1581-.4921,.3482-2.1322,4.1898-3.2131,8.6682-3.2131,13.3109,0,2.5271,.3303,5.0651,.9813,7.5435,2.5434,9.6286,4.2253,17.0007,4.7511,23.9916,.0776,1.0626,.1326,2.1969,.1635,3.3533,0,.221,.0092,.4404,.0188,.6593,.0867,2.0196-.0621,4.0881-.2957,6.3829-.138,1.2811-.3153,2.5309-.5417,3.8207-.8645,4.9471-2.4592,10.1799-4.8766,15.9982-.8065,1.9517-1.1818,3.4788-1.1818,4.8058,0,3.0021,1.92,4.2987,2.754,4.7211,3.0409,1.4838,6.2803-.5409,8.7625-2.4709Z"/><path class="cls-2" d="M206.5952,83.5112l.0038,.0008c2.0872,.4712,4.1085,1.269,6.0072,2.3708,4.9538,2.8833,8.4818,7.5081,9.933,13.0182,.4337,1.7014,.6535,3.5201,.6535,5.4058,0,10.2954-6.2491,23.055-18.072,36.8993-.1155,.1351-.1714,.3098-.1514,.4883,.0188,.1768,.1093,.3378,.2506,.4458,1.7085,1.3049,3.3028,2.8141,4.7382,4.4859,.1234,.1435,.3032,.226,.4921,.2256,.1893-.0004,.3686-.0834,.4913-.2277,13.2629-15.5837,20.2731-30.2165,20.2731-42.3172,0-2.553-.3032-5.0435-.9024-7.408-2.0034-7.6069-6.8558-13.9806-13.665-17.9482-3.0572-1.7773-6.3817-2.9767-9.8776-3.5639-1.2598-.2185-2.3908-.349-3.4554-.3983-2.2407-.1122-4.5493,.0475-6.8608,.475-.691,.1268-1.4312,.2702-2.1739,.46-.2978,.083-.5909,.1781-.8833,.2727l-.3557,.1147c-3.0409,.9454-5.8942,2.3733-8.4801,4.2436-.151,.1093-.2477,.2786-.2648,.4641-.0021,.02-.0029,.04-.0029,.0601,0,.1647,.063,.324,.1772,.4445,1.5321,1.6185,2.99,3.3262,4.3337,5.0764,.2085,.2715,.5934,.3336,.8766,.1405,1.2215-.8307,2.5142-1.5305,3.8449-2.0805,1.0567-.4429,1.95-.7531,2.8136-.9779,.083-.0221,.1643-.0371,.2452-.053l.2248-.0467c2.1247-.5163,4.3228-.7006,6.5297-.5484,1.206,.0922,2.2711,.2481,3.2569,.4775Z"/></g><g><path class="cls-2" d="M135.9243,53.1429c1.1989-.0934,2.3028-.151,3.3762-.176,2.4225-.0605,4.7353,.0292,7.0702,.274,1.1893,.1255,2.4396,.3082,3.8258,.5584,4.9275,.8607,10.1507,2.4538,15.9661,4.8683,2.3858,.9988,5.4371,1.9375,7.8767,.3186,1.367-.9074,2.151-2.4095,2.151-4.121,0-1.8649-.9158-3.8741-2.9688-6.5147-5.2165-6.7028-10.7833-13.0382-16.5462-18.8302-.2244-.2256-.5797-.2544-.8378-.0676-1.8933,1.3712-3.5117,3.0743-4.8103,5.0626-.1672,.254-.133,.5934,.083,.8099,4.2695,4.2911,8.4347,8.9022,12.4051,13.73-5.2328-1.8345-10.1332-3.0313-14.9198-3.6464-1.2089-.151-2.3266-.2631-3.4171-.3432-2.2594-.1651-4.4926-.2023-6.8246-.1134-1.0684,.0379-2.1773,.1068-3.3887,.2098-7.5243,.6289-15.4631,2.4437-25.0701,4.9751-4.0326,1.068-8.252,.937-12.202-.3782-.1893-.0626-.3962-.035-.5621,.0751-2.2169,1.4733-4.2303,3.0309-6.1561,4.7624-.1368,.1234-.2135,.2986-.2135,.4808,0,.0279,.0017,.0563,.005,.0842,.0275,.2114,.1585,.3953,.3478,.4921,6.463,3.289,13.8643,4.0835,20.8411,2.2377,9.2917-2.4483,16.924-4.1927,23.9691-4.7482Z"/><path class="cls-2" d="M86.617,42.4021c.2752-.2093,.337-.598,.1401-.8816-.8107-1.1747-1.5138-2.4613-2.0893-3.8245-.4053-.9671-.7298-1.8933-.9792-2.7861l-.0359-.2085c-.0158-.0951-.0317-.1893-.0559-.3023-.548-2.2548-.6981-4.4796-.563-6.5464,.0717-1.0384,.231-2.1014,.4862-3.2453,1.7857-7.792,7.6849-13.9022,15.3872-15.9444,13.9335-3.5059,30.6944,7.5548,42.3014,17.4507,.1347,.1151,.3111,.1697,.4875,.151,.1764-.0183,.3374-.1084,.445-.2494,1.3587-1.7703,2.8862-3.3858,4.5397-4.8016,.1435-.123,.226-.3023,.226-.4913v-.0004c0-.1893-.083-.3686-.2269-.4917C133.5252,9.0029,114.2129-3.4669,96.9082,.8901c-11.1511,2.9471-19.6092,12.1966-21.5492,23.5675-.1785,1.0868-.2961,2.2336-.3511,3.3958-.0342,.5129-.0601,1.0154-.0601,1.5221,0,1.6172,.1768,3.327,.558,5.3754l.0809,.4708c.0934,.5567,.191,1.1322,.3461,1.6927,.0717,.274,.156,.5371,.241,.8007,.05,.1543,.1001,.3082,.1493,.4742,.9633,3.0626,2.3829,5.9125,4.2194,8.4701,.1084,.151,.2769,.2481,.4621,.2665,.186,.0179,.3695-.0446,.5054-.1718,1.7632-1.6531,3.4338-3.0764,5.1068-4.352Z"/></g><g><path class="cls-2" d="M45.1242,86.0275c-.1209,1.6376-.2552,3.9438-.1535,6.1636l.0267,.628c.0459,1.088,.0993,2.2461,.2068,3.3854,.6856,8.5252,2.8149,17.0754,4.9384,25.1034,1.0592,3.9696,.9425,8.2524-.3787,12.2129-.0617,.1897-.035,.3978,.0759,.5634,1.4704,2.2056,3.0309,4.2219,4.7707,6.1644,.1426,.1585,.3536,.2373,.5646,.2098,.2118-.0271,.3962-.1568,.4929-.3465,3.2736-6.3925,4.0568-14.0282,2.2294-20.8556-2.5422-9.6624-4.2228-17.0457-4.7407-23.9875-.0851-1.2089-.1393-2.3149-.1651-3.3745-.0025-.1935-.0108-.3882-.0192-.583-.0942-2.0246,.0567-4.1122,.2936-6.4484,.1468-1.3503,.3236-2.5997,.5421-3.8224,.8474-4.8837,2.4387-10.1165,4.865-15.994,.8182-1.9487,1.1985-3.4763,1.1985-4.8066,0-3.0176-1.925-4.307-2.7598-4.7249-3.0393-1.4754-6.2787,.5492-8.7625,2.4788-6.704,5.2236-13.0219,10.7938-18.7785,16.5562-.1251,.1251-.1885,.2907-.1885,.4571,0,.1326,.04,.2661,.1234,.3799,1.3553,1.867,3.0426,3.4725,5.0134,4.7728,.2561,.1685,.5947,.1347,.8124-.0813,4.267-4.2394,8.8834-8.4001,13.7484-12.3901-1.8199,5.2119-3.0092,10.1174-3.6231,14.9352-.1418,1.1501-.2535,2.2957-.3328,3.4041Z"/><path class="cls-2" d="M34.7545,155.7347l.0033-.0004,.2752-.0521c.6189-.1163,1.2594-.2373,1.8924-.4083,.2794-.0755,.5505-.1606,.8249-.2473l.4279-.133c3.0576-.9575,5.9125-2.3849,8.4847-4.2424,.1518-.1093,.2485-.2786,.2652-.4646,.015-.1893-.0475-.3707-.176-.5058-1.5188-1.5934-2.9784-3.302-4.3387-5.0772-.2102-.2736-.5972-.3349-.8807-.1397-1.1743,.8086-2.4671,1.51-3.8416,2.0847-1.0267,.4258-1.9458,.7427-2.8074,.9683-.055,.0142-.1093,.0246-.1618,.035-.1226,.0242-.2427,.0496-.3078,.0738-2.1535,.5134-4.3529,.6927-6.5397,.5325-1.156-.0809-2.2502-.244-3.2603-.4871-7.8075-1.794-13.916-7.6878-15.9402-15.3789-.4329-1.6698-.6531-3.488-.6531-5.4038,0-10.28,6.2486-23.0383,18.0687-36.8964,.1151-.1347,.1693-.3132,.151-.4875-.0183-.1764-.1093-.3374-.2494-.4454-1.7131-1.3124-3.3045-2.8186-4.7299-4.4771-.1234-.1435-.3028-.2256-.4921-.2252-.1885,.0004-.3678,.0834-.4904,.2273C7.0118,100.1616,0,114.7903,0,126.8885c0,2.5855,.3036,5.0781,.9049,7.4109,2.9225,11.094,12.1595,19.537,23.5367,21.5104,1.2569,.2106,2.3904,.3415,3.4679,.4008,2.2202,.1126,4.523-.0475,6.845-.4758Z"/></g><g><path class="cls-2" d="M80.189,196.6874c.1668-.2552,.1334-.5934-.0826-.8099-4.2761-4.3053-8.438-8.9176-12.3939-13.7346,5.2545,1.8449,10.1503,3.043,14.906,3.6506,1.0767,.1339,2.1919,.246,3.4154,.3428,2.2869,.161,4.5197,.1981,6.825,.1134,1.1034-.0421,2.2444-.1126,3.3904-.2098,7.5623-.6393,15.4882-2.4538,25.0613-4.9809,4.0568-1.0667,8.2783-.9337,12.2087,.3841,.1902,.0634,.3991,.0354,.5655-.0759,2.2669-1.518,4.2799-3.0768,6.154-4.7649,.1585-.1426,.2373-.3528,.2085-.5651-.0279-.2114-.1585-.3953-.3482-.4921-6.4588-3.2832-13.8601-4.0781-20.8406-2.2373-9.5969,2.5255-16.954,4.2011-23.9733,4.7507-1.1176,.088-2.2527,.1472-3.372,.1768-2.3754,.0588-4.7557-.0334-7.0735-.274-1.1868-.1255-2.4371-.3057-3.8241-.5513-4.9634-.8778-10.187-2.475-15.9686-4.8833-2.3945-.9958-5.453-1.9308-7.8784-.3123-1.3653,.9154-2.1477,2.4141-2.1477,4.1122,0,1.8399,.9425,3.9129,2.9692,6.5251,5.252,6.7307,10.8192,13.0624,16.5449,18.8198,.2244,.2252,.5788,.2544,.8365,.0688,1.8966-1.3649,3.5172-3.0651,4.8174-5.053Z"/><path class="cls-2" d="M134.3059,230.3073l.0071-.0017c11.162-2.945,19.6163-12.1954,21.5379-23.5655,.1726-.9996,.2857-2.0851,.3553-3.4112l.0058-.0955c.128-2.0684-.0171-4.2286-.5038-6.7849l-.0859-.5033c-.0913-.5425-.1856-1.1039-.334-1.6768-.0738-.2656-.1622-.5271-.2515-.7907-.0521-.1539-.1043-.3082-.153-.4629-.9579-3.0764-2.3791-5.9275-4.224-8.4739-.1097-.151-.279-.2477-.465-.2644-.1856-.0171-.3699,.0467-.505,.1756-1.6322,1.5551-3.3412,3.0171-5.0802,4.3449-.2727,.2085-.3353,.5938-.143,.8766,.8232,1.2165,1.5217,2.5017,2.0759,3.8195,.4279,1.0192,.7511,1.9467,.9883,2.8362,.0204,.0759,.0309,.1551,.0421,.2327l.04,.2352c.5588,2.2836,.7119,4.4567,.5676,6.5489-.0817,1.0843-.2423,2.1489-.4904,3.2515-1.7869,7.7929-7.6849,13.9006-15.3843,15.939-13.9469,3.5155-30.6978-7.5502-42.2935-17.4515-.1351-.1151-.3111-.1701-.4871-.1518-.1768,.0183-.3378,.1084-.4454,.2485-1.3678,1.7748-2.9,3.3858-4.5547,4.7878-.146,.123-.206,.3349-.2285,.4933,0,.1893,.0826,.3686,.226,.4917,13.1487,11.2358,32.4593,23.7139,49.7832,19.3527Z"/></g></g><g><g><path class="cls-1" d="M145.9145,42.4943c.2932-2.2749,.9817-4.5368,2.0463-6.7228h.0004l.2006-.4233c.156-.3332,.3107-.6651,.5004-.985,.2698-.4671,.5842-.9533,.9896-1.5309,1.2823-1.8291,2.8045-3.4229,4.5222-4.7349,.8411-.636,1.7602-1.2185,2.8132-1.7828,1.5405-.8328,3.1322-1.4704,4.7299-1.8945,5.5535-1.4621,11.3213-.6868,16.2346,2.1785,10.1862,6.0877,16.5128,22.4741,17.8143,46.1417,.0104,.1839,.0984,.3549,.2423,.47,.1443,.1151,.3303,.1631,.5121,.1322,2.2173-.377,4.4296-.5267,6.5748-.4437,.1822,.0071,.3586-.063,.4867-.1931,.1276-.1301,.1993-.3061,.1839-.49-1.0563-18.6738-5.684-42.944-21.7356-52.5217-6.8062-3.9734-14.745-5.0497-22.3523-3.0317-3.0009,.789-5.8521,2.0509-8.4722,3.7494-.9229,.5943-1.8361,1.2669-2.7928,2.0567-1.7907,1.4858-3.395,3.1639-4.7707,4.9905-.7486,1.0029-1.3741,1.9412-1.9391,2.9116-2.0814,3.5926-3.3583,7.5685-3.7953,11.8159-.0021,.0221-.0033,.0442-.0033,.0663,0,.1622,.0609,.3194,.1726,.4395,.1264,.1368,.3053,.2118,.4913,.2068,2.2181-.0588,4.458-.0058,6.6569,.1576,.3428,.0254,.6455-.2214,.6893-.5626Z"/><path class="cls-1" d="M197.0788,115.3629c4.4267-.5951,5.1043-6.0923,5.3596-8.1615,.8745-7.0952,1.3924-14.3009,1.5396-21.4165,.0075-.3624-.2544-.6314-.5959-.6581-2.2269-.1751-4.4175,.0158-6.4893,.5621-.1109,.025-.221,.0617-.3286,.0988l-.1385,.0459c-.2719,.0776-.4621,.3224-.4691,.6051-.1222,4.7549-.4208,9.5882-.8891,14.401-1.7982-3.7407-3.7107-7.0794-5.8137-10.1536-.6201-.9074-1.2798-1.8199-2.0188-2.7928-1.4037-1.8278-2.89-3.5609-4.4154-5.1494-.8657-.9087-1.6606-1.6956-2.4262-2.4025-6.2274-5.8446-13.7959-10.7041-23.9908-16.6512-3.1852-1.8432-5.8654-4.5297-7.7512-7.7683-.0993-.171-.2711-.2869-.4666-.3149-2.5814-.372-5.1285-.548-7.787-.538-.2135,.0008-.4129,.1072-.533,.284-.0734,.1084-.1113,.2352-.1113,.3628,0,.0801,.015,.1606,.045,.2373,2.4337,6.169,6.8971,11.3822,12.5674,14.6796,9.7758,5.6961,16.9828,10.3163,22.7018,15.7459,.8791,.8265,1.6556,1.6068,2.3779,2.3879,1.593,1.6981,3.0518,3.473,4.463,5.43,.7335,1.0009,1.4275,2.0897,2.1314,3.2077,2.2323,3.5914,4.2307,7.5548,6.1089,12.1161,.6531,1.5876,2.6414,6.418,6.9301,5.8425Z"/></g><g><path class="cls-1" d="M85.0431,29.3844c0,1.6756,.2202,3.347,.6556,4.968l.0017,.005,.1243,.4283c.0751,.2761,.3228,.4704,.6089,.4775,4.7799,.1193,9.6173,.4166,14.4106,.8849-3.7682,1.809-7.1102,3.7232-10.1645,5.8187-.9191,.6285-1.8324,1.289-2.794,2.0205-1.8157,1.3874-3.5522,2.8779-5.1569,4.4263-.8866,.8428-1.6739,1.6397-2.4037,2.4329-5.8491,6.237-10.7008,13.7942-16.6341,23.9675-1.8474,3.1856-4.5339,5.8617-7.7674,7.7374-.1701,.0988-.2861,.2698-.3153,.4646-.3912,2.6314-.5813,5.1281-.5813,7.6578v.0104l.0067,.1681c.0083,.2089,.1176,.4008,.2927,.5154,.1743,.1147,.3945,.1372,.5888,.0609,6.2587-2.4471,11.3471-6.7941,14.7175-12.5715,5.6773-9.765,10.2904-16.9673,15.7409-22.6997,.7331-.7857,1.5188-1.573,2.3987-2.4045,1.6789-1.5659,3.5105-3.0655,5.4421-4.4563,.9717-.6952,2.0492-1.412,3.2019-2.1306,3.4838-2.1777,7.4413-4.1715,12.0986-6.0948,1.7615-.7273,5.8867-2.4312,5.8867-6.2954,0-3.3187-2.7615-5.3333-8.2053-5.9872-7.0885-.8953-14.2972-1.4291-21.4257-1.5863-.3428-.0075-.6322,.2544-.6589,.5963-.0467,.5988-.0684,1.103-.0684,1.5859Z"/><path class="cls-1" d="M42.7155,93.1536c.1351-.1251,.211-.2852,.2077-.4883-.005-.2848-.0167-.5701-.0284-.8553-.0717-1.7561-.0075-3.4963,.1593-5.8241,.0158-.342-.2252-.6455-.5663-.6877-2.337-.2886-4.6156-.9754-6.7724-2.0409l-.246-.1205c-.3828-.1872-.744-.3636-1.1051-.5838-.4354-.2481-.8332-.5325-1.2544-.8336l-.2736-.1947c-1.8382-1.2898-3.4187-2.792-4.6998-4.4675-.623-.8057-1.1969-1.7069-1.8057-2.8382-1.7198-3.1635-2.6289-6.6974-2.6289-10.2195,0-3.7628,1.0025-7.4797,2.8941-10.7416,4.3245-7.2403,15.8418-16.2096,46.1476-17.8197,.1852-.01,.357-.0988,.4721-.244,.1159-.1451,.1643-.3324,.1309-.515-.3645-2.0567-.5546-4.1531-.4387-6.1415l.025-.4408c-.0033-.1906-.0617-.3603-.191-.4892-.1301-.1284-.3078-.1964-.4904-.1864-18.6575,1.0179-42.9223,5.6194-52.5672,21.766-2.6189,4.4863-4.0026,9.6082-4.0026,14.8122,0,5.6594,1.6331,11.1895,4.7265,15.9965,.6973,1.0634,1.3862,1.9971,2.1018,2.8495,1.4179,1.724,3.0734,3.3082,4.9217,4.709,.975,.7402,1.8958,1.3591,2.8132,1.8904,.0267,.0221,.0559,.0417,.0859,.0596,3.6339,2.1072,7.6315,3.3916,11.8818,3.8174,.1835,.0183,.367-.0425,.5029-.1681Z"/></g><g><path class="cls-1" d="M188.1604,145.23c-.0329,.3415,.2248,.646,.5667,.6881,2.3128,.2823,4.5935,.9704,6.7824,2.0467,.4179,.2014,.8912,.4299,1.3449,.696,.4091,.2327,.7873,.5038,1.1877,.7911l.334,.2385c1.8503,1.304,3.4313,2.8053,4.6994,4.4638,.6097,.7944,1.1835,1.7006,1.807,2.8533,1.7219,3.1727,2.6322,6.7053,2.6322,10.2162,0,3.7645-1.0038,7.4772-2.9,10.7316-4.3103,7.2337-15.8134,16.1975-46.1376,17.8235-.1847,.01-.3561,.0984-.4712,.2431-.0917,.1151-.141,.2573-.141,.4028,0,.0367,.0033,.0738,.0096,.1105,.3757,2.1668,.5471,4.3078,.4204,6.4217l-.0096,.1614c-.0104,.1856,.0575,.3636,.1872,.4946,.1301,.1305,.3098,.1993,.4942,.1893,18.6692-1.0355,42.9415-5.6515,52.5555-21.7689,2.6235-4.4855,4.0105-9.6069,4.0105-14.8097,0-5.6598-1.6351-11.1899-4.7265-15.9898-.5742-.9008-1.2607-1.8361-2.1018-2.862-1.4596-1.7557-3.1151-3.3395-4.9188-4.7065-.9892-.7531-1.9383-1.3891-2.8991-1.9425-3.6448-2.1206-7.644-3.4075-11.8859-3.8253-.1856-.0183-.3699,.0442-.5058,.1718-.1355,.1272-.2114,.3019-.2039,.4933l.0267,.6664c.0947,2.1406-.0342,4.2782-.1572,6.0009Z"/><path class="cls-1" d="M146.1088,203.4132c.04-.4662,.0588-.9683,.0588-1.5809,0-1.6627-.216-3.3337-.6481-4.9888l-.0688-.2114c-.0234-.0676-.0467-.1355-.0659-.2043-.0755-.2748-.3219-.4679-.6068-.475-4.807-.1251-9.6428-.4208-14.4085-.8807,3.7328-1.7986,7.0723-3.7123,10.154-5.8166,.9896-.6664,1.9341-1.3466,2.8066-2.0213,1.822-1.402,3.5584-2.8933,5.1602-4.4321,.8749-.837,1.6622-1.6289,2.4087-2.4229,5.8804-6.287,10.7166-13.8347,16.6129-23.9746,1.8683-3.2015,4.5576-5.8775,7.7774-7.7391,.1706-.0988,.2869-.2698,.3161-.4646,.3849-2.5805,.5717-5.0793,.5717-7.639v-.1681c0-.2139-.1055-.4137-.2823-.5342-.1764-.1205-.4012-.146-.6005-.068-6.2566,2.4504-11.3455,6.7983-14.7171,12.5744-5.659,9.7345-10.2633,16.9265-15.723,22.6943-.8595,.9024-1.6489,1.6877-2.4141,2.4016-1.6948,1.593-3.4709,3.0505-5.4313,4.4563-.9525,.6843-2.0025,1.3828-3.2094,2.1343-3.5463,2.2023-7.5043,4.1973-12.0999,6.0985-1.7602,.7244-5.8813,2.4208-5.8813,6.2933,0,3.3028,2.7586,5.3204,8.2003,5.9968,7.1794,.892,14.3902,1.4179,21.4324,1.5634,.3407,.0067,.6285-.2519,.6576-.5913Z"/></g><g><path class="cls-1" d="M82.5627,175.2905c.0993,.1706,.2711,.2865,.4662,.3149,2.6464,.3828,5.1944,.5617,7.7883,.548,.2135-.0013,.4129-.1076,.5321-.2844,.1193-.1764,.146-.4012,.0659-.5997-2.4329-6.1711-6.8925-11.388-12.5573-14.6896-9.7733-5.6836-16.9819-10.2996-22.7135-15.7438-.834-.7898-1.6364-1.593-2.382-2.3854-1.6122-1.7227-3.0701-3.4971-4.4563-5.4254-.734-1.0221-1.4521-2.1001-2.136-3.2065-2.2177-3.563-4.2144-7.5264-6.1219-12.1558-.7273-1.7419-2.6589-6.3687-6.9075-5.8091-4.4755,.613-5.1377,6.2979-5.3546,8.1607-.8883,7.1015-1.4095,14.3072-1.5497,21.417v.0133c0,.3361,.2586,.6176,.5947,.6443,2.2277,.1777,4.4221-.0108,6.5331-.5642l.2068-.0642c.0684-.0221,.1376-.045,.211-.0642,.2786-.073,.4754-.3219,.4821-.6101,.1143-4.8007,.4103-9.6374,.8816-14.411,1.7949,3.7382,3.7082,7.0802,5.8174,10.1657,.7715,1.1101,1.4095,1.995,2.0117,2.7886,1.4045,1.8245,2.895,3.5589,4.4288,5.1506,.7189,.7602,1.5113,1.5467,2.4237,2.405,6.232,5.8416,13.7976,10.6953,23.9854,16.6333,3.1944,1.8612,5.8742,4.5489,7.7499,7.772Z"/><path class="cls-1" d="M79.9955,210.7895c.8883-.5638,1.8024-1.2319,2.7999-2.0455,1.8266-1.5196,3.4321-3.1956,4.7707-4.9809,.7381-.9796,1.3678-1.9208,1.9442-2.9229,2.0801-3.5689,3.357-7.5427,3.7949-11.8105,.02-.1822-.0425-.3691-.1685-.5054-.1268-.1364-.3061-.2118-.4913-.2068-2.2261,.0588-4.4655,.0054-6.6565-.1581-.3445-.0254-.6481,.2235-.6906,.5659-.2744,2.2248-.9608,4.4851-2.0359,6.7115-.0859,.1726-.1676,.3461-.2477,.5188-.1435,.3053-.2836,.6076-.447,.8874-.3428,.5692-.7023,1.098-1.005,1.5363-1.2919,1.8353-2.8182,3.4254-4.5397,4.729-.8507,.6526-1.7657,1.239-2.799,1.7928-6.659,3.5876-14.499,3.4813-20.9653-.2802-10.1862-6.0835-16.509-22.4704-17.8043-46.1417-.01-.1839-.0976-.3549-.2419-.47s-.3303-.1631-.5121-.1322c-2.2144,.377-4.4279,.5229-6.5798,.4337-.1827-.0075-.3595,.0626-.4871,.1927-.1201,.1209-.186,.2844-.186,.4537,0,.0121,0,.0242,.0008,.0363,1.0526,18.6759,5.6748,42.949,21.7201,52.5326,9.624,5.5914,21.4357,5.3095,30.827-.7365Z"/></g></g></g><g><g><path class="cls-2" d="M269.3544,137.2582c-5.7729-2.5586-10.1885-5.8945-13.249-10.0117-3.063-4.1143-4.6929-8.5298-4.8931-13.2485,0-.8022,.3013-1.5059,.9033-2.1079,.6025-.6021,1.355-.9033,2.2583-.9033h3.0112c1.8066,0,2.9097,1.0044,3.312,3.0112,.7012,4.8179,3.4629,9.0332,8.2808,12.647,4.8179,3.6133,11.7432,5.4199,20.7764,5.4199,9.5342,0,16.6367-1.7314,21.3037-5.1943s7.001-8.3042,7.001-14.5288c0-3.813-1.1299-6.9492-3.3877-9.4097-2.2588-2.458-5.5469-4.6152-9.8613-6.4736-4.3164-1.8564-10.8398-4.1899-19.5723-7.001-7.73-2.5078-13.7759-4.9683-18.1416-7.377-4.3662-2.4092-7.603-5.3687-9.7109-8.8828-2.1079-3.5122-3.1616-7.9795-3.1616-13.3994,0-5.1191,1.3784-9.7344,4.1401-13.8511,2.7593-4.1143,6.749-7.3516,11.9692-9.7109,5.2178-2.3569,11.4419-3.5381,18.6689-3.5381,7.4263,0,13.7993,1.3315,19.1206,3.9897,5.3184,2.6606,9.334,6.0225,12.0439,10.0874s4.1641,8.1558,4.3662,12.27c0,.8047-.2773,1.5054-.8281,2.1079-.5527,.6021-1.3311,.9033-2.334,.9033h-3.0107c-.7031,0-1.4062-.2261-2.1074-.6777-.7041-.4517-1.1055-1.228-1.2051-2.3335-.6016-5.0176-3.2881-9.1577-8.0547-12.4209-4.7676-3.2603-10.7646-4.8931-17.9907-4.8931-7.7305,0-13.877,1.5059-18.4434,4.5166-4.5684,3.0112-6.8501,7.5278-6.8501,13.5503,0,3.9141,1.0278,7.1514,3.0864,9.7104,2.0562,2.5596,5.1426,4.7686,9.2593,6.6245,4.1143,1.8584,10.186,4.0908,18.2168,6.6997,8.2285,2.6113,14.6533,5.1191,19.2715,7.5278,4.6152,2.4087,8.1035,5.3213,10.4629,8.7324,2.3574,3.4131,3.5381,7.8286,3.5381,13.2485,0,9.0332-3.3633,16.0854-10.0869,21.1528-6.7256,5.0693-15.959,7.6035-27.7021,7.6035-7.8286,0-14.6294-1.2803-20.3999-3.8398Z"/><path class="cls-1" d="M330.5551,138.6888c-.6025-.6025-.9033-1.3037-.9033-2.1074l.3008-1.6562,38.0908-97.7104c.8018-2.0063,2.2578-3.0107,4.3662-3.0107h5.1191c2.1074,0,3.5615,1.0044,4.3652,3.0107l38.0908,97.7104,.3008,1.6562c0,.8037-.3008,1.5049-.9033,2.1074-.6016,.6025-1.3057,.9033-2.1074,.9033h-3.0107c-.9033,0-1.6328-.249-2.1836-.7529-.5527-.501-.9287-1.002-1.1289-1.5059l-9.335-24.0884h-53.2959l-9.335,24.0884c-.2021,.5039-.5781,1.0049-1.1289,1.5059-.5527,.5039-1.2793,.7529-2.1826,.7529h-3.0117c-.8037,0-1.5049-.3008-2.1074-.9033Zm67.4482-34.4771l-23.0342-59.3188-23.0352,59.3188h46.0693Z"/><path class="cls-1" d="M435.6429,130.2582c-6.9258-7.2271-10.5908-16.9121-10.9912-29.0576-.1006-3.0107-.1504-7.7769-.1504-14.3027s.0498-11.2915,.1504-14.3027c.4004-12.1431,4.0654-21.8301,10.9912-29.0571,6.9248-7.2266,16.6592-10.8398,29.207-10.8398,8.5303,0,15.707,1.6069,21.5293,4.8179,5.8203,3.2134,10.1631,7.001,13.0234,11.3667,2.8604,4.3662,4.3896,8.2573,4.5918,11.668v.3013c0,.8047-.3008,1.4561-.9033,1.957-.6025,.5034-1.3555,.7529-2.2588,.7529h-3.3115c-.9033,0-1.5576-.1997-1.958-.6021-.4014-.3999-.8037-1.2046-1.2041-2.4092-1.708-5.3188-4.9941-9.7856-9.8613-13.3994-4.8691-3.6133-11.4189-5.4199-19.6475-5.4199-9.334,0-16.6875,2.5596-22.0557,7.6787-5.3711,5.1187-8.2578,13.0981-8.6572,23.938-.1015,3.0112-.1504,7.5278-.1504,13.5498s.0488,10.5391,.1504,13.5503c.3994,10.8398,3.2861,18.8193,8.6572,23.938,5.3682,5.1191,12.7217,7.6787,22.0557,7.6787s16.8623-2.6582,22.583-7.9795c5.7217-5.3193,8.582-13.1973,8.582-23.6372v-7.6787h-26.1963c-1.0049,0-1.8067-.3242-2.4092-.9785-.6025-.6514-.9033-1.4795-.9033-2.4839v-2.1079c0-1.002,.3008-1.8301,.9033-2.4844,.6025-.6514,1.4043-.9785,2.4092-.9785h32.2188c1.1025,0,1.957,.3013,2.5596,.9033,.6016,.6025,.9033,1.4561,.9033,2.5596v13.249c0,8.0308-1.6074,15.1069-4.8184,21.228-3.2129,6.123-7.8809,10.8916-14.001,14.3027-6.124,3.4131-13.3994,5.1191-21.8311,5.1191-12.5479,0-22.2822-3.6133-29.207-10.8398Z"/><path class="cls-1" d="M522.059,138.6888c-.6025-.6025-.9033-1.4043-.9033-2.4092V37.6664c0-1.002,.3008-1.8301,.9033-2.4839,.6016-.6519,1.4043-.9785,2.4092-.9785h58.7158c1.1035,0,1.957,.3008,2.5596,.9033,.6025,.6021,.9033,1.4561,.9033,2.5591v2.2583c0,1.0049-.3271,1.8066-.9785,2.4092-.6543,.6021-1.4824,.9033-2.4844,.9033h-52.5439v38.3916h49.2314c1.1035,0,1.958,.3008,2.5596,.9033,.6025,.6021,.9033,1.4561,.9033,2.5591v2.2583c0,1.0044-.3271,1.8066-.9785,2.4092-.6533,.6021-1.4814,.9033-2.4844,.9033h-49.2314v39.897h53.748c1.1035,0,1.958,.3008,2.5596,.9033,.6025,.6025,.9033,1.4561,.9033,2.5596v2.2578c0,1.0049-.3271,1.8066-.9785,2.4092-.6533,.6025-1.4814,.9033-2.4844,.9033h-59.9199c-1.0049,0-1.8076-.3008-2.4092-.9033Z"/></g><g><path class="cls-2" d="M259.8724,196.7162c-2.7686-1.1895-4.8843-2.7559-6.3477-4.7012-1.4648-1.9434-2.2422-4.0371-2.333-6.2783,0-.3662,.1479-.6973,.4458-.9951,.2969-.2969,.6519-.4463,1.064-.4463h3.4995c.8687,0,1.4634,.458,1.7842,1.3721,.4116,1.9219,1.5889,3.5684,3.5342,4.9414,1.9438,1.3721,4.6768,2.0586,8.2002,2.0586,3.7969,0,6.6562-.6748,8.5781-2.0244,1.9214-1.3486,2.8818-3.2363,2.8818-5.6611,0-1.5547-.4697-2.8135-1.4067-3.7744-.938-.9609-2.3223-1.8066-4.1514-2.5391-1.8306-.7314-4.5752-1.6475-8.2349-2.7451-3.5684-1.0059-6.4058-2.0811-8.5093-3.2256-2.105-1.1426-3.6831-2.5615-4.7349-4.2539-1.0532-1.6924-1.5786-3.8193-1.5786-6.3818,0-2.4707,.6748-4.6895,2.0244-6.6572,1.3491-1.9658,3.2822-3.5098,5.7988-4.6318,2.5156-1.1201,5.5122-1.6807,8.9893-1.6807,3.5688,0,6.6328,.6289,9.1958,1.8867,2.5615,1.2588,4.5054,2.8477,5.833,4.7695,1.3262,1.9209,2.0347,3.8428,2.127,5.7637,0,.3672-.1265,.6865-.3774,.9609-.252,.2744-.6069,.4121-1.0635,.4121h-3.6372c-.9604,0-1.5557-.4346-1.7842-1.3037-.2744-1.9219-1.3496-3.5107-3.2251-4.7695-1.8765-1.2578-4.2319-1.8867-7.0684-1.8867-3.1113,0-5.5581,.5947-7.3423,1.7842s-2.6763,2.9502-2.6763,5.2832c0,1.5557,.4224,2.8379,1.2695,3.8428,.8457,1.0068,2.1377,1.8877,3.877,2.6426,1.7383,.7549,4.2773,1.6123,7.6172,2.5732,3.8877,1.0527,6.9536,2.1387,9.1953,3.2598,2.2412,1.1211,3.9116,2.5166,5.0098,4.1855,1.0977,1.6709,1.647,3.7861,1.647,6.3477,0,4.2549-1.647,7.5947-4.9409,10.0186-3.2939,2.4258-7.7319,3.6377-13.313,3.6377-3.7979,0-7.0796-.5957-9.8472-1.7842Z"/><path class="cls-2" d="M296.9281,193.7992c-3.271-3.1328-4.9985-7.8574-5.1807-14.1699-.0464-1.373-.0688-3.3164-.0688-5.833s.0225-4.4375,.0688-5.7646c.1821-6.1758,1.9663-10.877,5.3525-14.1016,3.3848-3.2256,7.9609-4.8379,13.7246-4.8379,5.7188,0,10.2695,1.6123,13.6562,4.8379,3.3848,3.2246,5.168,7.9258,5.3516,14.1016,.0918,2.6533,.1387,4.5752,.1387,5.7646,0,1.1436-.0469,3.0879-.1387,5.833-.1836,6.3125-1.9102,11.0371-5.1797,14.1699-3.2715,3.1348-7.8809,4.7012-13.8281,4.7012-5.9941,0-10.625-1.5664-13.8965-4.7012Zm22.543-4.4258c2.1504-2.1963,3.3164-5.5586,3.5-10.0879,.0898-2.7451,.1367-4.5742,.1367-5.4893,0-1.0059-.0469-2.8359-.1367-5.4902-.1836-4.5293-1.3613-7.8916-3.5352-10.0879-2.1719-2.1953-5.043-3.293-8.6113-3.293-3.6152,0-6.5078,1.0977-8.6816,3.293-2.1719,2.1963-3.3516,5.5586-3.5332,10.0879-.0469,1.3271-.0684,3.1562-.0684,5.4902,0,2.2881,.0215,4.1172,.0684,5.4893,.1816,4.5293,1.3613,7.8916,3.5332,10.0879,2.1738,2.1953,5.0664,3.2939,8.6816,3.2939,3.6133,0,6.4961-1.0986,8.6465-3.2939Z"/><path class="cls-2" d="M337.0023,197.3675c-.2979-.2969-.4463-.6738-.4463-1.1318v-44.8789c0-.457,.1484-.835,.4463-1.1328,.2969-.2969,.6748-.4463,1.1328-.4463h3.6367c.457,0,.834,.1494,1.1318,.4463,.2979,.2979,.4463,.6758,.4463,1.1328v40.4873h22.7832c.5029,0,.9023,.1484,1.2002,.4453,.2969,.2988,.4463,.6982,.4463,1.2012v2.7451c0,.458-.1611,.835-.4805,1.1318-.3203,.2979-.71,.4463-1.166,.4463h-27.998c-.458,0-.8359-.1484-1.1328-.4463Z"/><path class="cls-2" d="M375.0189,193.7308c-3.2256-3.1787-4.8379-7.9941-4.8379-14.4453v-27.8604c0-.5029,.1475-.9033,.4463-1.2012,.2969-.2969,.6738-.4463,1.1318-.4463h3.5c.5029,0,.9023,.1494,1.2002,.4463,.2979,.2979,.4463,.6982,.4463,1.2012v27.998c0,4.3916,1.0293,7.6855,3.0879,9.8818,2.0586,2.1953,4.9639,3.2939,8.7158,3.2939,3.75,0,6.6562-1.0986,8.7148-3.2939,2.0586-2.1963,3.0879-5.4902,3.0879-9.8818v-27.998c0-.5029,.1475-.9033,.4463-1.2012,.2969-.2969,.6738-.4463,1.1318-.4463h3.5684c.457,0,.834,.1611,1.1328,.4805,.2969,.3213,.4453,.71,.4453,1.167v27.8604c0,6.4512-1.6123,11.2666-4.8379,14.4453-3.2246,3.1807-7.7881,4.7695-13.6895,4.7695s-10.4648-1.5889-13.6904-4.7695Z"/><path class="cls-2" d="M426.2103,197.3675c-.2979-.2969-.4453-.6738-.4453-1.1318v-40.3506h-13.1758c-.458,0-.835-.1475-1.1328-.4453s-.4453-.6748-.4453-1.1328v-2.8818c0-.457,.1475-.8457,.4453-1.167,.2979-.3193,.6748-.4805,1.1328-.4805h33.0762c.5029,0,.9023,.1494,1.2012,.4463,.2969,.2979,.4453,.6982,.4453,1.2012v2.8818c0,.458-.1602,.835-.4805,1.1328s-.709,.4453-1.166,.4453h-13.1074v40.3506c0,.458-.1602,.835-.4805,1.1318-.3203,.2979-.709,.4463-1.166,.4463h-3.5684c-.458,0-.835-.1484-1.1328-.4463Z"/><path class="cls-2" d="M452.0121,197.3675c-.2978-.2969-.4463-.6738-.4463-1.1318v-44.8789c0-.457,.1484-.835,.4463-1.1328,.2969-.2969,.6748-.4463,1.1328-.4463h3.6367c.457,0,.834,.1494,1.1318,.4463,.2979,.2979,.4463,.6758,.4463,1.1328v44.8789c0,.458-.1484,.835-.4463,1.1318-.2979,.2979-.6748,.4463-1.1318,.4463h-3.6367c-.458,0-.8359-.1484-1.1328-.4463Z"/><path class="cls-2" d="M470.266,193.7992c-3.2715-3.1328-4.999-7.8574-5.1816-14.1699-.0459-1.373-.0684-3.3164-.0684-5.833s.0225-4.4375,.0684-5.7646c.1826-6.1758,1.9668-10.877,5.3525-14.1016,3.3857-3.2256,7.9609-4.8379,13.7246-4.8379,5.7188,0,10.2705,1.6123,13.6562,4.8379,3.3848,3.2246,5.1689,7.9258,5.3525,14.1016,.0908,2.6533,.1377,4.5752,.1377,5.7646,0,1.1436-.0469,3.0879-.1377,5.833-.1836,6.3125-1.9111,11.0371-5.1807,14.1699-3.2715,3.1348-7.8809,4.7012-13.8281,4.7012-5.9932,0-10.625-1.5664-13.8955-4.7012Zm22.542-4.4258c2.1504-2.1963,3.3164-5.5586,3.5-10.0879,.0908-2.7451,.1377-4.5742,.1377-5.4893,0-1.0059-.0469-2.8359-.1377-5.4902-.1836-4.5293-1.3613-7.8916-3.5342-10.0879-2.1729-2.1953-5.0439-3.293-8.6123-3.293-3.6143,0-6.5078,1.0977-8.6807,3.293-2.1729,2.1963-3.3516,5.5586-3.5342,10.0879-.0459,1.3271-.0684,3.1562-.0684,5.4902,0,2.2881,.0225,4.1172,.0684,5.4893,.1826,4.5293,1.3613,7.8916,3.5342,10.0879,2.1729,2.1953,5.0664,3.2939,8.6807,3.2939s6.4961-1.0986,8.6465-3.2939Z"/><path class="cls-2" d="M510.3402,197.3675c-.2979-.2969-.4463-.6738-.4463-1.1318v-44.8105c0-.5029,.1484-.9033,.4463-1.2012,.2969-.2969,.6748-.4463,1.1328-.4463h3.1562c.8232,0,1.3945,.3213,1.7158,.9609l22.7822,34.998v-34.3115c0-.5029,.1484-.9033,.4463-1.2012,.2969-.2969,.6748-.4463,1.1318-.4463h3.2939c.5029,0,.9033,.1494,1.2012,.4463,.2969,.2979,.4463,.6982,.4463,1.2012v44.7422c0,.457-.1494,.8467-.4463,1.166-.2979,.3203-.6758,.4805-1.1318,.4805h-3.2939c-.6865,0-1.2354-.3193-1.6475-.9609l-22.7139-34.6543v34.0371c0,.458-.1611,.835-.4805,1.1318-.3203,.2979-.71,.4463-1.166,.4463h-3.2939c-.458,0-.836-.1484-1.1328-.4463Z"/><path class="cls-2" d="M559.7474,196.7162c-2.7686-1.1895-4.8838-2.7559-6.3477-4.7012-1.4639-1.9434-2.2412-4.0371-2.333-6.2783,0-.3662,.1484-.6973,.4463-.9951,.2969-.2969,.6523-.4463,1.0635-.4463h3.5c.8682,0,1.4639,.458,1.7842,1.3721,.4121,1.9219,1.5889,3.5684,3.5342,4.9414,1.9434,1.3721,4.6768,2.0586,8.2002,2.0586,3.7969,0,6.6562-.6748,8.5781-2.0244,1.9209-1.3486,2.8818-3.2363,2.8818-5.6611,0-1.5547-.4697-2.8135-1.4062-3.7744-.9385-.9609-2.3232-1.8066-4.1523-2.5391-1.8301-.7314-4.5752-1.6475-8.2344-2.7451-3.5683-1.0059-6.4053-2.0811-8.5088-3.2256-2.1055-1.1426-3.6836-2.5615-4.7354-4.2539-1.0527-1.6924-1.5781-3.8193-1.5781-6.3818,0-2.4707,.6738-4.6895,2.0244-6.6572,1.3486-1.9658,3.2822-3.5098,5.7978-4.6318,2.5156-1.1201,5.5127-1.6807,8.9903-1.6807,3.5684,0,6.6328,.6289,9.1953,1.8867,2.5615,1.2588,4.5049,2.8477,5.833,4.7695,1.3262,1.9209,2.0352,3.8428,2.127,5.7637,0,.3672-.126,.6865-.377,.9609-.252,.2744-.6074,.4121-1.0645,.4121h-3.6367c-.9609,0-1.5557-.4346-1.7842-1.3037-.2744-1.9219-1.3496-3.5107-3.2246-4.7695-1.877-1.2578-4.2324-1.8867-7.0684-1.8867-3.1123,0-5.5586,.5947-7.3428,1.7842s-2.6768,2.9502-2.6768,5.2832c0,1.5557,.4229,2.8379,1.2695,3.8428,.8467,1.0068,2.1387,1.8877,3.8779,2.6426,1.7373,.7549,4.2764,1.6123,7.6172,2.5732,3.8877,1.0527,6.9531,2.1387,9.1953,3.2598,2.2402,1.1211,3.9111,2.5166,5.0088,4.1855,1.0986,1.6709,1.6475,3.7861,1.6475,6.3477,0,4.2549-1.6475,7.5947-4.9414,10.0186-3.2939,2.4258-7.7314,3.6377-13.3125,3.6377-3.7979,0-7.0801-.5957-9.8477-1.7842Z"/></g></g></svg>